<?xml version="1.0" encoding="utf-8"?>
<!-- Generator: Adobe Illustrator 19.0.0, SVG Export Plug-In . SVG Version: 6.00 Build 0)  -->
<svg version="1.1" id="Layer_1" xmlns="http://www.w3.org/2000/svg" xmlns:xlink="http://www.w3.org/1999/xlink" x="0px" y="0px"
	 viewBox="0 0 30 30" style="enable-background:new 0 0 30 30;" xml:space="preserve">
<style type="text/css">
	.st0{fill:#6699CC;}
	.st1{fill:#FFFFFF;}
</style>
<path id="XMLID_2_" class="st0" d="M27,30H3c-1.7,0-3-1.4-3-3V3c0-1.6,1.4-3,3-3h24c1.6,0,3,1.3,3,3v24C30,28.6,28.6,30,27,30z"/>
<path id="XMLID_1_" class="st1" d="M17.2,6.7c2-1.8,4.9-1.3,7.4-1.4c0,1.4,0,2.7,0,4.1c-1.3,0.2-3-0.5-4,0.7
	c-0.3,1.1-0.1,2.3-0.2,3.4c1.4,0.1,2.7,0,4.1,0c-0.1,1.4-0.3,2.7-0.5,4.1c-1.3,0-2.4,0-3.6,0c0,4.1,0,8.2,0,12.4c-1.6,0-3.3,0-4.9,0
	c0-4.1,0-8.3,0-12.4c-1.1,0-2.2,0-3.3,0c0-1.4,0-2.7,0-4.1c1.1,0,2.2,0,3.3,0C15.5,11.2,15.3,8.4,17.2,6.7z"/>
</svg>
