<?xml version="1.0" encoding="utf-8"?>
<!-- Generator: Adobe Illustrator 19.0.0, SVG Export Plug-In . SVG Version: 6.00 Build 0)  -->
<svg version="1.1" id="svggraph" xmlns="http://www.w3.org/2000/svg" xmlns:xlink="http://www.w3.org/1999/xlink" x="0px" y="0px"
	 viewBox="630 12 1600 178" style="enable-background:new 630 12 1600 178;" xml:space="preserve">
<style type="text/css">
	.st0{opacity:0.5;fill:url(#XMLID_7_);stroke:url(#XMLID_8_);stroke-width:3;stroke-miterlimit:10;enable-background:new    ;}
	.st1{fill:#FFFFFF;stroke:#8FFFFF;stroke-width:3;stroke-miterlimit:10;}
	.st2{fill:url(#XMLID_9_);stroke:url(#XMLID_10_);stroke-width:3;stroke-miterlimit:10;}
	.st3{fill:#FFFFFF;stroke:#88EAE7;stroke-width:3;stroke-miterlimit:10;}
</style>
<g id="g2">
	
		<linearGradient id="XMLID_7_" gradientUnits="userSpaceOnUse" x1="628.5" y1="-698.1756" x2="2228.5" y2="-698.1756" gradientTransform="matrix(1 0 0 1 0 804)">
		<stop  offset="0" style="stop-color:#94DFFF;stop-opacity:0"/>
		<stop  offset="0.2849" style="stop-color:#45BBE8;stop-opacity:0.1"/>
		<stop  offset="0.9462" style="stop-color:#94F4FF;stop-opacity:0.3"/>
	</linearGradient>
	
		<linearGradient id="XMLID_8_" gradientUnits="userSpaceOnUse" x1="627" y1="-698.1756" x2="2230.0237" y2="-698.1756" gradientTransform="matrix(1 0 0 1 0 804)">
		<stop  offset="0" style="stop-color:#94DFFF"/>
		<stop  offset="0.172" style="stop-color:#009CD4"/>
		<stop  offset="0.4677" style="stop-color:#2AF6FF"/>
		<stop  offset="0.8011" style="stop-color:#45BBE8"/>
		<stop  offset="0.9462" style="stop-color:#45FFE8"/>
	</linearGradient>
	<path id="XMLID_4_" class="st0" d="M2228.5,152.6c0,0-76.4,12.5-147.2-4.9c-70.8-17.4-152.8-40.1-265-6.1s-232.1,19.9-324.7,2.6
		c-92.6-17.3-209-84.7-219.5-90.7s-113.6-67.3-206.2-2c-92.6,65.3-195.6,100-258,104s-99.5-32-179.4-70V190H2228L2228.5,152.6z"/>
	<ellipse id="XMLID_5_" class="st1" cx="1327.2" cy="81.3" rx="11" ry="10.5"/>
</g>
<g id="g1">
	
		<linearGradient id="XMLID_9_" gradientUnits="userSpaceOnUse" x1="1431.2" y1="-615" x2="1431.2" y2="-783.7152" gradientTransform="matrix(1 0 0 1 0 804)">
		<stop  offset="0" style="stop-color:#94DFFF;stop-opacity:0"/>
		<stop  offset="0.6183" style="stop-color:#45BBE8;stop-opacity:0.1"/>
		<stop  offset="0.9462" style="stop-color:#94F4FF;stop-opacity:0.3"/>
	</linearGradient>
	
		<linearGradient id="XMLID_10_" gradientUnits="userSpaceOnUse" x1="630.2937" y1="-699.3576" x2="2232.0999" y2="-699.3576" gradientTransform="matrix(1 0 0 1 0 804)">
		<stop  offset="0" style="stop-color:#BFF6FF"/>
		<stop  offset="0.4731" style="stop-color:#7FEEFF"/>
		<stop  offset="0.6183" style="stop-color:#55EEFF"/>
		<stop  offset="0.9462" style="stop-color:#45FFE8"/>
	</linearGradient>
	<path id="XMLID_1_" class="st2" d="M631.8,180.4c67.7-181.6,156.2,2.7,232.8-7.9C979,156.6,969.7,109,1018,105
		c28.3-2.4,58.8,49.4,98.4,50.9s80.4-24.4,97-28.9s50.9-19.5,102.4,4.5s135,56,213.8,10S1647,52,1674.8,36
		c27.9-16,63.2-27.5,102.4,9.5s80.6,82.7,96.3,93.3c15.7,10.6,59.3,32,107.2-11.3s111.8-83.4,134.7-92c32.9-12.3,67-29,115.2,4.5
		v149H632L631.8,180.4z"/>
	<ellipse id="XMLID_3_" class="st3" cx="1018.3" cy="104.8" rx="10.8" ry="10.1"/>
	<ellipse id="XMLID_6_" class="st1" cx="2109.1" cy="38" rx="11.9" ry="11.2"/>
</g>
</svg>
