<?xml version="1.0" encoding="utf-8"?>
<!-- Generator: Adobe Illustrator 19.0.0, SVG Export Plug-In . SVG Version: 6.00 Build 0)  -->
<svg version="1.0" id="svggraph" xmlns="http://www.w3.org/2000/svg" xmlns:xlink="http://www.w3.org/1999/xlink" x="0px" y="0px"
	 viewBox="0 412 1600 178" style="enable-background:new 0 412 1600 178;" xml:space="preserve">
<style type="text/css">
	.st0{fill:#FFFFFF;stroke:url(#XMLID_7_);stroke-width:3;stroke-miterlimit:10;}
	.st1{opacity:0.5;fill:url(#XMLID_8_);stroke:url(#XMLID_9_);stroke-width:3;stroke-miterlimit:10;enable-background:new    ;}
	.st2{fill:url(#XMLID_10_);stroke:url(#XMLID_11_);stroke-width:3;stroke-miterlimit:10;}
	.st3{fill:#FFFFFF;stroke:url(#XMLID_12_);stroke-width:3;stroke-miterlimit:10;}
	.st4{fill:#FFFFFF;stroke:url(#XMLID_13_);stroke-width:3;stroke-miterlimit:10;}
</style>
<g id="g2">
	
		<linearGradient id="XMLID_7_" gradientUnits="userSpaceOnUse" x1="680.6" y1="522.7" x2="714.4569" y2="522.7" gradientTransform="matrix(1 0 0 -1 0 1004)">
		<stop  offset="0" style="stop-color:#94DFFF"/>
		<stop  offset="0.4731" style="stop-color:#009CD4"/>
		<stop  offset="0.6183" style="stop-color:#45BBE8"/>
		<stop  offset="0.9462" style="stop-color:#45FFE8"/>
	</linearGradient>
	<ellipse id="XMLID_5_" class="st0" cx="697.5" cy="481.3" rx="15.4" ry="14.7"/>
	
		<linearGradient id="XMLID_8_" gradientUnits="userSpaceOnUse" x1="-1.5" y1="497.6756" x2="1598.5" y2="497.6756" gradientTransform="matrix(1 0 0 -1 0 1004)">
		<stop  offset="0" style="stop-color:#94DFFF;stop-opacity:0"/>
		<stop  offset="0.2849" style="stop-color:#45BBE8;stop-opacity:0.1"/>
		<stop  offset="0.9462" style="stop-color:#94F4FF;stop-opacity:0.3"/>
	</linearGradient>
	
		<linearGradient id="XMLID_9_" gradientUnits="userSpaceOnUse" x1="-3" y1="497.6756" x2="1600.0238" y2="497.6756" gradientTransform="matrix(1 0 0 -1 0 1004)">
		<stop  offset="0" style="stop-color:#94DFFF"/>
		<stop  offset="0.172" style="stop-color:#009CD4"/>
		<stop  offset="0.4677" style="stop-color:#2AF6FF"/>
		<stop  offset="0.8011" style="stop-color:#45BBE8"/>
		<stop  offset="0.9462" style="stop-color:#45FFE8"/>
	</linearGradient>
	<path id="XMLID_4_" class="st1" d="M1598.5,553.1c0,0-76.4,12.5-147.2-4.9s-152.8-40.1-265-6.1s-232.1,19.9-324.7,2.6
		S652.6,460,642.1,454s-113.6-67.3-206.2-2s-195.6,100-258,104S78.4,524-1.5,486v104.5H1598L1598.5,553.1z"/>
</g>
<g id="g1">
	
		<linearGradient id="XMLID_10_" gradientUnits="userSpaceOnUse" x1="801.2" y1="414.5" x2="801.2" y2="583.2152" gradientTransform="matrix(1 0 0 -1 0 1004)">
		<stop  offset="0" style="stop-color:#94DFFF;stop-opacity:0"/>
		<stop  offset="0.6183" style="stop-color:#45BBE8;stop-opacity:0.2"/>
		<stop  offset="0.9462" style="stop-color:#94F4FF;stop-opacity:0.3"/>
	</linearGradient>
	
		<linearGradient id="XMLID_11_" gradientUnits="userSpaceOnUse" x1="0.2937" y1="498.8576" x2="1602.0999" y2="498.8576" gradientTransform="matrix(1 0 0 -1 0 1004)">
		<stop  offset="0" style="stop-color:#94DFFF"/>
		<stop  offset="0.4731" style="stop-color:#7FEEFF"/>
		<stop  offset="0.6183" style="stop-color:#55EEFF"/>
		<stop  offset="0.9462" style="stop-color:#45FFE8"/>
	</linearGradient>
	<path id="XMLID_1_" class="st2" d="M1.8,580.9c67.7-181.6,156.2,2.7,232.8-7.9C349,557.1,339.7,509.5,388,505.5
		c28.3-2.4,58.8,49.4,98.4,50.9s80.4-24.4,97-28.9C600,523,634.3,508,685.8,532s135,56,213.8,10s117.4-89.5,145.2-105.5
		c27.9-16,63.2-27.5,102.4,9.5s80.6,82.7,96.3,93.3c15.7,10.6,59.3,32,107.2-11.3s111.8-83.4,134.7-92c32.9-12.3,67-29,115.2,4.5
		v149H2L1.8,580.9z"/>
	
		<linearGradient id="XMLID_12_" gradientUnits="userSpaceOnUse" x1="371.1" y1="498.7" x2="405.5375" y2="498.7" gradientTransform="matrix(1 0 0 -1 0 1004)">
		<stop  offset="0" style="stop-color:#94DFFF"/>
		<stop  offset="0.4731" style="stop-color:#009CD4"/>
		<stop  offset="0.6183" style="stop-color:#45BBE8"/>
		<stop  offset="0.9462" style="stop-color:#45FFE8"/>
	</linearGradient>
	<ellipse id="XMLID_3_" class="st3" cx="388.3" cy="505.3" rx="15.7" ry="14.7"/>
	
		<linearGradient id="XMLID_13_" gradientUnits="userSpaceOnUse" x1="1460.6001" y1="562.7" x2="1495.0376" y2="562.7" gradientTransform="matrix(1 0 0 -1 0 1004)">
		<stop  offset="0" style="stop-color:#94DFFF"/>
		<stop  offset="0.4731" style="stop-color:#009CD4"/>
		<stop  offset="0.6183" style="stop-color:#45BBE8"/>
		<stop  offset="0.9462" style="stop-color:#45FFE8"/>
	</linearGradient>
	<ellipse id="XMLID_6_" class="st4" cx="1477.8" cy="441.3" rx="15.7" ry="14.7"/>
</g>
</svg>
