<svg width="137px" height="24px" viewBox="0 0 137 24" version="1.1" xmlns="http://www.w3.org/2000/svg" xmlns:xlink="http://www.w3.org/1999/xlink" xmlns:sketch="http://www.bohemiancoding.com/sketch/ns">
    <g id="Page-1" stroke="none" stroke-width="1" fill="none" fill-rule="evenodd" sketch:type="MSPage">
        <g id="Artboard-22" sketch:type="MSArtboardGroup">
            <g id="Imported-Layers" sketch:type="MSLayerGroup">
                <path d="M3.39962963,1.17428571 L14.6843704,18.4662857 L14.7148148,18.4662857 L14.7148148,1.17428571 L17.0184444,1.17428571 L17.0184444,22.4125714 L14.1160741,22.4125714 L2.89053086,5.08628571 L2.89053086,22.4125714 L0.585209877,22.4125714 L0.585209877,1.17428571 L3.39962963,1.17428571" id="Fill-1" fill="#000000" sketch:type="MSShapeGroup"></path>
                <path d="M29.9404198,20.4685714 C28.6532963,22.1382857 27.4558148,22.6542857 25.2705802,22.6542857 C22.515358,22.6542857 20.5702963,20.9554286 20.5702963,18.3462857 C20.5702963,15.432 23.1157901,14.0382857 27.4558148,14.0382857 L29.9404198,14.0382857 L29.9404198,13.2788571 C29.9404198,10.7297143 28.8917778,9.60685714 26.5577037,9.60685714 C24.7327284,9.60685714 23.564,10.4262857 23.1157901,12.4285714 L20.8984198,12.4285714 C21.4684074,9.51771429 23.2037407,7.81885714 26.6473457,7.81885714 C30.4190741,7.81885714 31.9751235,9.456 31.9751235,13.3097143 L31.9751235,18.3462857 C31.9751235,19.6817143 31.9751235,21.0771429 32.2440494,22.4125714 L30.0588148,22.4125714 C29.9708642,21.8657143 29.9404198,20.9245714 29.9404198,20.4394286 L29.9404198,20.4685714 L29.9404198,20.4685714 Z M22.8147284,18.3171429 C22.8147284,19.8325714 24.1018519,20.6811429 25.8084321,20.6811429 C26.8570741,20.6811429 27.9040247,20.2868571 28.6837407,19.5908571 C29.5801605,18.8314286 29.9404198,17.6177143 29.9404198,16.1914286 L29.9404198,15.7371429 L27.7839383,15.7371429 C24.6701481,15.7371429 22.8147284,16.6782857 22.8147284,18.3771429 L22.8147284,18.3171429 L22.8147284,18.3171429 Z" id="Fill-2" fill="#000000" sketch:type="MSShapeGroup"></path>
                <path d="M55.1315062,22.4125714 L53.0376049,22.4125714 L53.0376049,13.0371429 C53.0376049,10.8222857 52.1699383,9.67028571 50.0134568,9.67028571 C48.6062469,9.67028571 46.7525185,10.9422857 46.7525185,13.644 L46.7812716,22.4125714 L44.6569259,22.4125714 L44.6569259,13.0371429 C44.6569259,10.7914286 43.429,9.67028571 41.511,9.67028571 C39.6860247,9.67028571 38.1299753,11.5491429 38.1299753,14.3108571 L38.1299753,22.4125714 L36.0360741,22.4125714 L36.0360741,7.99885714 L38.1299753,7.99885714 L38.1299753,10.2445714 C39.2073704,8.57485714 40.6145802,7.81885714 42.2315185,7.81885714 C44.3254198,7.81885714 45.5229012,8.97085714 46.2129753,10.5497143 C47.2903704,9.00171429 48.5774938,7.81885714 50.463358,7.81885714 C53.5467037,7.81885714 55.1315062,9.63942857 55.1315062,12.7645714 L55.1315062,22.4125714" id="Fill-3" fill="#000000" sketch:type="MSShapeGroup"></path>
                <path d="M61.7903827,22.4125714 L59.6947901,22.4125714 L59.6947901,1.17428571 L61.7903827,1.17428571 L61.7903827,10.4262857 C62.7172469,9.09257143 64.5134691,7.81885714 66.3688889,7.81885714 C70.531321,7.81885714 73.1952099,10.7605714 73.1952099,15.2211429 C73.1952099,19.3765714 70.8002469,22.5925714 66.3688889,22.5925714 C64.3646296,22.5925714 62.2385926,20.8645714 61.7903827,19.8634286 L61.7903827,22.4125714 L61.7903827,22.4125714 Z M66.3993333,9.81942857 C63.3159877,9.81942857 61.7903827,12.4611429 61.7903827,15.2211429 C61.7903827,18.3462857 63.5849136,20.6811429 66.4297778,20.6811429 C69.3033951,20.6811429 70.8898889,17.9228571 70.8898889,15.2211429 C70.8898889,12.3685714 69.3033951,9.81942857 66.3993333,9.81942857 L66.3993333,9.81942857 Z" id="Fill-4" fill="#000000" sketch:type="MSShapeGroup"></path>
                <path d="M85.6892716,20.4685714 C84.4004568,22.1382857 83.2029753,22.6542857 81.0194321,22.6542857 C78.2625185,22.6542857 76.3191481,20.9554286 76.3191481,18.3462857 C76.3191481,15.432 78.8629506,14.0382857 83.2029753,14.0382857 L85.6892716,14.0382857 L85.6892716,13.2788571 C85.6892716,10.7297143 84.6389383,9.60685714 82.3065556,9.60685714 C80.4798889,9.60685714 79.3111605,10.4262857 78.8629506,12.4285714 L76.6472716,12.4285714 C77.2155679,9.51771429 78.9525926,7.81885714 82.3945062,7.81885714 C86.1679259,7.81885714 87.722284,9.456 87.722284,13.3097143 L87.722284,18.3462857 C87.722284,19.6817143 87.722284,21.0771429 87.9929012,22.4125714 L85.8076667,22.4125714 C85.7180247,21.8657143 85.6892716,20.9245714 85.6892716,20.4394286 L85.6892716,20.4685714 L85.6892716,20.4685714 Z M78.5635802,18.3171429 C78.5635802,19.8325714 79.8507037,20.6811429 81.557284,20.6811429 C82.6042346,20.6811429 83.6528765,20.2868571 84.4309012,19.5908571 C85.3290123,18.8314286 85.6892716,17.6177143 85.6892716,16.1914286 L85.6892716,15.7371429 L83.5327901,15.7371429 C80.419,15.7371429 78.5635802,16.6782857 78.5635802,18.3771429 L78.5635802,18.3171429 L78.5635802,18.3171429 Z" id="Fill-5" fill="#000000" sketch:type="MSShapeGroup"></path>
                <path d="M89.2952469,3.32742857 L89.2952469,1.17428571 L104.141988,1.17428571 L104.141988,3.32742857 L97.8873457,3.32742857 L97.8873457,22.4125714 L95.5515802,22.4125714 L95.5515802,3.32742857 L89.2952469,3.32742857" id="Fill-6" fill="#000000" sketch:type="MSShapeGroup"></path>
                <path d="M113.285469,20.4685714 C111.998346,22.1382857 110.802556,22.6542857 108.61563,22.6542857 C105.862099,22.6542857 103.915346,20.9554286 103.915346,18.3462857 C103.915346,15.432 106.46084,14.0382857 110.802556,14.0382857 L113.285469,14.0382857 L113.285469,13.2788571 C113.285469,10.7297143 112.238519,9.60685714 109.902753,9.60685714 C108.076086,9.60685714 106.910741,10.4262857 106.46084,12.4285714 L104.246852,12.4285714 C104.815148,9.51771429 106.550481,7.81885714 109.994086,7.81885714 C113.765815,7.81885714 115.321864,9.456 115.321864,13.3097143 L115.321864,18.3462857 C115.321864,19.6817143 115.321864,21.0771429 115.59079,22.4125714 L113.405556,22.4125714 C113.317605,21.8657143 113.285469,20.9245714 113.285469,20.4394286 L113.285469,20.4685714 L113.285469,20.4685714 Z M106.161469,18.3171429 C106.161469,19.8325714 107.448593,20.6811429 109.155173,20.6811429 C110.202123,20.6811429 111.250765,20.2868571 112.02879,19.5908571 C112.926901,18.8314286 113.285469,17.6177143 113.285469,16.1914286 L113.285469,15.7371429 L111.130679,15.7371429 C108.016889,15.7371429 106.161469,16.6782857 106.161469,18.3771429 L106.161469,18.3171429 L106.161469,18.3171429 Z" id="Fill-7" fill="#000000" sketch:type="MSShapeGroup"></path>
                <path d="M128.270901,8.03142857 L130.816395,8.03142857 L125.906383,15.1011429 L131.115765,22.4125714 L128.48063,22.4125714 L124.409531,16.6165714 L120.39763,22.4125714 L117.792938,22.4125714 L122.943123,15.1011429 L118.122753,8.03142857 L120.637802,8.03142857 L124.439975,13.6131429 L128.270901,8.03142857" id="Fill-8" fill="#000000" sketch:type="MSShapeGroup"></path>
                <path d="M134.006296,7.99885714 L136.25242,7.99885714 L136.25242,22.4108571 L134.006296,22.4108571 L134.006296,7.99885714 Z" id="Fill-9" fill="#000000" sketch:type="MSShapeGroup"></path>
                <path d="M135.131049,0.509142857 C134.204185,0.509142857 133.47521,1.248 133.47521,2.18571429 C133.47521,3.12171429 134.204185,3.86057143 135.131049,3.86057143 C136.054531,3.86057143 136.781815,3.12171429 136.781815,2.18571429 C136.781815,1.248 136.054531,0.509142857 135.131049,0.509142857" id="Fill-10" fill="#D8272D" sketch:type="MSShapeGroup"></path>
            </g>
        </g>
    </g>
</svg>