<?xml version="1.0" encoding="utf-8"?>
<!-- Generator: Adobe Illustrator 19.0.0, SVG Export Plug-In . SVG Version: 6.00 Build 0)  -->
<svg version="1.0" id="Layer_2" xmlns="http://www.w3.org/2000/svg" xmlns:xlink="http://www.w3.org/1999/xlink" x="0px" y="0px"
	 viewBox="0 0 1600 1000" style="enable-background:new 0 0 1600 1000;" xml:space="preserve">
<style type="text/css">
	.st0{fill:#FFFFFF;}
	.st1{fill:#A0D39A;}
	.st2{fill:#FEF4F1;}
	.st3{fill:#EDC1B7;}
	.st4{fill:none;stroke:#898989;stroke-width:2;stroke-linejoin:round;}
	.st5{fill:none;stroke:#898989;stroke-width:2;stroke-linejoin:round;stroke-dasharray:3.7574,3.7574;}
	.st6{fill:none;stroke:#898989;stroke-width:2;stroke-linejoin:round;stroke-dasharray:4.0549,4.0549;}
	.st7{fill:none;stroke:#898989;stroke-width:2;stroke-linejoin:round;stroke-dasharray:4.0322,4.0322;}
	.st8{fill:none;stroke:#898989;stroke-width:2;stroke-linejoin:round;stroke-dasharray:4.0586,4.0586;}
	.st9{fill:none;stroke:#898989;stroke-width:2;stroke-linejoin:round;stroke-dasharray:4.0298,4.0298;}
	.st10{fill:none;stroke:#898989;stroke-width:2;stroke-linejoin:round;stroke-dasharray:4.0405,4.0405;}
	.st11{fill:none;stroke:#898989;stroke-width:2;stroke-linejoin:round;stroke-dasharray:3.9924,3.9924;}
	.st12{fill:none;stroke:#898989;stroke-width:2;stroke-linejoin:round;stroke-dasharray:3.9902,3.9902;}
	.st13{fill:none;stroke:#898989;stroke-width:2;stroke-linejoin:round;stroke-dasharray:4.0035,4.0035;}
	.st14{fill:none;stroke:#898989;stroke-width:2;stroke-linejoin:round;stroke-dasharray:4.2148,4.2148;}
	.st15{fill:none;stroke:#898989;stroke-width:2;stroke-linejoin:round;stroke-dasharray:3.9368,3.9368;}
	.st16{fill:none;stroke:#898989;stroke-width:2;stroke-linejoin:round;stroke-dasharray:4.0032,4.0032;}
	.st17{fill:url(#XMLID_327_);}
</style>
<rect id="XMLID_1_" y="0" class="st0" width="1600" height="1000"/>
<g id="XMLID_2_">
	<g id="XMLID_3_">
		<polygon id="XMLID_143_" class="st1" points="1273.9,464.8 1320.5,573 1383.1,573 1362.2,476.2 1336.5,429.6 		"/>
		<g id="XMLID_15_">
			<g id="XMLID_16_">
				<path id="XMLID_142_" class="st2" d="M636.1,546.4c1.7-2.9,0.8-6.8-2-8.6l-2.1-1.3v12.8C633.6,549,635.1,548,636.1,546.4z"/>
				<path id="XMLID_17_" class="st3" d="M1318.3,915.4c2.3-0.2,4.7-0.4,7.1-0.6c5.8-0.5,11.8-1,18-1.5l15.4,90.2h12.3l-15.5-91.3
					c16.3-1.5,35.6-2.9,55.9-4.2l5.3,17.9l-23.1,1.7c-3.3,0.2-5.8,3.2-5.6,6.7c0.2,3.4,3.1,6,6.4,5.8l30.5-2.2c0.1,0,0.3,0,0.3,0
					l18.2-1.3l5.5,47.3l-53.6,5.2c0,0,0,0,0,0c-3.3,0.3-5.7,3.4-5.4,6.8c0.3,3.4,3.2,6,6.6,5.6l26-2.5l0.5,4.7h12.1l-0.6-5.8
					l21.8-2.1c0,0,0,0,0,0c1.6-0.2,3.1-1,4.1-2.3c1-1.3,1.5-3,1.3-4.7l-6.9-59.5c-0.4-3.3-3.2-5.7-6.4-5.5L1429,925l-5.3-17.9
					c29.3-1.9,59.9-3.6,86.5-4.9l-0.4,9.5l-34.2-1.6c-1.7-0.1-3.3,0.6-4.5,1.8c-1.2,1.2-1.9,2.9-1.8,4.6l0.4,14.8
					c0.1,3.4,2.9,6.2,6.2,6.1c0.1,0,0.3,0,0.4,0c3.1-0.3,5.5-3.1,5.4-6.4l-0.2-8.1l33.7,1.6c1.6,0.1,3.2-0.5,4.3-1.6
					c1.2-1.1,1.9-2.7,2-4.3l0.8-16.9c30.9-1.6,54.4-2.6,60.4-2.9c6.7,1.6,13.2,3.1,19.6,4.5v-22.7c-5.3-1.1-10.6-2.4-16.1-3.7
					c-1-0.2-2-0.3-2.9-0.3c-0.4,0-9.5,0.4-24.3,1.1l0.2-153.4l31.5,1.5c2.7,0.4,6.8,1,11.6,1.6v-12.6c-4.2-0.6-7.8-1.1-10.2-1.4
					c-0.2,0-0.4,0-0.6-0.1l-38-1.8c0,0-0.1,0-0.1,0l-22.5-1.1l1.3-28.8c0-0.1,0-0.1,0-0.2l1.5-33.7l53.8,13.2c1.8,0.4,3.6,0,5.1-1.1
					c1.4-1.2,2.3-2.9,2.3-4.8l1-51.2l0.2,0c0.1,0,0.2,0,0.3,0l3.4,0.2c0.8,0.1,1.7,0.1,2.6,0.2v-13.9c-0.6,0-1.2-0.1-1.7-0.1
					l-3.3-0.2l-1.2-0.1l0.1-5.3c0-0.2,0-0.3,0-0.5c0-0.2,0-0.4-0.1-0.6l-22.4-186c14.9-1.8,26.7-1.7,26.9-1.6c0.2,0,0.3,0,0.5,0
					l1.2-0.1v-11.1l-1.8,0.2c-3.8,0-40.7-0.1-67.9,11.4c-15.9,6.8-36.2,7.2-54.3,5.8c-1-0.6-2.1-1-3.3-0.9c-0.7,0-1.3,0.2-2,0.4
					c-9.4-0.9-17.9-2.2-24.5-3.3c-3.7-0.6-6.8-1.1-9.5-1.4c-10.3-1.3-17.7,1.2-22.6,4.1c-1.5-6.8-3.3-12.2-5-16.2
					c55.2-30.2,134.2-57.3,190.8-74.7v-23.2c-54.2,16.4-131.6,42.5-190.1,72.7l-21.1-44c57.8-33.7,176.5-112.2,182.6-116.2
					c2.8-1.9,3.6-5.7,1.8-8.6c-1.8-2.9-5.5-3.8-8.3-1.9c-1.4,1-120.4,79.6-179.1,114.1l-9.9-48.7l34.1,1.6c2.6,0.1,4.8-1.9,4.9-4.6
					c0.1-2.7-1.9-4.9-4.5-5.1l-36.6-1.7l-10.2-50.4c12.8-3.6,37.6-4.7,72.1-3.3c0.6,0.3,1.2,0.5,1.9,0.5l65.1,4.5
					c2.6,0.2,4.8-1.8,5-4.4c0.2-2.6-1.6-5-4.2-5.2c-0.3,0-28.6-3.2-60.7-4.8l0.5-10.2l15.9,0.1c2.6,0,4.7-2.1,4.7-4.8
					c0-2.7-2.1-4.9-4.7-4.9l-28.5-0.2c-2.5,0-4.6,2-4.7,4.6c-0.1,2.6,1.7,4.8,4.2,5.1l3.6,0.4l-0.4,9.5c-35.9-1.4-60.8,0-74.1,4.2
					c-0.2,0.1-0.3,0.1-0.5,0.2l-34.3-20.5l18.9-33.2c8.9,2.3,17.8,4,26.2,5.1c59.2,7.1,72,7.3,75.9,1.3c3.3-5.1,10.2-30.7,1.1-41
					c-9.9-11.2-16.9-4.8-17.2-4.5c-1.9,1.8-2.1,4.9-0.3,6.9c1.6,1.8,4.1,2.1,6,0.8c0.5,0.1,2.1,0.7,4.5,3.4c4.4,5,0.8,23.5-1.7,28.5
					c-4.8,1.6-24.6-0.1-43.5-2.1l8.7-64.6L1541,81.8l-0.1,2.6c-0.1,1.6,0.5,3.2,1.7,4.3c1.1,1.1,2.7,1.7,4.2,1.5l53.8-5.1
					c0,0,0,0,0,0c0.6-0.1,1.2-0.2,1.7-0.5V74.5c-0.7-0.4-1.6-0.6-2.4-0.5l-41.3,1.5l-8.6-32.4c-0.6-2.1-2.3-3.7-4.4-4l-137.7-22
					c-0.6-0.3-1.3-0.5-2-0.6l-45.7-4.9l0.5-11.5H1350l-0.4,9.8l-27.4-2.4c-1.1-0.1-2.2,0.2-3.1,0.7L1293.9,0h-59.6l41.3,4.9
					l-8.1,87.9c-19.3-5.2-65-8.6-82.7-9.8c2.6-28.5,5.3-58.7,7.4-83h-21.5c-1.7,19.8-3.8,43.3-5.9,66.6l-0.7-0.7
					c-0.6-0.7-1.5-1.1-2.3-1.3l-38.2-8.7c-2.5-0.6-4.9,1-5.6,3.6l-14.2,58.3c-14.9-1.2-25.6-2-28.8-2.3c-0.3,0-0.6,0-0.8-0.1
					l7.4-32.1l6.3,1.1c2.3,0.4,4.6-1,5.3-3.4L1116.5,0h-9.8l-6.1,21.4l-101.6-9.9l1.2-11.5h-6.7l-1.2,10.8l-6.2-0.6
					c-2.5-3.6-4.8-7-7.1-10.2h-26.4c1.1,1.6,2.3,3.3,3.5,5.1c-2.5-0.5-5.1-1.1-7.6-1.6l0.6-3.4h-6.8l-0.4,2c-3.2-0.7-6.4-1.4-9.4-2
					h-34.9c-2,4.4-4.4,12.5-7.7,27.7c-1.9,8.9-3.5,17.6-4.5,22.9l-30.1-6.3c4.1-14.9,8.9-29.9,14.7-44.2h-23.1
					c-1.3,3.4-2.5,6.8-3.6,10.2c-6.8-2.5-16.8-6.1-28-10.2H787c20.6,7.5,41.6,15.2,53.2,19.4c-8,25.3-13.7,50.9-18.7,74.2
					l-96.8-34.8c-0.5-0.7-1.3-1.2-2.1-1.4l-18.7-6.2c1.9-3.8,3.7-7.8,5.5-12.1c6.4-15.6,10.6-28.9,13.6-39h-9.8
					c-2.9,9.5-6.8,21.4-12.4,35.2c-13.9,34-32.6,50.7-37.9,54.9l-1.6,1.2c-2.1,1.6-2.5,4.5-1.1,6.7c1.5,2.2,4.3,2.7,6.4,1.3
					c0.2-0.1,1-0.7,2.3-1.8l14.9-11.3l23.4,13.5l-44.7,122.5L632,236.4V247l36.1-16.7c1.1-0.5,2-1.5,2.5-2.7L717,100.1
					c0.3-0.4,0.5-0.9,0.6-1.4l6.8-29.8l95.1,34.2c-4.2,19.3-8.2,37.4-12.8,51.4c-15.6,47.3-52.4,121.1-54.9,126.2
					c-2,3.6-23.3,40.3-46.6,78.8L632,317.1v14.3l66.7,38.7c-12.7,20.8-25.6,41.2-36.1,56.3c-10.2-4.2-20.5-8-30.6-11.5v23.4
					c5.7,2,11.5,4.2,17.2,6.5c-5.3,6.9-11.1,14.3-17.2,21.9v39.9l46.2,21.4c1,0.5,2,0.6,3.1,0.5c2.1-0.2,4-1.5,4.9-3.7
					c1.4-3.1,0-6.8-3-8.2l-46.2-21.4c11.8-14.5,23.4-29.1,32.9-41.7c24.8,11.4,47.8,25.2,64.1,42.3c2.6,2.8,5.4,5.6,8.2,8.5
					L718,526.3c-0.4,0-0.9,0-1.3,0.1c-1.2,0.3-2.3,1.1-3,2.3l-23.5,41.2c-1.8-1.4-4.2-2.9-6.9-4.4c-7.9-4.1-31.8-1.9-37.2,2.4
					c-1.5,1.2-3.3,3-5.5,5c-2.5,2.4-5.8,5.7-8.6,7.8v11.1c4.9-1.9,10.3-7.1,15.1-11.8c1.9-1.8,3.6-3.5,4.7-4.4
					c3.1-2.1,22.6-4,27.4-1.5c5.5,2.9,9.1,6.5,9.1,6.5c1,1.1,2.4,1.6,3.9,1.4c1.4-0.2,2.7-1.1,3.4-2.3l23.8-41.7
					c1.4,0.9,3.1,2,4.9,3.2c-16.1,22.6-30.8,55.1-37.6,72.6c-6.5,16.7-9.2,26.9-10.3,31.6l-10.6,4.4l-33.8-0.3v12.5l17.7,0.2
					c-4.8,12.7-11.2,28.3-17.7,42.3v24.2c12.4-22.6,24.8-54.8,28.5-64.7l4.1-1.7l9.6,0.1l174.3,28c0.6,0.1,1.3,0.1,1.9,0
					c0.6-0.1,1.2-0.3,1.8-0.6l43.5-21.4c1.6,4.6,3.8,12.8,5,23.8l-13.9-0.7c-3.3-0.2-6.2,2.5-6.3,5.9c-0.2,3.4,2.4,6.4,5.8,6.5
					l15.2,0.7c0.1,6.1-0.2,13.1-1.2,20.8L846,742.1l-5.1-7.4c-1.9-2.8-5.7-3.5-8.4-1.5c-2.7,2-3.3,5.9-1.4,8.7l7.5,10.8
					c0.1,0.1,0.1,0.2,0.2,0.3l32.6,47.2c-1.4,1.7-2.8,3.3-4.2,4.9l-57.1-83.1c-1.9-2.8-5.7-3.5-8.4-1.5c-2.7,2-3.4,5.9-1.4,8.7
					l58,84.4c-26.9,22.8-65.2,32.3-94,36.2l7.1-28.2l13-21.3c1.1-1.7,1.2-3.9,0.4-5.8l-18.5-43.9c-1.3-3.2-4.9-4.6-7.9-3.2
					c-3.1,1.4-4.5,5.1-3.1,8.2l17.2,40.9l-9.7,15.8l-26.8-4.7l-14.5-34.4c-1.3-3.2-4.9-4.6-7.9-3.2c-3.1,1.4-4.4,5.1-3.1,8.2
					l15.6,36.9l-66,0.5c-3.4,0-6,2.8-6,6.3c0,3.4,2.7,6.2,6.1,6.2l70-0.5c3.3,0,6-2.8,6-6.3c0-0.3,0-0.7-0.1-1l22.2,3.9l-6.9,27.2
					c-16,1.5-26.9,1.3-27.3,1.2c-3.3-0.1-6.1,2.6-6.2,6.1c-0.1,3.4,2.5,6.3,5.9,6.4c1,0,18.2,0.5,41.7-2.7l-1.1,24.2
					c0,0.1,0,0.2,0,0.3l-2.4,53.7l-18.3-0.9c-3.3-0.2-6.2,2.5-6.3,5.9c-0.2,3.4,2.4,6.4,5.8,6.5l63.7,3c-6.8,8.5-9.9,16.1-10.8,18.6
					c-22.3-7-45.6-12.3-73.3-1.6c-0.3-0.2-0.6-0.5-0.9-0.7L632,916v14.6l77.4,48.1c-28.5,14.3-54.4,20.7-77.4,22.9v1.9h76.4
					c4.5-2,9-4.2,13.5-6.5c28.1-14.5,50.2-7.4,75.8,0.9c6,1.9,12.2,3.9,18.7,5.7h69.3c12.1-3.1,24.6-7,36.7-10.9
					c39.7-12.7,77.2-24.6,92.2-2.9c3.2,4.7,6.5,9.3,9.8,13.8h29.3c2.1-3.4,4.4-6.8,7-10.4c2.9-3.9,6.3-8.1,9.7-12.2
					c5.3-6.5,10.3-12.5,13.9-18.4c0.5-0.8,0.9-1.5,1.4-2.3c15.6-0.4,35.2-1.9,54.3-5.1l8.9,48.5h12.3l-9.3-50.7
					c3.9-0.8,7.8-1.7,11.5-2.7l11.5,53.4h12.4l-12.3-56.9c6.3-2.1,12.1-4.6,17.3-7.3c16.1-8.6,35.9-13.5,60.9-17.1l9.9,43.7
					c0,0,0,0.1,0,0.1l8.5,37.5h12.4l-8.1-35.6l20.2-10.2c3-1.5,4.2-5.3,2.8-8.4c-1.5-3.1-5.1-4.4-8.1-2.9l-17.7,9l-7.9-34.9
					c9.7-1.2,20.2-2.2,31.4-3.3c6.2,26.4,13.7,57.9,20.4,86.2h22.1C1332.4,975,1324.7,942.7,1318.3,915.4z M1410.2,32.6l0.5-3.9
					l129.8,20.7l5.8,21.8l-137.2-16.9L1410.2,32.6z M709.9,90.2l-22.1-12.8c3.7-4.9,7.6-10.8,11.5-17.6l16.2,5.8L709.9,90.2z
					 M1382.3,689.3c-1.3,2.7-2.6,5.3-3.7,7.8c-9.1,20.2-5.2,61.4-4.8,65l0.2,4l-20.9,5.1l-4.4-194.3l56.1,6.1
					c0.3,46.5-7.9,73.7-15.9,92.3l-8.3-4.5c-2.3-1.2-5.1-0.8-7,1l-15.2,15c-2.4,2.4-2.5,6.3-0.2,8.8c2.3,2.5,6.1,2.6,8.5,0.2
					l12.1-11.9l4.9,2.6C1383.2,687.5,1382.7,688.4,1382.3,689.3z M1158.4,858.4l1.9,9.9c-1.1,0.4-2.2,0.7-3.2,1.1
					c-27.1,9.1-40.9,6.2-47.6,2.2c-5.4-3.2-7.2-7.8-7.6-9.2c1.1-1.5,7.2-7.7,32-12c39.1-6.7,107.6-27.1,132-34.6
					c3.8,8.3,7.3,16,10.2,22.8c-20.6,4.1-62.2,13-104.1,26l-1.6-8.5c-0.6-3.4-3.8-5.6-7.1-4.9C1159.9,851.7,1157.8,855,1158.4,858.4
					z M774.1,538l-11,4.3c-1,0.4-1.9,1.2-2.4,2.2c0,0-1.8,3.1-4.5,3.9c-1.5,0.4-3.1,0-4.9-1.2c-2.9-1.9-7.4-4.8-12.1-7.8
					c2-2.4,4.1-4.6,6.1-6.4c4.1-3.7,8.3-7.8,12.5-12.1C763.3,526.7,768.8,532.4,774.1,538z M763,494.8L777,482l0.7,0.8
					c-2.9,3.4-7.4,8.5-12.6,14.3C764.4,496.3,763.7,495.5,763,494.8z M772.7,505c5-5.6,9.4-10.6,12.4-14.1l11.4,12.5l-13.9,12.2
					C779.3,511.9,776,508.4,772.7,505z M804.9,512.4l1.3,1.5L793.7,527c-0.8-0.9-1.7-1.7-2.5-2.6L804.9,512.4z M834.8,296.4
					l30.1,1.4c0.9,1.8,1.8,3.5,2.5,4.9c0.7,2.3,3.1,10.4,7.4,22.2l-10.1-7.5c-0.6-0.4-1.3-0.7-1.9-0.8L834.8,296.4z M843.9,314.8
					c-9.1-2.3-20.1-6-29-9.5l0.4-9.8l1.4,0.1c1.4,0.8,2.7,1.6,3.9,2.5L843.9,314.8z M863.9,264.4c12.2-2.9,21-4.6,25-5.3l14.4,20.8
					c0,0,0.1,0.1,0.1,0.1c0.1,0.2,0.3,0.4,0.5,0.5c0,0,0.1,0.1,0.1,0.1l10.4,9.9c1,0.9,2.4,1.4,3.7,1.3l21.9-2.4l-0.5,14.1
					c0,0.9,0.1,1.9,0.5,2.8l29.6,69l-15.3,6c-4.6-12.1-9-23.2-10.8-26.2c-1.6-2.8-6.4-11-41.6,5.1c-15.1-34.4-23-61.4-23.1-61.7
					c-0.1-0.4-0.3-0.8-0.5-1.2C872,285.4,865.5,270.9,863.9,264.4z M865.2,254.1c2.4-10.7,6.4-26.5,6.9-28.5
					c3.8-0.2,7.7-0.4,11.7-0.6l1.9,24.9C881.5,250.6,874.5,252,865.2,254.1z M1133.2,301.6c-2.6-0.1-4.8,1.9-4.9,4.6l-0.8,19
					l-1.9,33.5c-6.7-0.1-17.6-0.8-24.6-1.3l-0.6-10.1c13.8-0.4,15-2.6,16-4.2c1.8-3.1,2.7-17.8,2.7-43.6l54.6,0.3
					c-0.9,2-2.1,4.6-3.6,8c-6.4,14.2-1.6,51.4,0,62.4l-6.4,0.7c-0.1,0-0.3,0-0.4,0l-70.4,8c-5.2-11.1-10.1-21.5-14.6-31l12.9,1.8
					l0.7,12.6c0.1,2.4,2,4.4,4.3,4.6c1.1,0.1,26.1,2.2,34.1,1.6c2.4-0.2,4.2-2.1,4.4-4.6l2.2-38.1l0.9-19.1
					C1137.8,304,1135.8,301.7,1133.2,301.6z M1302.3,182.8l7.1,27.2c0.1,0.3,0.2,0.6,0.3,0.9l4.3,8.9l-15.4,4.9
					c-2.9-22.7-5.4-41.7-6.1-47l7.2-14.7l11.5,6.9l-7.8,8.2C1302.3,179.3,1301.9,181.1,1302.3,182.8z M1282.8,319.5l56.8-15.6
					l4.5,19.5l-117.9,39.9c-4.4-9.4-8-18.1-10.8-25.8L1282.8,319.5z M1212.1,328.4c-4.8-14.5-6.5-23.4-6.5-23.6
					c-0.1-0.5-0.2-1-0.4-1.4c-0.2-0.5-0.3-1.1-0.5-1.6l91-25.8c0.6,4.7,1.1,9.4,1.7,13.8c0.8,6.8,2.1,11.6,3.4,14.8l-20.4,5.6
					L1212.1,328.4z M1310,302.1c-1-2.2-2.4-6.4-3.3-13.5c-0.6-4.8-1.2-9.9-1.8-15.2l23-6.5l6.3-1.9l5,29L1310,302.1z M1325.3,257.5
					l-21.7,6.1c-1.2-9.7-2.5-19.6-3.7-29.2l18.4-5.9l13.1,27.1L1325.3,257.5z M1294.5,266.3l-92.8,26.3c-0.1-0.4-0.3-0.8-0.4-1.2
					c-3.6-10.9-7.7-23.6-11.5-37.1l101-17.3C1292,246.5,1293.3,256.6,1294.5,266.3z M1203.7,366.4l-24.4,2.8
					c-2.1-14.2-5.5-46.7-0.8-57.2l4-8.8c0.7,2.3,1.4,4.5,2.1,6.6C1185.5,314.1,1190.2,336.1,1203.7,366.4z M1209.3,378.3
					c3.2,6.5,6.8,13.4,10.8,20.4c20.3,35.6,25.7,61.1,27.1,70.4c-39.5,24.3-67.1,37.6-90.2,47.8c-19.9-43.1-40.7-87.7-58.6-126
					l61.8-7l31.9,80.1c1,2.6,3.6,4.1,6.2,3.8c0.6-0.1,1.2-0.2,1.7-0.4c3.1-1.3,4.6-5,3.3-8.1l-30.5-76.8L1209.3,378.3z
					 M1181.5,802.1l2.6,14c-19.7,5.2-39.1,9.9-53.9,12.4c-4,0.7-7.8,1.5-11.4,2.3l-1-13.2L1181.5,802.1z M1117,805.1l-1.2-16.5
					l60.6-13.8l2.8,15.1L1117,805.1z M1174.4,698.4c3.9-1.9,7.4-3.5,10.1-4.8l24.5,60.8l-23.1,5.3L1174.4,698.4z M1213.7,766.2
					l5.6,13.8l-28.2,6.9l-2.8-14.9L1213.7,766.2z M1228.9,790.5c1.7-0.4,3.2-1.6,4-3.2c0.8-1.6,0.9-3.5,0.2-5.2l-39.8-99
					c-0.6-1.5-1.8-2.8-3.3-3.4c-1.5-0.6-3.2-0.6-4.6,0c-0.5,0.2-6.9,3-15.6,7.2l-4.5-10.7c13.2-5.9,26-11.2,33.5-14.3
					c6.1,14.2,10.8,25.5,13.6,33c11.7,31.5,28.2,66.8,42.7,97.9c0.4,0.9,0.8,1.8,1.3,2.7c-13.4,4.1-36.4,10.9-60.5,17.5l-2.6-13.8
					L1228.9,790.5z M1195.3,600.7c-8.9-19.8-18.8-41.4-29.1-63.8c13.4-5.9,28.4-12.9,46.1-22.3l17.2,45.6c0.9,2.4,3.1,4.1,5.5,4.4
					l23.1,2.5c-0.5,0.1-1,0.3-1.5,0.5L1195.3,600.7z M1212.4,639.1c-3.7-8.4-7.7-17.5-12-27.1l25.2-13.6l4,7.3c1.7,3,5.3,4,8.2,2.3
					c2.9-1.7,3.9-5.5,2.2-8.5l-3.8-6.9l26-14c3-1.6,4.1-5.4,2.6-8.4c-0.6-1.3-1.7-2.2-2.9-2.8l41.6,4.5L1212.4,639.1z M1254.4,552.7
					l37.3-24.8l11.7,30.2L1254.4,552.7z M1239.3,547.9l-15-39.8c14.2-7.9,30.1-17.4,48.4-29l14.4,37L1239.3,547.9z M1005.2,446.6
					l-43,15.3c-4.5-5.8-9.4-12.2-14.6-19.5c-7.9-10.9-15.6-23.1-23-36.3l22.7-8.9c3.2,8.6,6.5,17.4,9.1,24.6
					c0.6,1.6,1.7,2.8,3.2,3.5c1.5,0.7,3.2,0.7,4.7,0.1l57.7-23.7c3.1-1.3,4.6-4.9,3.4-8.1c-1.2-3.2-4.7-4.8-7.8-3.5l-52,21.4
					c-1.7-4.7-4.2-11.4-6.9-18.7l21.2-8.3c1.6-0.6,2.8-1.8,3.4-3.4c0.6-1.6,0.6-3.4-0.1-4.9l-31.6-73.7l0.5-13.9l66.1-0.5
					c0,0.4,0,0.7,0.1,1.1l6.2,29.5l-15.2,1.9c-0.1,0-0.1,0-0.2,0l-25.7,3.2l-15.6-31c-1.5-3.1-5.2-4.2-8.1-2.7
					c-3,1.6-4.1,5.4-2.6,8.4l17.5,34.8c1.2,2.3,3.6,3.6,6.1,3.3l24.9-3.1l7.9,27.2L991.2,371c-3,1.4-4.4,5.1-3.1,8.2
					c1.3,3.2,4.9,4.6,8,3.2l27.1-12.4c2.8-1.3,4.2-4.5,3.3-7.5l-8.9-30.3l9.3-1.2l11.9,56.9l-7.1,1.7c-1.8,0.4-3.3,1.7-4.1,3.4
					c-0.8,1.7-0.8,3.7,0,5.4l67.6,147c-1.5,0.8-3,1.7-4.5,2.5c-4.8,2.7-9.7,5.6-14.9,8.6l-63.4-107.3
					C1010.9,446.8,1007.9,445.7,1005.2,446.6z M1012.2,473l-25.6,17.7c-4.7-5.1-10.1-11.2-16.1-18.6l34.1-12.1L1012.2,473z
					 M954.5,222.3c28.1-0.6,53.3-0.3,68.8,1.8c-0.7,10-0.8,19-0.5,27l-69.5,6.3l1.5-33C954.8,223.6,954.7,222.9,954.5,222.3z
					 M1023.1,257.5c0.5,8.2,1.5,15.2,2.5,20.9l-73.3,0.6l0.7-14.8L1023.1,257.5z M1085.6,495.6l31-14.5
					c6.8,14.7,13.7,29.6,20.5,44.3c-10.8,4.7-20.9,9.1-31.3,14.3L1085.6,495.6z M1111.4,469.8l-31,14.5l-38.7-84.3l5.6-1.3
					c3.2-0.8,5.3-4.1,4.6-7.4l-18.2-87.4C1043.4,324.6,1076.3,394.3,1111.4,469.8z M1029.5,179.9c-0.6,3.4-1.3,7-2,10.8
					c-1.5,8.4-2.7,16.3-3.4,23.7c-27.8-3.5-82.6-2-131.4,0.4l1-36.4l0.7-16.3l17.2-96.2l99.9,20.9c11.4,17.9,17.6,29.6,20.7,39.7
					C1036.8,141.5,1034.4,154.3,1029.5,179.9z M942.9,222.6c-0.1,0.4-0.2,0.8-0.2,1.2l-2.5,55.5l0,0.3l-21.1,2.3l-6.9-6.6l8-52
					C927.8,223,935.4,222.8,942.9,222.6z M910.6,223.7l-6.3,41l-9.1-13.2l-2-27C898.9,224.2,904.8,224,910.6,223.7z M933.7,362.7
					c1.7,3.7,5.2,12.5,9.2,22.9l-24.3,9.5c-4-7.6-7.9-15.5-11.7-23.7C918.2,366.4,929.6,362.7,933.7,362.7z M937.9,449.9
					c5,7,9.7,13.2,14.1,18.9l-46.8,48.5l-8.4-8.2c0,0-0.1-0.1-0.1-0.1L877,489.6l9.3-12.7c1.1-1.5,0.9-3.6-0.5-4.8l-10.2-8.6
					l39.3-49.7C922.4,426.9,930.1,439,937.9,449.9z M884.4,514l-23.1,27.6L848.8,528l20.9-28.4L884.4,514z M879.1,475.4l-6.9,9.4
					l-7.5-7.3l6.8-8.5L879.1,475.4z M864.8,494.8l-20.7,28.1l-21.7-23.6l3.6-13.1l13.8-15.7L864.8,494.8z M818.3,480.4
					c-0.5,0.6-0.8,1.2-1,1.9l-2.4,8.7l-10.8-11.8l21.1-23.2l5.5,5.3l2.3,2.5L818.3,480.4z M812.7,520.9l18.2,19.8l-10.2,13.8
					c-6.8-6.9-13.7-13.8-20.4-20.7L812.7,520.9z M835.6,545.8l13.9,15.2c0.3,0.9,0.9,1.7,1.6,2.3c0.4,0.4,0.9,0.6,1.3,0.9l32.5,35.4
					c-2.1,3.4-3.1,7.1-3.4,11c-16.6-13.1-36.2-31.6-56-51.2L835.6,545.8z M869.6,550.7l23.5-28.1l8.1,8c2.4,2.3,6.1,2.3,8.4-0.1
					l50.1-52c11.9,14.6,21.3,24.5,28.3,31.9c10.7,11.2,14,15,13.8,19.8l-0.3,6.3c-22.8,4.6-73.5,31.4-100,49.2L869.6,550.7z
					 M903,611.7c3.5-3.4,14.7-10.7,28.7-18.8l16.7,30.4c-15.3,5.5-28.1,8.1-36.4,5.9c-0.9-0.3-1.8-0.6-2.6-0.8
					c-0.8-0.3-1.7-0.7-2.6-1.1C904.1,621.1,902.3,614.2,903,611.7z M937.5,589.5c25.2-14.3,56.7-30,69.4-31.5
					c4.9,5.1,13.7,14.2,22.3,25.6c-25.2,14.2-52,28.4-74.4,37.3L937.5,589.5z M1021.2,541.4l-1.2-1.2c-1.7-1.8-3.8-3-6.3-3.8
					l0.3-5.8c0.5-10.5-5.8-17.1-17.2-29.1c-0.5-0.6-1.1-1.1-1.6-1.7l23.4-16.2l46.7,79c-5.4,3.2-11.1,6.5-17,9.9
					C1037.9,558.6,1027.2,547.6,1021.2,541.4z M1077.5,581.1c8.3-4.9,16.2-9.5,23.6-13.7c15.6-8.9,29.5-15.1,45.4-21.9
					c5.4,11.8,10.7,23.3,15.8,34.5l-90.4,38c-2.6-9.4-6.7-18.4-11.5-26.9C1065.9,587.8,1071.7,584.5,1077.5,581.1z M1165.1,586.3
					c3.9,8.5,7.6,16.7,11.2,24.7l-40.6,21.9l-6.1-16.8c-1.2-3.2-4.6-4.9-7.8-3.7c-3.1,1.2-4.7,4.8-3.5,8l8.5,23.4
					c0.6,1.7,1.9,3,3.5,3.6c0.9,0.3,1.8,0.5,2.7,0.4c0.8-0.1,1.5-0.3,2.2-0.7l46.2-24.9c4.5,10.1,8.7,19.5,12.5,28.2
					c-13.8,5.6-43.6,18.1-63.7,28.8c-9.5,5.1-33.4,7.7-48.4,8.8c-2.8-27.1-5.9-51.2-8.2-62.9c0-0.1-0.1-0.3-0.1-0.4L1165.1,586.3z
					 M1174.1,762.5l-59.2,13.5l-3.5-47.2c6.5-1.7,18.1-5.5,31.6-13.7c6.2-3.8,13.3-7.6,20.1-11.1L1174.1,762.5z M1274.4,783.1
					c-14.3-30.7-30.6-65.5-42-96.2c-3-8.2-8.2-20.7-15-36.2l101-74.3c0.9-0.7,1.6-1.5,2-2.5l16.1,1.8l3.1,138.9l-44.2,11.2
					c-3.2,0.8-5.2,4.2-4.4,7.5c0.8,3.3,4.1,5.4,7.3,4.6l41.6-10.5l1.1,46.8l-63.6,15.5C1276.4,787.5,1275.4,785.3,1274.4,783.1z
					 M1316.9,559.5l-5.5-14.3l22.5-10.1c3.1-1.4,4.5-5.1,3.1-8.2c-1.3-3.2-4.9-4.6-7.9-3.2l-22.1,10l-23.8-61.3
					c15.5-10.1,32.5-21.6,51.5-35l24,47.2l10.5,48.2c0,0.1,0,0.2,0.1,0.3l7.2,33L1316.9,559.5z M1400.8,678.4
					c8.1-19.4,16.3-47.5,16.1-94l40.6,4.4l0.6,88L1400.8,678.4z M1459.2,689.3l1.6,37.3l-76,2.7c0.4-10.2,1.7-20.4,4.7-26.9
					c1-2.3,2.3-4.8,3.6-7.4c0.6-1.3,1.3-2.6,1.9-3.9L1459.2,689.3z M1411.7,569.8c-0.2,0-0.4,0-0.6-0.1l-22.2-2.4l-6.5-30l28.3-1.2
					l4.1,34L1411.7,569.8z M1511.2,879.9c-37,1.9-82.3,4.5-121,7.2l-1.1-57.1c0-0.1,0-0.1,0-0.2l-2.1-43.8l19.4-2.3l-3.2,59.2
					c-0.2,3.4,2.4,6.4,5.7,6.6c0.3,0,0.6,0,0.9,0c2.9-0.3,5.3-2.7,5.4-5.9l3.3-61.4l27.5-3.3l-0.7,32.8c-0.1,3.4,2.6,6.3,5.9,6.4
					c0.2,0,0.5,0,0.7,0c3-0.3,5.4-2.9,5.4-6.1l0.7-34.5l31.9-3.8l2.2,75.7c0.1,3.4,2.9,6.2,6.2,6.1c0.1,0,0.3,0,0.4,0
					c3.1-0.3,5.5-3.1,5.4-6.4l-2.2-76.7l14-1.7L1511.2,879.9z M1518.5,715.9C1518.5,716,1518.5,716,1518.5,715.9c0,0.1,0,0.1,0,0.1
					l-1.5,32.8c-1.1-0.2-2.2-0.3-3.3-0.1L1386,763.9l-0.1-2.6c0-0.1,0-0.3,0-0.4c-0.4-4.2-0.9-11.2-1.1-19.1l82.6-3
					c1.6-0.1,3.1-0.8,4.2-2c1.1-1.2,1.7-2.8,1.6-4.5l-1.9-43.4l48.5-1.3L1518.5,715.9z M1522,639.6c0,0.1,0,0.2,0,0.2l-1.6,35.3
					l-14.8,0.4l0.2-81.5l18.2,2L1522,639.6z M1547.1,723.6l-0.2,154.5c-7.1,0.3-15.1,0.7-23.6,1.2l7-156.5L1547.1,723.6z M1583,647
					l-48.7-12l1.7-37.8l47.9,5.2L1583,647z M1561.8,399.4l22.4,185.4l-0.1,3.9l-27.3-3c0.5-0.9,0.8-2,0.7-3.1l-4.9-181.2
					C1555.6,400.6,1558.7,400,1561.8,399.4z M1536.7,406.5c1.3-0.5,2.5-1,3.9-1.5l4.9,177.9c0,0.5,0.1,1.1,0.3,1.6l-9.1-1
					c0,0,0-0.1,0-0.1c0,0,0,0,0,0c0-0.1,0-0.2,0-0.4l-10.9-172.7C1529.4,409.3,1533.1,408.1,1536.7,406.5z M1513.6,412.6l10.7,169.5
					l-37.6-4.1c0.2-0.7,0.3-1.4,0.3-2.2l-5.6-162.4C1491.9,414.1,1502.9,414,1513.6,412.6z M1493.7,592.7l-0.2,83.1l-23,0.6
					c-0.1-0.4-0.3-0.8-0.5-1.1l-0.5-85.2L1493.7,592.7z M1475,576.3c0,0.2,0,0.3,0.1,0.5l-47.8-5.2l-4.4-35.9l20.6-0.9
					c0.1,0,0.2,0,0.2,0l29.8-1.3L1475,576.3z M1437.8,408c2.5,0.3,5.6,0.8,9.2,1.3c6.2,1,13.9,2.2,22.4,3.1l3.7,108.6l-25.5,1.1
					c-5.8-17.7-27.3-83.8-28.5-102.8c-0.1-2.1-0.3-4.1-0.5-6C1420.5,411.3,1426.4,406.5,1437.8,408z M1435,522.6l-55.2,2.4l-9.6-44
					c-0.1-0.3-0.1-0.5-0.2-0.7l46.4-18C1422.8,485.2,1430.9,510.2,1435,522.6z M1413.1,450.2l-48.8,18.9l-19.8-38.8
					c10.7-7.7,22.1-15.9,34-24.8c6.7-4.9,14.1-9.8,22.3-14.6c2.4,6.1,5.2,15.7,6.1,29.3C1407.4,426.6,1409.8,437.6,1413.1,450.2z
					 M1380.6,321.6l20.9,43.7c-13.2,7.2-25.2,14.6-35.4,22.2c-39.6,29.3-72.1,51.7-99.4,69.3c-3.2-14.4-10.7-38.6-28.2-69.3
					c-2.5-4.4-4.8-8.7-7-12.9l133.1-45c0.1,0,0.2-0.1,0.4-0.1C1368.7,328,1374,325.2,1380.6,321.6z M1366.2,255.5l10.9,53.8
					c-7.1,4-12.6,6.9-16.3,8.4l-7.5,2.5l-10-58L1366.2,255.5z M1364.3,246l-23.7,7l-13.2-27.3l12.3-4c1.9-0.6,3.2-2.4,3.3-4.4
					l0.6-14.3l11-4.7L1364.3,246z M1346.9,191.1l-9.5,4.1c-1.7,0.7-2.8,2.4-2.9,4.3l-0.6,14l-10.6,3.4l-4.8-9.9l-6.3-24l7.7-8
					L1346.9,191.1z M1322.3,18.5l77.4,8.4l-0.2,4.7l-13,97c-4.8-0.6-9.3-1.1-13.2-1.6c-7.6-0.9-15.7-2.5-23.8-4.5
					c2.3-9,5.4-24.6,1.7-31.4c-1.4-2.6-3.4-3.7-4.9-4.1c-6.4-1.8-25.6-2.6-35.3-2.9L1322.3,18.5z M1282.3,6.4l30.9,9.9L1300.9,88
					c-0.2,1.4,0.1,2.8,1,3.9c0.9,1.1,2.2,1.7,3.5,1.8c12.1,0.2,31.7,1.1,37.9,2.5c1.1,3-0.2,13.4-2.8,24c-28.6-8-56.1-20-66.3-25.1
					L1282.3,6.4z M1273.2,105.3c12,5.7,37.1,16.3,63.4,23.8l-17.6,30.9l-48.1-28.7L1273.2,105.3z M1184,92.7
					c28.9,1.9,69,5.7,82.7,9.9l-2.5,27.2c-10.6-0.8-45.8-3.4-83.1-6.2C1182,113.9,1183,103.5,1184,92.7z M1177.3,159.5
					c0.7-6.3,1.6-14.4,2.5-23.5c39.7,3,77.2,5.8,85.3,6.4l26.5,15.8l-6.7,13.6l-108.1-7.8C1177,162.5,1177.2,161,1177.3,159.5z
					 M1283.6,181.4c1,7.6,3.3,25.2,6,45.8l-102.3,17.6c-6.1-23.1-11-48.1-10.8-71.1L1283.6,181.4z M1178.3,290.2l-64-0.4
					c-1.3,0-2.5,0.5-3.3,1.4c-0.9,0.9-1.4,2.2-1.4,3.4c0,16.8-0.4,36.4-1.3,42.5c-5.1,0.9-20.4,0.6-35.3-0.3
					c-12.4-26.2-20.9-44.2-22.8-48.4c-0.3-0.8-1.1-3.2-2-7l125.2-7.1C1175,279.9,1176.7,285.1,1178.3,290.2z M1170.5,264.8l-124.2,7
					c-2-12.7-3.5-32.3-0.6-57.9l112.7-0.2C1161.4,231.3,1165.8,248.8,1170.5,264.8z M1126.1,66.3l32.4,7.4l5.3,5.5
					c-1.4,15.1-2.8,29.7-4,42.7c-16.5-1.3-32.6-2.5-46.3-3.5L1126.1,66.3z M1110.4,130.6c14,1.1,30.8,2.4,48,3.7
					c-0.9,8.8-1.7,16.4-2.4,22.5c-0.4,3.9-0.7,7.9-0.9,11.9l-52.1-7.9L1110.4,130.6z M1155.1,178.5c0.1,8.4,0.8,16.9,2,25.5
					l-64.2,0.1l9.7-33.6L1155.1,178.5z M1100.9,129.9l-18,74.2l-35.9,0.1c0.5-3.1,1-6.2,1.6-9.4c0.7-3.8,1.4-7.3,2-10.7
					c4.3-22.8,6.8-37.6,4.8-52.2c5-2.4,11.9-4.9,18.5-4.2C1077.1,128,1087.1,128.8,1100.9,129.9z M1047.7,26l50.1,4.9L1085.4,74
					l-38.7-6.9C1049.4,55,1048.4,35.8,1047.7,26z M1043.1,76.3l29.4,5.2l-7.9,34.3c-4.3,0.8-8.4,2.2-11.9,3.7
					c-3.1-10.1-8.6-21.1-17.3-35.3C1038.1,82.3,1040.8,79.8,1043.1,76.3z M997.9,21.1l40.3,3.9c1.2,14.6,1.6,36.6-1.8,43.7
					c-1.6,3.4-3.9,5.7-6.1,7.2c-6.7-10.6-15-23-25.2-37.9c-2.7-4-5.3-7.8-7.8-11.5L997.9,21.1z M946.7,13c6.4,1.4,12.5,2.7,17.4,3.7
					c6.9,10.1,14.7,21.4,23.5,34.2c6.2,9.2,11.7,17.3,16.5,24.5l-66.2-13.9L946.7,13z M906.1,3.9c6.2,1.6,20.2,4.7,34,7.7l-8.9,48.6
					l-36.7-7.7C898.2,32.2,903.1,10.3,906.1,3.9z M827,161.7c5.3-16.2,9.7-36.5,14.3-58c3.4-15.7,7.1-32.8,11.5-50.1L902.5,64
					l-17.3,96.7c0,0.2-0.1,0.4-0.1,0.7l-0.7,16.7l-1.1,37.2c-35.3,1.8-66.1,4.1-79.4,5C812.6,200.5,821.2,179.5,827,161.7z
					 M796.9,236.1l3.4-5.7c7.2-0.5,30.2-2.2,59.1-4c-1.9,7.5-5.7,23.3-7.3,31c-1.8,0.5-3.7,1-5.6,1.5c-17.5,4.8-44.9,0.9-59.3-1.8
					C790.3,250.6,793.5,243.5,796.9,236.1z M780.9,270.4c0.7-1.4,1.3-2.8,2-4.2c14.1,2.8,45.4,7.8,66,2.1c1.2-0.3,2.3-0.6,3.4-0.9
					c1.4,6,4.5,13.6,7.6,20.5l-40.6-1.9c-0.6-0.3-1.1-0.6-1.7-0.9c-7.6-4.2-16.8-7.8-27.3-10.8c-4.2-1.2-7.3-2-9.5-2.5L780.9,270.4z
					 M746.2,333.2l68.2,45.6c0.9,0.6,2,0.9,3,0.8c0.3,0,0.5-0.1,0.8-0.1c1.3-0.4,2.4-1.3,3-2.5l13.3-27.2c1.2-2.4,0.2-5.3-2.1-6.5
					c-2.3-1.2-5.1-0.3-6.3,2.1l-11,22.4l-64-42.8c3.4-5.7,6.4-10.9,9-15.4l58.8,36.9c0.9,0.6,1.9,0.8,2.9,0.7c1.4-0.1,2.8-1,3.6-2.3
					c1.3-2.3,0.6-5.3-1.6-6.7l-58.9-37c3.1-5.3,5-8.6,5.4-9.4c0.1-0.2,0.2-0.4,0.3-0.5c0.3-0.7,2.3-4.5,5.3-10.6
					c3.3,0.6,17,3.6,30.3,9.4c0,0,0,0.1,0,0.1l-0.8,18.2c-0.1,2.1,1.1,4,3,4.7c6.5,2.6,37.5,14.9,51.8,13.5l20.7,14.9
					c3.3,8.5,7.2,18,11.8,28.1c5.1,11.4,10.4,22.3,15.9,32.7l-52.8,66.6l-28.2-27.6c-1.1-1.1-2.4-1.6-3.8-1.7l-0.7-0.7
					c-0.1-0.1-0.2-0.2-0.2-0.3c-0.7-0.6-13.9-13.2-28.9-21.5c2.8-3.7,4.3-7.5,4.3-11.2c0-6.1-3.8-10-5.7-11.8
					c-0.2-0.2-0.4-0.4-0.5-0.5c-2.1-2.4-5.7-3.9-9.3-3.9c-2.9,0-7.3,1.1-11.3,5.8c-2.9,3.5-3.9,7.9-2.8,12.4
					c1.5,6,6.5,11.4,12.8,13.8c15.9,6,33.4,22.3,35,23.8l1.1,1.2c0.2,1.3,0.8,2.5,1.8,3.5l1,1l-20.8,23l-37-40.3l-3.6-69.2
					c0-0.1,0-0.1,0-0.2c0-0.1,0-0.2-0.1-0.4c0-0.1-0.1-0.2-0.1-0.3c0-0.1-0.1-0.2-0.1-0.3c0-0.1-0.1-0.2-0.1-0.3
					c-0.1-0.1-0.1-0.2-0.2-0.3c-0.1-0.1-0.1-0.2-0.2-0.3c-0.1-0.1-0.1-0.2-0.2-0.3c-0.1-0.1-0.2-0.2-0.2-0.2
					c-0.1-0.1-0.2-0.1-0.3-0.2c-0.1-0.1-0.2-0.1-0.3-0.2c-0.1,0-0.1-0.1-0.1-0.1l-21.6-10.3C739.2,345.1,742.8,339,746.2,333.2z
					 M788.9,406c0,1.9-1.3,4.3-3.8,6.9c-0.1-0.1-0.3-0.1-0.4-0.2c-3.3-1.3-6.2-4.3-6.9-7.1c-0.5-1.9,0.2-3,0.8-3.7
					c1.3-1.5,2.6-2.3,4-2.5c0.1,0,0.1,0,0.2,0c1.4-0.1,2.3,0.6,2.5,0.7c0.2,0.3,0.5,0.6,0.9,0.9C787.5,402.6,788.9,404.1,788.9,406z
					 M731.8,357.4l20.6,9.8l3,59l-4.5-4.9c-0.1-0.1-0.2-0.2-0.2-0.2c1.1-1.4,1-3.5-0.4-4.8l-34.9-31.8
					C720.9,375.4,726.5,366.2,731.8,357.4z M682.8,435.4c8.7-12.9,18.8-28.7,28.9-45l30.2,27.5c-2.3,0.3-4.5,1.3-6.3,3L708,448.7
					C699.9,443.9,691.4,439.5,682.8,435.4z M726.7,460.9l16.1-16.2l29.6,32.3l-14.2,12.8c-3.1-3.3-6.2-6.5-9.1-9.5
					C742.5,473.3,734.9,466.9,726.7,460.9z M746.8,509.4c1.1,1.2,2.3,2.4,3.5,3.6c-4.1,4.2-8.2,8.2-12,11.7
					c-2.7,2.5-5.4,5.4-8.1,8.7c-2.1-1.4-4.1-2.7-5.7-3.7L746.8,509.4z M733.3,547c5,3.3,10,6.5,13.1,8.5c5.1,3.3,9.5,3,12.2,2.3
					c4.7-1.3,7.8-4.8,9.3-7l13.4-5.3c0.5,0.5,0.9,0.9,1.4,1.4l-33.8,46.6l-33.2-17.2c0,0,0,0-0.1,0
					C721.2,565.8,727.2,555.5,733.3,547z M685.9,651.5c0.2-0.4,0.3-0.8,0.4-1.3c0-0.1,1.7-10,10.4-32.4c3.8-9.9,9.4-22.6,15.8-35.3
					c0.1,0,0.1,0.1,0.2,0.1l32.2,16.6L742,603c-1,1.4-1.4,3.1-1.1,4.8c0.3,1.7,1.2,3.2,2.6,4.1l7.8,5.5c-0.7,0.7-1,1.7-0.9,2.7
					l4.3,42.4L685.9,651.5z M773.6,665.6l-12.1-1.9l-4.3-42l22.5,15.9L773.6,665.6z M755.5,605.3l35.9-49.5
					c5.5,5.7,11,11.2,16.3,16.5l-19,25.7c-1.1,1.5-0.9,3.6,0.5,4.7l7.3,6.4l-6.3,9.3c0,0.1-0.1,0.1-0.1,0.2l-5.1,7.5L755.5,605.3z
					 M848.5,677.6l-63-10.1l6.6-30.2l4.5-6.6l61.1,42.4L848.5,677.6z M870.4,666.9l-66.8-46.4l8.6-12.7l9.7,7.7
					c2.6,2.1,6.4,1.6,8.5-1.2c2-2.7,1.5-6.7-1.1-8.7l-14.7-11.7c-1.3-1-2.9-1.5-4.6-1.2c-1.6,0.3-3.1,1.2-4,2.6l-5.5,8.2l-4.4-3.9
					l16.6-22.5c32.2,32,60.1,56.7,80.9,68c0,0,0,0,0,0c3.7,2.3,7.4,3.7,11.1,4.9L870.4,666.9z M853.4,752.9l44.4-13.7
					c-3,14-8.3,29.8-17.1,46.8c-0.6,1.2-1.3,2.5-2,3.7L853.4,752.9z M870.8,819c4.7-4.5,8.9-9.2,12.6-14.3c0.3-0.3,0.5-0.6,0.7-0.9
					c2.8-3.8,5.2-7.8,7.4-12c33.5-64.6,20.4-114.3,15.1-129l14.4-7.1c3.8,2.2,6.7,5.5,9,11.5c8.7,22.5,27.9,106.2,33.1,155.5
					c0,0,0,0.1,0,0.1l-15.2,0.3L931.1,676c-0.4-3.4-3.4-5.9-6.7-5.5c-3.3,0.4-5.7,3.5-5.3,6.9l16.7,146.1l-65.3,1.5
					C870.3,822.7,870.4,820.8,870.8,819z M958.8,905.4l-1.6-0.3l-7.9-69.4l16.8-0.4c1.8,4.6,4.2,8.8,7.4,12.7
					c-6.6,2.9-11.7,7.5-12.3,15.2C960.4,869.2,958.4,886.9,958.8,905.4z M777.6,860.7c4.7-0.8,9.5-1.8,14.4-2.9
					c26.7-6.2,49.2-15.9,66.7-28.7c0.1,0.9,0.2,1.8,0.4,2.7c0,0.5,0.1,0.9,0.2,1.3c1.8,10,5.9,22.2,11.6,37.6l-94.2,9.6L777.6,860.7
					z M875.4,882.8c7.5,21,6.8,36.7,5.8,44.2c-7.1-0.5-13.6-0.4-19.6,0.2c-4.1,0.4-8,1.1-11.6,1.9l-3.3-43.3L875.4,882.8z
					 M774,941.4l2.2-48.5l5.6-0.6l0.7,49.5L774,941.4z M794.6,942.4l-0.7-51.3l40.9-4.2l3.5,45.7c-7.8,3-14.2,6.9-19.3,10.9
					L794.6,942.4z M916.1,971.4c-17.5,5.6-35.5,11.3-51.6,14c-20.8,3.4-38.6-1.7-57.1-7.7c1.3-3.3,5.7-13.3,16.3-22.4
					c0.6-0.3,1.1-0.7,1.5-1.2c5.3-4.3,12-8.2,20.5-11c0.4-0.1,0.8-0.2,1.1-0.4c10.2-3.2,22.9-4.6,38.5-2.9c2.8,0.3,5.5-1.5,6.4-4.3
					c0.3-0.9,6.7-21.9-4-54.1l1.8-0.2c3.3-0.3,5.7-3.4,5.4-6.8c-0.3-3.4-3.3-5.9-6.6-5.6c0,0,0,0,0,0l-5,0.5
					c-4.8-12.8-8.5-23.5-10.7-32l64.5-1.5l8.6,75.3c0.3,2.8,2.4,5,5,5.4l8.7,1.5c1.2,13,3.9,25.2,9.6,32.4c1.7,2.1,3.3,4.1,5,5.9
					C955.8,958.7,935.8,965.1,916.1,971.4z M950,659.1c-1.7-4.4-3.7-8.1-5.9-11.2c26.2-7.5,59.3-24.4,97.4-46
					c5.1,8.9,9.2,18.3,11,27.7c1.3,6.9,3.2,19.5,5.1,35.6l-21.4,5.1l-2-16.4c-0.4-3.4-3.4-5.8-6.7-5.4c-3.3,0.4-5.7,3.5-5.2,7
					l2.8,23.3c0.2,1.8,1.1,3.3,2.5,4.3c1.2,0.9,2.6,1.2,4,1.1c0.3,0,0.5-0.1,0.8-0.1l26.6-6.4c2,18,4.1,39.1,5.8,60.8
					c2.6,32.9,3.5,55.6,3.6,70.7l-83.9,11.4c0,0,0-0.1,0-0.1c-0.9-8.2-2.1-17.6-3.7-27.4l68.5-7.5c3.3-0.4,5.7-3.4,5.4-6.9
					c-0.4-3.4-3.3-5.9-6.6-5.6c0,0,0,0-0.1,0l-69.2,7.6C970.7,734,957.6,679.1,950,659.1z M1068.1,821.7c-0.2,4.6-0.5,7.9-0.9,9.9
					c-7.4,3-27.4,9.5-46,11.4c-3,0.3-5.6,0.4-7.9,0.5c-1.8-0.1-3.6-0.1-5.4-0.2c-5.3-0.4-7.9-1.6-9-2.2c-4.3-2.5-7.6-5.4-10-8.7
					L1068.1,821.7z M1054.1,966.5c-3.6,4.3-7.2,8.8-10.5,13.2c-1.7,2.3-3.2,4.5-4.7,6.8c-2.3-3.2-4.6-6.4-6.8-9.6
					c-2.4-3.5-5.1-6.5-7.9-9c12.7-5.1,26.5-9.2,33.6-8.3c0.5,0.1,1.1,0.1,1.8,0.2C1057.8,961.9,1056,964.2,1054.1,966.5z
					 M1072.6,938.2c-5.2-0.1-9.3-0.3-12.1-0.7c-17.5-2.3-45.8,9.9-57.7,15.5c-3.8-2.6-10.1-7.7-17-16.5c-6.3-8-6.7-41.2-3.5-68.4
					c4-1.7,13.1-2.7,24.8-2.6c1.9,0.1,4,0.2,6.1,0.2c10.5,0.5,22.5,1.8,34.6,4.4c21.9,4.6,30.3,10.3,32.1,12.4
					C1080.8,897.4,1081.9,916.8,1072.6,938.2z M1083,851.7c-1.1,1.9-1.8,3.8-2.2,5.7c-2.8-1.3-5.8-2.5-9.1-3.7
					c10-3.7,11.5-5.7,12.7-7.3c3.3-4.4,9.3-12.6,2.2-105.6c-1-13.1-2.2-26.9-3.5-40.2c14.4-1,40.6-3.7,52.7-10.1
					c5.6-3,11.9-6.1,18.6-9.2l4.6,11.1c-7.3,3.7-15.1,7.9-22,12.1c-18.2,11.1-32.6,13.2-32.7,13.2c-3.2,0.4-5.5,3.4-5.2,6.7
					l8.1,110.1C1095,838.6,1087,844.4,1083,851.7z M1182.5,919.6c-21.2,11.3-58.1,16.4-86.6,18.1c5.6-16.9,6.3-32.4,5.9-45.2
					c9,4.4,20,5.9,32.9,4.6c8.8-0.9,18.5-3.1,29-6.6c48.2-16.1,99.7-26.8,120-30.8c0.1,0.4,0.2,0.9,0.3,1.3c0.9,5,3.8,17.7,7.7,34.6
					C1243.9,899.9,1209.8,905,1182.5,919.6z M1305,856.8c-0.7-3.5-2-8-4-13.4c-0.1-0.2-0.2-0.5-0.3-0.7c-3.3-8.8-8.1-19.9-13.9-32.6
					l88.1-21.4l2,41.8l1.1,57.6c-8.9,0.7-17.3,1.4-25,2.1c-10.3,0.9-20.2,1.8-29.6,2.6c-3.5,0.3-7,0.6-10.4,0.9
					C1309,875.5,1305.9,861.8,1305,856.8z"/>
			</g>
		</g>
	</g>
</g>
<g id="XMLID_5_">
	<g id="XMLID_6_">
		<g id="XMLID_145_">
			<g id="XMLID_150_">
				<path id="XMLID_276_" class="st2" d="M629,546.4c-1.7-2.9-0.8-6.8,2-8.6l2-1.3v12.8C631.4,549,629.9,548,629,546.4z"/>
				<path id="XMLID_151_" class="st3" d="M-2.6,0h57.2L14.9,4.9l7.7,87.9c18.6-5.2,62.4-8.6,79.4-9.8C99.6,54.5,97,24.3,95,0h20.7
					c1.7,19.8,3.7,43.3,5.7,66.6l0.7-0.7c0.6-0.7,1.4-1.1,2.2-1.3l36.7-8.7c2.4-0.6,4.7,1,5.3,3.6l13.6,58.3
					c14.3-1.2,24.6-2,27.6-2.3c0.3,0,0.5,0,0.8-0.1l-7.1-32.1l-6,1.1c-2.3,0.4-4.4-1-5.1-3.4L167.8,0h9.4l5.9,21.4l97.6-9.9L279.4,0
					h6.5l1.1,10.8l6-0.6c2.4-3.6,4.6-7,6.8-10.2h25.4c-1.1,1.6-2.2,3.3-3.4,5.1c2.4-0.5,4.9-1.1,7.3-1.6L328.5,0h6.6l0.4,2
					c3.1-0.7,6.1-1.4,9-2h33.5c1.9,4.4,4.2,12.5,7.4,27.7c1.8,8.9,3.4,17.6,4.3,22.9l28.9-6.3C414.6,29.3,410,14.3,404.4,0h22.2
					c1.2,3.4,2.4,6.8,3.5,10.2C436.6,7.7,446.2,4.1,457,0h27.1c-19.8,7.5-40,15.2-51.1,19.4c7.7,25.3,13.2,50.9,18,74.2l93-34.8
					c0.5-0.7,1.2-1.2,2-1.4l18-6.2c-1.8-3.8-3.6-7.8-5.2-12.1c-6.1-15.6-10.1-28.9-13.1-39h9.5c2.8,9.5,6.5,21.4,11.9,35.2
					c13.3,34,31.3,50.7,36.4,54.9l1.6,1.2c2,1.6,2.4,4.5,1,6.7c-1.4,2.2-4.1,2.7-6.2,1.3c-0.2-0.1-0.9-0.7-2.2-1.8l-14.3-11.3
					l-22.5,13.5l42.9,122.5l29.2,14.1V247l-34.6-16.7c-1.1-0.5-1.9-1.5-2.4-2.7l-44.6-127.5c-0.2-0.4-0.5-0.9-0.6-1.4l-6.5-29.8
					L453,103.1c4,19.3,7.8,37.4,12.3,51.4c14.9,47.3,50.3,121.1,52.7,126.2c2,3.6,22.3,40.3,44.8,78.8l70.2-42.5v14.3l-64.1,38.7
					c12.2,20.8,24.6,41.2,34.7,56.3c9.8-4.2,19.7-8,29.4-11.5v23.4c-5.5,2-11,4.2-16.5,6.5c5.1,6.9,10.7,14.3,16.5,21.9v39.9
					l-44.3,21.4c-1,0.5-2,0.6-2.9,0.5c-2-0.2-3.8-1.5-4.7-3.7c-1.3-3.1,0-6.8,2.9-8.2l44.4-21.4c-11.3-14.5-22.5-29.1-31.6-41.7
					c-23.8,11.4-45.9,25.2-61.6,42.3c-2.5,2.8-5.2,5.6-7.8,8.5l23.1,21.8c0.4,0,0.9,0,1.3,0.1c1.2,0.3,2.2,1.1,2.8,2.3l22.6,41.2
					c1.8-1.4,4-2.9,6.6-4.4c7.5-4.1,30.5-1.9,35.8,2.4c1.4,1.2,3.2,3,5.3,5c2.4,2.4,5.6,5.7,8.3,7.8v11.1
					c-4.7-1.9-9.9-7.1-14.5-11.8c-1.8-1.8-3.5-3.5-4.5-4.4c-3-2.1-21.7-4-26.3-1.5c-5.3,2.9-8.7,6.5-8.7,6.5c-1,1.1-2.3,1.6-3.7,1.4
					c-1.4-0.2-2.6-1.1-3.3-2.3l-22.9-41.7c-1.3,0.9-2.9,2-4.7,3.2c15.4,22.6,29.6,55.1,36.1,72.6c6.2,16.7,8.9,26.9,9.9,31.6
					l10.1,4.4l32.5-0.3v12.5l-17,0.2c4.6,12.7,10.8,28.3,17,42.3v24.2c-11.9-22.6-23.8-54.8-27.4-64.7l-4-1.7l-9.2,0.1l-167.3,28
					c-0.6,0.1-1.2,0.1-1.8,0c-0.6-0.1-1.2-0.3-1.7-0.6l-41.8-21.4c-1.5,4.6-3.7,12.8-4.8,23.8l13.3-0.7c3.2-0.2,5.9,2.5,6.1,5.9
					c0.1,3.4-2.3,6.4-5.5,6.5l-14.6,0.7c-0.1,6.1,0.2,13.1,1.1,20.8l52,16.7l4.9-7.4c1.9-2.8,5.5-3.5,8.1-1.5c2.6,2,3.2,5.9,1.4,8.7
					l-7.2,10.8c-0.1,0.1-0.1,0.2-0.2,0.3l-31.3,47.2c1.3,1.7,2.7,3.3,4.1,4.9l54.8-83.1c1.9-2.8,5.5-3.5,8.1-1.5
					c2.6,2,3.2,5.9,1.4,8.7l-55.7,84.4c25.9,22.8,62.6,32.3,90.3,36.2l-6.8-28.2l-12.5-21.3c-1-1.7-1.2-3.9-0.4-5.8l17.8-43.9
					c1.3-3.2,4.7-4.6,7.6-3.2c2.9,1.4,4.3,5.1,3,8.2l-16.5,40.9l9.3,15.8l25.7-4.7l13.9-34.4c1.3-3.2,4.7-4.6,7.6-3.2
					c2.9,1.4,4.3,5.1,3,8.2l-15,36.9l63.4,0.5c3.2,0,5.8,2.8,5.8,6.3c0,3.4-2.6,6.2-5.8,6.2l-67.2-0.5c-3.2,0-5.8-2.8-5.8-6.3
					c0-0.3,0-0.7,0.1-1l-21.4,3.9l6.6,27.2c15.4,1.5,25.8,1.3,26.2,1.2c3.2-0.1,5.9,2.6,6,6.1c0.1,3.4-2.4,6.3-5.6,6.4
					c-0.9,0-17.4,0.5-40-2.7l1,24.2c0,0.1,0,0.2,0,0.3l2.3,53.7l17.6-0.9c3.2-0.2,5.9,2.5,6.1,5.9c0.1,3.4-2.3,6.4-5.5,6.5l-61.1,3
					c6.5,8.5,9.5,16.1,10.4,18.6c21.4-7,43.8-12.3,70.4-1.6c0.3-0.2,0.5-0.5,0.8-0.7L633,916v14.6l-74.3,48.1
					c27.4,14.3,52.2,20.7,74.3,22.9v1.9h-73.4c-4.3-2-8.6-4.2-13-6.5c-27-14.5-48.2-7.4-72.8,0.9c-5.7,1.9-11.7,3.9-17.9,5.7h-66.6
					c-11.7-3.1-23.6-7-35.2-10.9c-38.1-12.7-74.1-24.6-88.5-2.9c-3.1,4.7-6.3,9.3-9.4,13.8H228c-2-3.4-4.2-6.8-6.7-10.4
					c-2.7-3.9-6.1-8.1-9.3-12.2c-5.1-6.5-9.9-12.5-13.3-18.4c-0.5-0.8-0.9-1.5-1.3-2.3c-15-0.4-33.8-1.9-52.2-5.1l-8.6,48.5h-11.8
					l9-50.7c-3.8-0.8-7.4-1.7-11-2.7l-11.1,53.4H99.8l11.8-56.9c-6-2.1-11.6-4.6-16.6-7.3c-15.5-8.6-34.5-13.5-58.4-17.1L27,965.8
					c0,0,0,0.1,0,0.1l-8.2,37.5H6.9l7.8-35.6l-19.4-10.2c-2.9-1.5-4.1-5.3-2.6-8.4c1.4-3.1,4.9-4.4,7.8-2.9l17,9l7.6-34.9
					c-9.3-1.2-19.4-2.2-30.2-3.3 M558.2,90.2l21.3-12.8c-3.6-4.9-7.3-10.8-11-17.6l-15.6,5.8L558.2,90.2z M127.5,858.4l-1.8,9.9
					c1,0.4,2.1,0.7,3.1,1.1c26,9.1,39.2,6.2,45.7,2.2c5.2-3.2,6.9-7.8,7.3-9.2c-1.1-1.5-6.9-7.7-30.7-12
					c-37.6-6.7-103.3-27.1-126.7-34.6c-3.6,8.3-7,16-9.8,22.8c19.7,4.1,59.7,13,99.9,26l1.5-8.5c0.6-3.4,3.6-5.6,6.8-4.9
					C126.1,851.7,128.2,855,127.5,858.4z M496.5,538l10.5,4.3c1,0.4,1.8,1.2,2.3,2.2c0,0,1.7,3.1,4.3,3.9c1.4,0.4,2.9,0,4.7-1.2
					c2.8-1.9,7.1-4.8,11.6-7.8c-2-2.4-3.9-4.6-5.8-6.4c-3.9-3.7-8-7.8-12-12.1C506.9,526.7,501.6,532.4,496.5,538z M507.2,494.8
					L493.7,482l-0.7,0.8c2.8,3.4,7.1,8.5,12.1,14.3C505.8,496.3,506.5,495.5,507.2,494.8z M497.8,505c-4.8-5.6-9-10.6-11.9-14.1
					l-11,12.5l13.3,12.2C491.5,511.9,494.7,508.4,497.8,505z M466.9,512.4l-1.3,1.5l12,13.1c0.8-0.9,1.6-1.7,2.4-2.6L466.9,512.4z
					 M438.3,296.4l-28.9,1.4c-0.9,1.8-1.7,3.5-2.4,4.9c-0.7,2.3-3,10.4-7.1,22.2l9.7-7.5c0.6-0.4,1.2-0.7,1.9-0.8L438.3,296.4z
					 M429.5,314.8c8.8-2.3,19.3-6,27.8-9.5l-0.4-9.8l-1.3,0.1c-1.3,0.8-2.6,1.6-3.7,2.5L429.5,314.8z M410.3,264.4
					c-11.7-2.9-20.2-4.6-24-5.3L372.4,280c0,0-0.1,0.1-0.1,0.1c-0.1,0.2-0.3,0.4-0.4,0.5c0,0-0.1,0.1-0.1,0.1l-10,9.9
					c-1,0.9-2.3,1.4-3.5,1.3l-21-2.4l0.5,14.1c0,0.9-0.1,1.9-0.5,2.8l-28.4,69l14.7,6c4.4-12.1,8.7-23.2,10.4-26.2
					c1.5-2.8,6.1-11,39.9,5.1c14.5-34.4,22.1-61.4,22.2-61.7c0.1-0.4,0.3-0.8,0.5-1.2C402.6,285.4,408.8,270.9,410.3,264.4z
					 M409,254.1c-2.3-10.7-6.1-26.5-6.6-28.5c-3.7-0.2-7.4-0.4-11.2-0.6l-1.8,24.9C393.4,250.6,400.1,252,409,254.1z M151.7,301.6
					c2.5-0.1,4.6,1.9,4.7,4.6l0.8,19l1.9,33.5c6.4-0.1,16.9-0.8,23.6-1.3l0.5-10.1c-13.2-0.4-14.4-2.6-15.3-4.2
					c-1.7-3.1-2.6-17.8-2.6-43.6l-52.4,0.3c0.9,2,2,4.6,3.4,8c6.1,14.2,1.5,51.4,0,62.4l6.2,0.7c0.1,0,0.3,0,0.4,0l67.6,8
					c5-11.1,9.7-21.5,14-31l-12.4,1.8l-0.7,12.6c-0.1,2.4-1.9,4.4-4.1,4.6c-1,0.1-25.1,2.2-32.8,1.6c-2.3-0.2-4.1-2.1-4.2-4.6
					l-2.1-38.1l-0.8-19.1C147.3,304,149.2,301.7,151.7,301.6z M62.6,363.3c4.2-9.4,7.7-18.1,10.4-25.8l-64.8-18 M10.4,310.2
					L76,328.4c4.6-14.5,6.2-23.4,6.3-23.6c0.1-0.5,0.2-1,0.3-1.4c0.2-0.5,0.3-1.1,0.5-1.6L1.2,277.5c-0.6,4.7-0.7,15.3-1.2,19.7
					 M0,267.7l85.9,24.9c0.1-0.4,0.3-0.8,0.4-1.2c3.4-10.9,7.4-23.6,11-37.1l-97-17.3C-0.8,246.5,1.2,258,0,267.7z M84,366.4
					l23.4,2.8c2-14.2,5.3-46.7,0.8-57.2l-3.8-8.8c-0.7,2.3-1.4,4.5-2,6.6C101.5,314.1,97,336.1,84,366.4z M78.7,378.3
					c-3.1,6.5-6.5,13.4-10.4,20.4c-19.5,35.6-24.7,61.1-26,70.4c37.9,24.3,64.4,37.6,86.6,47.8c19.1-43.1,39.1-87.7,56.3-126
					l-59.4-7L95.2,464c-1,2.6-3.4,4.1-5.9,3.8c-0.6-0.1-1.1-0.2-1.6-0.4c-3-1.3-4.4-5-3.2-8.1l29.3-76.8L78.7,378.3z M105.3,802.1
					l-2.5,14c18.9,5.2,37.6,9.9,51.7,12.4c3.9,0.7,7.5,1.5,10.9,2.3l0.9-13.2L105.3,802.1z M167.3,805.1l1.2-16.5l-58.2-13.8
					l-2.7,15.1L167.3,805.1z M112.2,698.4c-3.8-1.9-7.1-3.5-9.7-4.8L79,754.5l22.2,5.3L112.2,698.4z M74.5,766.2L69.1,780l27.1,6.9
					l2.7-14.9L74.5,766.2z M59.8,790.5c-1.7-0.4-3.1-1.6-3.8-3.2c-0.8-1.6-0.8-3.5-0.2-5.2l38.3-99c0.6-1.5,1.7-2.8,3.2-3.4
					c1.4-0.6,3-0.6,4.5,0c0.5,0.2,6.6,3,14.9,7.2l4.3-10.7c-12.7-5.9-25-11.2-32.2-14.3c-5.9,14.2-10.4,25.5-13.1,33
					c-11.3,31.5-27,66.8-41,97.9c-0.4,0.9-0.8,1.8-1.2,2.7c12.9,4.1,35,10.9,58.1,17.5l2.5-13.8L59.8,790.5z M92.1,600.7
					c8.5-19.8,18-41.4,27.9-63.8c-12.9-5.9-27.2-12.9-44.3-22.3l-16.5,45.6c-0.9,2.4-2.9,4.1-5.3,4.4l-22.2,2.5
					c0.5,0.1,1,0.3,1.4,0.5L92.1,600.7z M75.7,639.1c3.5-8.4,7.4-17.5,11.5-27.1l-24.2-13.6l-3.9,7.3c-1.6,3-5.1,4-7.9,2.3
					c-2.8-1.7-3.7-5.5-2.1-8.5l3.7-6.9l-25-14c-2.8-1.6-3.9-5.4-2.5-8.4c0.6-1.3,1.6-2.2,2.8-2.8L2.3,577L75.7,639.1z M35.4,552.7
					l-35.8-24.8 M49.8,547.9l14.4-39.8c-13.6-7.9-28.9-17.4-46.5-29L4,516.1L49.8,547.9z M274.6,446.6l41.3,15.3
					c4.4-5.8,9-12.2,14-19.5c7.6-10.9,15-23.1,22.1-36.3l-21.8-8.9c-3.1,8.6-6.2,17.4-8.7,24.6c-0.5,1.6-1.7,2.8-3.1,3.5
					c-1.4,0.7-3,0.7-4.5,0.1l-55.4-23.7c-3-1.3-4.4-4.9-3.2-8.1c1.2-3.2,4.6-4.8,7.5-3.5l49.9,21.4c1.6-4.7,4-11.4,6.6-18.7
					l-20.3-8.3c-1.5-0.6-2.7-1.8-3.3-3.4c-0.6-1.6-0.6-3.4,0.1-4.9l30.4-73.7l-0.5-13.9l-63.4-0.5c0,0.4,0,0.7-0.1,1.1l-5.9,29.5
					l14.6,1.9c0.1,0,0.1,0,0.2,0l24.7,3.2l15-31c1.5-3.1,5-4.2,7.8-2.7c2.8,1.6,3.9,5.4,2.5,8.4l-16.8,34.8
					c-1.1,2.3-3.5,3.6-5.8,3.3l-23.9-3.1l-7.6,27.2l21.3,10.1c2.9,1.4,4.3,5.1,3,8.2c-1.3,3.2-4.7,4.6-7.6,3.2l-26-12.4
					c-2.7-1.3-4.1-4.5-3.2-7.5l8.5-30.3l-8.9-1.2L242.4,388l6.8,1.7c1.7,0.4,3.2,1.7,3.9,3.4s0.8,3.7,0,5.4l-64.9,147
					c1.4,0.8,2.9,1.7,4.4,2.5c4.6,2.7,9.4,5.6,14.3,8.6l60.9-107.3C269.2,446.8,272,445.7,274.6,446.6z M267.9,473l24.6,17.7
					c4.5-5.1,9.7-11.2,15.5-18.6L275.2,460L267.9,473z M323.3,222.3c-27-0.6-51.2-0.3-66,1.8c0.7,10,0.7,19,0.5,27l66.7,6.3l-1.4-33
					C323,223.6,323.1,222.9,323.3,222.3z M257.4,257.5c-0.5,8.2-1.4,15.2-2.4,20.9l70.3,0.6l-0.6-14.8L257.4,257.5z M197.4,495.6
					l-29.8-14.5c-6.6,14.7-13.2,29.6-19.7,44.3c10.4,4.7,20.1,9.1,30,14.3L197.4,495.6z M172.6,469.8l29.7,14.5l37.2-84.3l-5.3-1.3
					c-3.1-0.8-5.1-4.1-4.4-7.4l17.5-87.4C238,324.6,206.4,394.3,172.6,469.8z M251.3,179.9c0.6,3.4,1.3,7,1.9,10.8
					c1.5,8.4,2.6,16.3,3.3,23.7c26.7-3.5,79.3-2,126.2,0.4l-1-36.4l-0.7-16.3l-16.5-96.2l-95.9,20.9c-11,17.9-16.9,29.6-19.9,39.7
					C244.3,141.5,246.6,154.3,251.3,179.9z M334.4,222.6c0.1,0.4,0.2,0.8,0.2,1.2l2.4,55.5l0,0.3l20.3,2.3l6.7-6.6l-7.7-52
					C348.9,223,341.6,222.8,334.4,222.6z M365.4,223.7l6,41l8.7-13.2l1.9-27C376.7,224.2,371.1,224,365.4,223.7z M343.2,362.7
					c-1.7,3.7-5,12.5-8.8,22.9l23.3,9.5c3.8-7.6,7.6-15.5,11.3-23.7C358.1,366.4,347.2,362.7,343.2,362.7z M339.2,449.9
					c-4.8,7-9.3,13.2-13.6,18.9l44.9,48.5l8.1-8.2c0,0,0.1-0.1,0.1-0.1l19-19.4l-9-12.7c-1.1-1.5-0.8-3.6,0.5-4.8l9.8-8.6
					l-37.8-49.7C354.1,426.9,346.8,439,339.2,449.9z M390.6,514l22.2,27.6l12-13.6l-20.1-28.4L390.6,514z M395.7,475.4l6.7,9.4
					l7.2-7.3l-6.5-8.5L395.7,475.4z M409.4,494.8l19.9,28.1l20.8-23.6l-3.5-13.1l-13.3-15.7L409.4,494.8z M454,480.4
					c0.5,0.6,0.8,1.2,1,1.9l2.3,8.7l10.4-11.8l-20.2-23.2l-5.2,5.3l-2.2,2.5L454,480.4z M459.4,520.9L442,540.7l9.8,13.8
					c6.6-6.9,13.1-13.8,19.5-20.7L459.4,520.9z M437.5,545.8L424.1,561c-0.3,0.9-0.8,1.7-1.5,2.3c-0.4,0.4-0.8,0.6-1.3,0.9
					l-31.2,35.4c2,3.4,3,7.1,3.2,11c15.9-13.1,34.8-31.6,53.8-51.2L437.5,545.8z M404.8,550.7l-22.6-28.1l-7.8,8
					c-2.3,2.3-5.9,2.3-8.1-0.1l-48.1-52c-11.5,14.6-20.4,24.5-27.2,31.9c-10.2,11.2-13.5,15-13.2,19.8l0.3,6.3
					c21.9,4.6,70.6,31.4,96,49.2L404.8,550.7z M372.7,611.7c-3.3-3.4-14.1-10.7-27.5-18.8l-16.1,30.4c14.7,5.5,27,8.1,34.9,5.9
					c0.9-0.3,1.7-0.6,2.5-0.8c0.8-0.3,1.6-0.7,2.5-1.1C371.7,621.1,373.4,614.2,372.7,611.7z M339.6,589.5
					c-24.2-14.3-54.5-30-66.6-31.5c-4.7,5.1-13.1,14.2-21.4,25.6c24.2,14.2,49.9,28.4,71.4,37.3L339.6,589.5z M259.2,541.4l1.1-1.2
					c1.7-1.8,3.7-3,6.1-3.8l-0.2-5.8c-0.4-10.5,5.6-17.1,16.6-29.1c0.5-0.6,1-1.1,1.6-1.7l-22.5-16.2l-44.8,79
					c5.2,3.2,10.7,6.5,16.3,9.9C243.2,558.6,253.5,547.6,259.2,541.4z M205.2,581.1c-8-4.9-15.5-9.5-22.6-13.7
					c-14.9-8.9-28.4-15.1-43.6-21.9c-5.2,11.8-10.3,23.3-15.2,34.5l86.8,38c2.5-9.4,6.5-18.4,11.1-26.9
					C216.3,587.8,210.8,584.5,205.2,581.1z M121.1,586.3c-3.7,8.5-7.3,16.7-10.7,24.7l39,21.9l5.9-16.8c1.1-3.2,4.5-4.9,7.5-3.7
					c3,1.2,4.5,4.8,3.4,8l-8.2,23.4c-0.6,1.7-1.8,3-3.4,3.6c-0.8,0.3-1.7,0.5-2.6,0.4c-0.7-0.1-1.4-0.3-2.1-0.7l-44.3-24.9
					c-4.3,10.1-8.4,19.5-12,28.2c13.3,5.6,41.8,18.1,61.2,28.8c9.1,5.1,32,7.7,46.5,8.8c2.7-27.1,5.7-51.2,7.9-62.9
					c0-0.1,0.1-0.3,0.1-0.4L121.1,586.3z M112.5,762.5l56.9,13.5l3.3-47.2c-6.3-1.7-17.4-5.5-30.3-13.7c-6-3.8-12.8-7.6-19.3-11.1
					L112.5,762.5z M13.3,789.6c0.9-2.1,1.9-4.3,2.9-6.5c13.8-30.7,27.6-66.2,40.3-96.2C77,638.3-2.7,596.3,4.7,611.7 M-4.1,725.7
					c3.1,0.8,5,4.2,4.2,7.5c-0.8,3.3-3.9,5.4-7,4.6 M7.8,472.4 M23.5,456.8c3.1-14.4,10.2-38.6,27-69.3c2.4-4.4,4.6-8.7,6.7-12.9
					 M16.4,95.1L8.6,6.4 M19.6,131.3l-2.3-26 M103,92.7c-27.8,1.9-66.3,5.7-79.4,9.9l2.4,27.2c10.2-0.8,44-3.4,79.8-6.2
					C104.9,113.9,103.9,103.5,103,92.7z M109.4,159.5c-0.7-6.3-1.5-14.4-2.4-23.5c-38.1,3-74.1,5.8-81.9,6.4l-25.4,15.8L6,171.8
					l103.7-7.8C109.7,162.5,109.5,161,109.4,159.5z M7.3,181.4c-1,7.6-3.2,25.2-5.7,45.8l98.2,17.6c5.9-23.1,10.5-48.1,10.3-71.1
					L7.3,181.4z M108.4,290.2l61.4-0.4c1.2,0,2.4,0.5,3.2,1.4c0.9,0.9,1.3,2.2,1.3,3.4c0,16.8,0.4,36.4,1.3,42.5
					c4.9,0.9,19.6,0.6,33.9-0.3c11.9-26.2,20-44.2,21.9-48.4c0.3-0.8,1-3.2,1.9-7l-120.2-7.1C111.6,279.9,110,285.1,108.4,290.2z
					 M115.9,264.8l119.2,7c1.9-12.7,3.4-32.3,0.5-57.9l-108.2-0.2C124.7,231.3,120.4,248.8,115.9,264.8z M158.6,66.3l-31.1,7.4
					l-5,5.5c1.3,15.1,2.7,29.7,3.9,42.7c15.9-1.3,31.3-2.5,44.4-3.5L158.6,66.3z M173.6,130.6c-13.5,1.1-29.5,2.4-46.1,3.7
					c0.9,8.8,1.6,16.4,2.3,22.5c0.4,3.9,0.7,7.9,0.8,11.9l50-7.9L173.6,130.6z M130.7,178.5c-0.1,8.4-0.8,16.9-1.9,25.5l61.6,0.1
					l-9.3-33.6L130.7,178.5z M182.7,129.9l17.3,74.2l34.4,0.1c-0.4-3.1-0.9-6.2-1.5-9.4c-0.7-3.8-1.3-7.3-1.9-10.7
					c-4.1-22.8-6.5-37.6-4.6-52.2c-4.8-2.4-11.5-4.9-17.8-4.2C205.6,128,196,128.8,182.7,129.9z M233.8,26l-48.1,4.9L197.6,74
					l37.1-6.9C232.2,55,233.1,35.8,233.8,26z M238.3,76.3l-28.2,5.2l7.6,34.3c4.1,0.8,8,2.2,11.4,3.7c3-10.1,8.3-21.1,16.6-35.3
					C243.1,82.3,240.4,79.8,238.3,76.3z M281.7,21.1l-38.7,3.9c-1.2,14.6-1.6,36.6,1.7,43.7c1.6,3.4,3.7,5.7,5.9,7.2
					c6.5-10.6,14.4-23,24.2-37.9c2.6-4,5.1-7.8,7.5-11.5L281.7,21.1z M330.8,13c-6.2,1.4-12,2.7-16.7,3.7
					c-6.7,10.1-14.2,21.4-22.5,34.2c-6,9.2-11.2,17.3-15.8,24.5l63.6-13.9L330.8,13z M369.7,3.9c-5.9,1.6-19.4,4.7-32.7,7.7
					l8.5,48.6l35.2-7.7C377.4,32.2,372.6,10.3,369.7,3.9z M445.7,161.7c-5.1-16.2-9.3-36.5-13.7-58c-3.2-15.7-6.8-32.8-11.1-50.1
					L373.3,64l16.6,96.7c0,0.2,0.1,0.4,0.1,0.7l0.7,16.7l1,37.2c33.8,1.8,63.5,4.1,76.2,5C459.5,200.5,451.3,179.5,445.7,161.7z
					 M474.6,236.1l-3.3-5.7c-6.9-0.5-29-2.2-56.8-4c1.8,7.5,5.5,23.3,7,31c1.8,0.5,3.6,1,5.4,1.5c16.8,4.8,43.1,0.9,56.9-1.8
					C481,250.6,477.8,243.5,474.6,236.1z M490,270.4c-0.6-1.4-1.3-2.8-1.9-4.2c-13.5,2.8-43.6,7.8-63.4,2.1
					c-1.1-0.3-2.2-0.6-3.3-0.9c-1.3,6-4.3,13.6-7.3,20.5l39-1.9c0.5-0.3,1.1-0.6,1.6-0.9c7.3-4.2,16.1-7.8,26.3-10.8
					c4-1.2,7-2,9.1-2.5L490,270.4z M523.3,333.2l-65.5,45.6c-0.9,0.6-1.9,0.9-2.9,0.8c-0.2,0-0.5-0.1-0.7-0.1
					c-1.2-0.4-2.3-1.3-2.8-2.5l-12.8-27.2c-1.1-2.4-0.2-5.3,2-6.5c2.2-1.2,4.9-0.3,6.1,2.1l10.5,22.4l61.5-42.8
					c-3.2-5.7-6.1-10.9-8.7-15.4l-56.5,36.9c-0.9,0.6-1.8,0.8-2.8,0.7c-1.4-0.1-2.7-1-3.4-2.3c-1.3-2.3-0.6-5.3,1.5-6.7l56.5-37
					c-2.9-5.3-4.8-8.6-5.2-9.4c-0.1-0.2-0.2-0.4-0.3-0.5c-0.3-0.7-2.2-4.5-5-10.6c-3.2,0.6-16.4,3.6-29.1,9.4c0,0,0,0.1,0,0.1
					l0.7,18.2c0.1,2.1-1.1,4-2.8,4.7c-6.2,2.6-36,14.9-49.8,13.5l-19.9,14.9c-3.2,8.5-6.9,18-11.3,28.1c-4.9,11.4-10,22.3-15.3,32.7
					l50.7,66.6l27.1-27.6c1-1.1,2.3-1.6,3.6-1.7l0.6-0.7c0.1-0.1,0.2-0.2,0.2-0.3c0.6-0.6,13.4-13.2,27.8-21.5
					c-2.7-3.7-4.1-7.5-4.1-11.2c0-6.1,3.7-10,5.4-11.8c0.2-0.2,0.3-0.4,0.5-0.5c2-2.4,5.5-3.9,9-3.9c2.8,0,7,1.1,10.8,5.8
					c2.8,3.5,3.8,7.9,2.7,12.4c-1.4,6-6.2,11.4-12.3,13.8c-15.2,6-32,22.3-33.6,23.8l-1.1,1.2c-0.2,1.3-0.8,2.5-1.7,3.5l-0.9,1
					l20,23l35.5-40.3l3.4-69.2c0-0.1,0-0.1,0-0.2c0-0.1,0-0.2,0.1-0.4c0-0.1,0-0.2,0.1-0.3c0-0.1,0.1-0.2,0.1-0.3
					c0-0.1,0.1-0.2,0.1-0.3c0-0.1,0.1-0.2,0.2-0.3c0.1-0.1,0.1-0.2,0.2-0.3c0.1-0.1,0.1-0.2,0.2-0.3c0.1-0.1,0.1-0.2,0.2-0.2
					c0.1-0.1,0.2-0.1,0.2-0.2c0.1-0.1,0.2-0.1,0.3-0.2c0,0,0.1-0.1,0.1-0.1l20.8-10.3C530.1,345.1,526.6,339,523.3,333.2z
					 M482.3,406c0,1.9,1.2,4.3,3.6,6.9c0.1-0.1,0.3-0.1,0.4-0.2c3.2-1.3,6-4.3,6.7-7.1c0.4-1.9-0.2-3-0.8-3.7
					c-1.2-1.5-2.5-2.3-3.8-2.5c-0.1,0-0.1,0-0.2,0c-1.3-0.1-2.2,0.6-2.4,0.7c-0.2,0.3-0.5,0.6-0.8,0.9
					C483.6,402.6,482.3,404.1,482.3,406z M537.1,357.4l-19.7,9.8l-2.9,59l4.3-4.9c0.1-0.1,0.2-0.2,0.2-0.2c-1.1-1.4-0.9-3.5,0.4-4.8
					l33.6-31.8C547.6,375.4,542.2,366.2,537.1,357.4z M584.2,435.4c-8.4-12.9-18-28.7-27.7-45l-29,27.5c2.2,0.3,4.4,1.3,6,3
					l26.6,27.7C567.8,443.9,575.9,439.5,584.2,435.4z M542.1,460.9l-15.5-16.2L498.1,477l13.6,12.8c3-3.3,5.9-6.5,8.7-9.5
					C526.9,473.3,534.2,466.9,542.1,460.9z M522.7,509.4c-1.1,1.2-2.2,2.4-3.3,3.6c3.9,4.2,7.8,8.2,11.6,11.7
					c2.6,2.5,5.2,5.4,7.8,8.7c2.1-1.4,3.9-2.7,5.4-3.7L522.7,509.4z M535.7,547c-4.8,3.3-9.6,6.5-12.6,8.5c-4.9,3.3-9.1,3-11.7,2.3
					c-4.5-1.3-7.5-4.8-8.9-7l-12.9-5.3c-0.4,0.5-0.9,0.9-1.3,1.4l32.5,46.6l31.9-17.2c0,0,0,0,0.1,0
					C547.3,565.8,541.5,555.5,535.7,547z M581.2,651.5c-0.2-0.4-0.3-0.8-0.4-1.3c0-0.1-1.6-10-10-32.4c-3.7-9.9-9-22.6-15.2-35.3
					c-0.1,0-0.1,0.1-0.2,0.1l-30.9,16.6l2.7,3.8c0.9,1.4,1.3,3.1,1.1,4.8c-0.3,1.7-1.1,3.2-2.5,4.1l-7.5,5.5c0.6,0.7,1,1.7,0.9,2.7
					l-4.1,42.4L581.2,651.5z M497,665.6l11.6-1.9l4.1-42l-21.6,15.9L497,665.6z M514.4,605.3l-34.5-49.5
					c-5.3,5.7-10.5,11.2-15.6,16.5l18.2,25.7c1,1.5,0.8,3.6-0.5,4.7l-7,6.4l6.1,9.3c0,0.1,0.1,0.1,0.1,0.2l4.9,7.5L514.4,605.3z
					 M425,677.6l60.5-10.1l-6.3-30.2l-4.3-6.6l-58.6,42.4L425,677.6z M404.1,666.9l64.2-46.4l-8.3-12.7l-9.4,7.7
					c-2.5,2.1-6.2,1.6-8.1-1.2c-1.9-2.7-1.5-6.7,1.1-8.7l14.2-11.7c1.3-1,2.8-1.5,4.4-1.2c1.6,0.3,3,1.2,3.9,2.6l5.3,8.2l4.2-3.9
					l-15.9-22.5c-30.9,32-57.7,56.7-77.7,68c0,0,0,0,0,0c-3.5,2.3-7.1,3.7-10.7,4.9L404.1,666.9z M420.3,752.9l-42.7-13.7
					c2.9,14,7.9,29.8,16.4,46.8c0.6,1.2,1.3,2.5,1.9,3.7L420.3,752.9z M403.7,819c-4.5-4.5-8.6-9.2-12.1-14.3
					c-0.2-0.3-0.5-0.6-0.7-0.9c-2.6-3.8-5-7.8-7.1-12c-32.2-64.6-19.6-114.3-14.5-129l-13.8-7.1c-3.6,2.2-6.4,5.5-8.7,11.5
					c-8.3,22.5-26.8,106.2-31.7,155.5c0,0,0,0.1,0,0.1l14.6,0.3L345.8,676c0.4-3.4,3.3-5.9,6.4-5.5c3.2,0.4,5.5,3.5,5.1,6.9
					l-16,146.1L404,825C404.1,822.7,404,820.8,403.7,819z M319.2,905.4l1.5-0.3l7.6-69.4l-16.1-0.4c-1.7,4.6-4.1,8.8-7.1,12.7
					c6.3,2.9,11.2,7.5,11.8,15.2C317.6,869.2,319.5,886.9,319.2,905.4z M493.1,860.7c-4.5-0.8-9.1-1.8-13.8-2.9
					c-25.7-6.2-47.2-15.9-64.1-28.7c-0.1,0.9-0.2,1.8-0.4,2.7c0,0.5-0.1,0.9-0.2,1.3c-1.7,10-5.7,22.2-11.1,37.6l90.4,9.6
					L493.1,860.7z M399.2,882.8c-7.2,21-6.6,36.7-5.6,44.2c6.8-0.5,13.1-0.4,18.9,0.2c3.9,0.4,7.7,1.1,11.1,1.9l3.1-43.3
					L399.2,882.8z M496.6,941.4l-2.1-48.5l-5.4-0.6l-0.7,49.5L496.6,941.4z M476.9,942.4l0.7-51.3l-39.2-4.2l-3.3,45.7
					c7.5,3,13.6,6.9,18.5,10.9L476.9,942.4z M360.1,971.4c16.8,5.6,34.1,11.3,49.5,14c19.9,3.4,37-1.7,54.8-7.7
					c-1.2-3.3-5.5-13.3-15.6-22.4c-0.5-0.3-1-0.7-1.4-1.2c-5.1-4.3-11.6-8.2-19.7-11c-0.4-0.1-0.7-0.2-1.1-0.4
					c-9.8-3.2-22-4.6-37-2.9c-2.7,0.3-5.3-1.5-6.1-4.3c-0.3-0.9-6.4-21.9,3.8-54.1l-1.7-0.2c-3.2-0.3-5.5-3.4-5.2-6.8
					c0.3-3.4,3.1-5.9,6.3-5.6c0,0,0,0,0,0l4.8,0.5c4.6-12.8,8.2-23.5,10.3-32l-62-1.5l-8.2,75.3c-0.3,2.8-2.3,5-4.8,5.4l-8.3,1.5
					c-1.1,13-3.8,25.2-9.2,32.4c-1.6,2.1-3.2,4.1-4.8,5.9C322.1,958.7,341.3,965.1,360.1,971.4z M327.7,659.1
					c1.6-4.4,3.6-8.1,5.7-11.2c-25.1-7.5-57-24.4-93.6-46c-4.9,8.9-8.8,18.3-10.6,27.7c-1.3,6.9-3,19.5-4.9,35.6l20.5,5.1l1.9-16.4
					c0.4-3.4,3.3-5.8,6.5-5.4c3.2,0.4,5.4,3.5,5,7l-2.7,23.3c-0.2,1.8-1.1,3.3-2.4,4.3c-1.1,0.9-2.5,1.2-3.9,1.1
					c-0.2,0-0.5-0.1-0.7-0.1l-25.5-6.4c-1.9,18-3.9,39.1-5.5,60.8c-2.5,32.9-3.4,55.6-3.4,70.7l80.6,11.4c0,0,0-0.1,0-0.1
					c0.8-8.2,2-17.6,3.5-27.4l-65.7-7.5c-3.2-0.4-5.5-3.4-5.1-6.9c0.3-3.4,3.2-5.9,6.3-5.6c0,0,0,0,0.1,0l66.5,7.6
					C307.8,734,320.3,679.1,327.7,659.1z M214.2,821.7c0.2,4.6,0.5,7.9,0.9,9.9c7.1,3,26.3,9.5,44.2,11.4c2.9,0.3,5.4,0.4,7.6,0.5
					c1.7-0.1,3.5-0.1,5.2-0.2c5-0.4,7.6-1.6,8.7-2.2c4.1-2.5,7.3-5.4,9.6-8.7L214.2,821.7z M227.7,966.5c3.4,4.3,6.9,8.8,10,13.2
					c1.6,2.3,3.1,4.5,4.5,6.8c2.2-3.2,4.4-6.4,6.5-9.6c2.3-3.5,4.9-6.5,7.6-9c-12.2-5.1-25.4-9.2-32.3-8.3c-0.5,0.1-1.1,0.1-1.7,0.2
					C224.1,961.9,225.9,964.2,227.7,966.5z M209.9,938.2c5-0.1,9-0.3,11.7-0.7c16.8-2.3,44,9.9,55.4,15.5c3.7-2.6,9.7-7.7,16.4-16.5
					c6.1-8,6.5-41.2,3.4-68.4c-3.8-1.7-12.6-2.7-23.8-2.6c-1.9,0.1-3.8,0.2-5.8,0.2c-10.1,0.5-21.6,1.8-33.2,4.4
					c-21,4.6-29.1,10.3-30.8,12.4C202.1,897.4,201,916.8,209.9,938.2z M199.9,851.7c1,1.9,1.7,3.8,2.1,5.7c2.7-1.3,5.6-2.5,8.8-3.7
					c-9.6-3.7-11.1-5.7-12.2-7.3c-3.1-4.4-8.9-12.6-2.1-105.6c1-13.1,2.1-26.9,3.4-40.2c-13.8-1-39-3.7-50.6-10.1
					c-5.3-3-11.5-6.1-17.8-9.2l-4.4,11.1c7,3.7,14.5,7.9,21.1,12.1c17.5,11.1,31.3,13.2,31.4,13.2c3,0.4,5.2,3.4,5,6.7l-7.8,110.1
					C188.4,838.6,196.1,844.4,199.9,851.7z M104.4,919.6c20.3,11.3,55.8,16.4,83.1,18.1c-5.4-16.9-6-32.4-5.6-45.2
					c-8.6,4.4-19.2,5.9-31.5,4.6c-8.4-0.9-17.7-3.1-27.8-6.6c-46.3-16.1-95.7-26.8-115.3-30.8c-0.1,0.4-0.2,0.9-0.3,1.3
					c-0.9,5-3.6,17.7-7.3,34.6C45.4,899.9,78.2,905,104.4,919.6z"/>
			</g>
		</g>
	</g>
</g>
<g id="PATH-5">
	<g id="XMLID_209_">
		<path id="XMLID_218_" class="st4" d="M1212,500c0,0.5,0.1,1.1,0.3,2"/>
		<path id="XMLID_217_" class="st5" d="M1213.4,505.6c4.2,11.6,16.8,36.3,19.9,46.6"/>
		<path id="XMLID_216_" class="st4" d="M1233.8,554c0.2,0.8,0.3,1.5,0.2,2l2,0.2"/>
		<line id="XMLID_215_" class="st6" x1="1240" y1="556.7" x2="1407" y2="577.5"/>
		<path id="XMLID_214_" class="st4" d="M1409,577.8l2,0.2c-0.1,0.6-0.1,1.3-0.2,2"/>
		<path id="XMLID_213_" class="st7" d="M1410.5,584c-1.4,17.2-3.5,49-4.5,57c-0.4,3.4-25.7,65.6-26,69c-3.9,39.7-1,60-1,60
			c4.2,13.7-110.6,21.6-105,35c29,69.3,22.2,81.3,28.5,99.3"/>
		<path id="XMLID_212_" class="st4" d="M1303.2,906.2c0.2,0.6,0.5,1.2,0.8,1.8c0,0,0.7-0.1,2-0.2"/>
		<path id="XMLID_211_" class="st8" d="M1310,907.4c26.9-2.7,136.3-13.5,180-14.4c10.9-0.2,55.3-2.2,69-2.8"/>
		<path id="XMLID_210_" class="st4" d="M1561,890.1c1.3-0.1,2-0.1,2-0.1"/>
	</g>
</g>
<g id="PATH-4">
	<g id="XMLID_287_">
		<path id="XMLID_292_" class="st4" d="M1265,134.5c0.4,0.3,1,0.7,1.6,1.1"/>
		<path id="XMLID_291_" class="st9" d="M1270,137.8c21.3,13.1,90.2,49.8,89.6,55.9l20.3,101c1.3,21,28.4,63.6,27.3,72.7
			c-0.4,3.4-2.9,7.2-3.3,10.7c-1,8.3,5.7,22,5.7,22c4.2,13.7,5,5.3,22.7,2c8.9-1.7,44.5,8,83.3,5.3"/>
		<path id="XMLID_290_" class="st4" d="M1517.7,407.2c0.7-0.1,1.3-0.1,2-0.2c0,0,0,0.7,0.1,2"/>
		<path id="XMLID_289_" class="st10" d="M1520,413c1.7,30.6,9.2,168,10.5,176c0.2,1.5,42.2,5.8,55.5,7.1"/>
		<path id="XMLID_288_" class="st4" d="M1588,596.3c1.3,0.1,2,0.2,2,0.2"/>
	</g>
</g>
<g id="PATH-3">
	<g id="XMLID_257_">
		<path id="XMLID_272_" class="st4" d="M554.3,461.7c0,0.3-0.3,0.9-0.9,1.8"/>
		<path id="XMLID_261_" class="st11" d="M551,466.6c-21.6,25.7-140.1,139.9-146,149.3l-48.5,27.4c-23.5-1.3-109.7-51.5-118.2-54.9
			c-10-4-20.7,47.3-23.3,78c-2.7,31.4-7.3,114-7.3,114c-4,13.7-6,41.3,1.3,58c13.1,29.7,71.6-9.7-13.1,36.1"/>
		<path id="XMLID_260_" class="st4" d="M194.1,875.4c-0.6,0.3-1.2,0.6-1.8,1c0,0-0.1,0.7-0.1,2"/>
		<path id="XMLID_259_" class="st12" d="M192.1,882.3c-0.2,11.5,0.5,37.8,9.6,63.4c3.7,10.6-64.8-4-82.1-7.8"/>
		<path id="XMLID_258_" class="st4" d="M117.6,937.4c-1.3-0.3-1.9-0.4-1.9-0.4"/>
	</g>
</g>
<g id="PATH-2">
	<g id="XMLID_203_">
		<path id="XMLID_207_" class="st4" d="M105.3,0c0.1,0.7,0.1,1.3,0.2,2"/>
		<path id="XMLID_206_" class="st13" d="M105.8,6c0.4,4.3,0.7,8.8,1.1,13.4l9.1,102.9c1.3,14.4,2.6,26.8,3.6,35.9
			c0.4,3.4,0.4,6.8,0.8,10.2c3.7,39.7-16.9,102.3-16.9,102.3c-4,13.7-8,26.1-11.1,36.2c-5.8,33.8-8.5,33.1-17.1,53.4
			c0,0-33.5,59.5-40.3,92.6c-1.4,7-2.3,12.2-2.9,15.4"/>
		<path id="XMLID_204_" class="st4" d="M31.8,470.3c-0.2,1.3-0.3,2-0.3,2"/>
	</g>
</g>
<g id="PATH-1">
	<g id="XMLID_279_">
		<path id="XMLID_286_" class="st4" d="M414.3-9.5c0,0.5,0.2,1.1,0.3,2"/>
		<path id="XMLID_285_" class="st14" d="M415.6-3.4c3.1,11.9,10.7,36.3,13.2,46.7"/>
		<path id="XMLID_284_" class="st4" d="M429.2,45.3c0.2,0.8,0.3,1.5,0.3,2l-2,0.4"/>
		<line id="XMLID_283_" class="st15" x1="423.7" y1="48.5" x2="371.6" y2="59.2"/>
		<path id="XMLID_282_" class="st4" d="M369.7,59.6l-2,0.4c0.1,0.6,0.1,1.3,0.2,2"/>
		<path id="XMLID_281_" class="st16" d="M368.5,66c2.2,14.9,7.4,36.6,8.3,44.5c0.4,3.4,9.3,43.5,9.5,47c4,89.3-5.3,100.5-5.3,100.5
			c-22.5,40-25.5,26.5-44.5,26.5c-10.6,0,2.2,10.2-12.3,40.3c0,0-9.8,18.3-20.8,49.8c-2.6,7.5,40.8,24.1,54,28.9"/>
		<path id="XMLID_280_" class="st4" d="M359.4,404.1c1.2,0.4,1.9,0.7,1.9,0.7"/>
	</g>
</g>
<linearGradient id="XMLID_327_" gradientUnits="userSpaceOnUse" x1="-16.5063" y1="28.5898" x2="1616.5063" y2="971.4102">
	<stop  offset="0" style="stop-color:#FFDF5E;stop-opacity:0.4"/>
	<stop  offset="0.3925" style="stop-color:#FFDB4C;stop-opacity:0.95"/>
	<stop  offset="0.6344" style="stop-color:#FFDB4C;stop-opacity:0.95"/>
	<stop  offset="1" style="stop-color:#FFDF5E;stop-opacity:0.4"/>
</linearGradient>
<rect id="XMLID_4_" y="0" class="st17" width="1600" height="1000"/>
<g id="XMLID_148_">
	<circle id="XMLID_147_" class="st0" cx="31.8" cy="475.3" r="11.5"/>
	<g id="XMLID_9_">
		<rect id="XMLID_7_" x="27.8" y="472.6" width="2.7" height="2.7"/>
		<rect id="XMLID_13_" x="33.2" y="472.6" width="2.7" height="2.7"/>
		<rect id="XMLID_14_" x="25.1" y="475.3" width="2.7" height="2.7"/>
		<rect id="XMLID_144_" x="30.5" y="475.3" width="2.7" height="2.7"/>
		<rect id="XMLID_146_" x="35.9" y="475.3" width="2.7" height="2.7"/>
	</g>
</g>
<g id="XMLID_152_">
	<circle id="XMLID_294_" class="st0" cx="332.8" cy="285.3" r="11.5"/>
	<g id="XMLID_198_">
		<rect id="XMLID_293_" x="328.8" y="282.6" width="2.7" height="2.7"/>
		<rect id="XMLID_275_" x="334.2" y="282.6" width="2.7" height="2.7"/>
		<rect id="XMLID_274_" x="326.1" y="285.3" width="2.7" height="2.7"/>
		<rect id="XMLID_220_" x="331.5" y="285.3" width="2.7" height="2.7"/>
		<rect id="XMLID_219_" x="336.9" y="285.3" width="2.7" height="2.7"/>
	</g>
</g>
<g id="XMLID_295_">
	<circle id="XMLID_302_" class="st0" cx="233.8" cy="588.3" r="11.5"/>
	<g id="XMLID_296_">
		<rect id="XMLID_301_" x="229.8" y="585.6" width="2.7" height="2.7"/>
		<rect id="XMLID_300_" x="235.2" y="585.6" width="2.7" height="2.7"/>
		<rect id="XMLID_299_" x="227.1" y="588.3" width="2.7" height="2.7"/>
		<rect id="XMLID_298_" x="232.5" y="588.3" width="2.7" height="2.7"/>
		<rect id="XMLID_297_" x="237.9" y="588.3" width="2.7" height="2.7"/>
	</g>
</g>
<g id="XMLID_303_">
	<circle id="XMLID_310_" class="st0" cx="1306.8" cy="901.3" r="11.5"/>
	<g id="XMLID_304_">
		<rect id="XMLID_309_" x="1302.8" y="898.6" width="2.7" height="2.7"/>
		<rect id="XMLID_308_" x="1308.2" y="898.6" width="2.7" height="2.7"/>
		<rect id="XMLID_307_" x="1300.1" y="901.3" width="2.7" height="2.7"/>
		<rect id="XMLID_306_" x="1305.5" y="901.3" width="2.7" height="2.7"/>
		<rect id="XMLID_305_" x="1310.9" y="901.3" width="2.7" height="2.7"/>
	</g>
</g>
<g id="XMLID_311_">
	<circle id="XMLID_318_" class="st0" cx="1531.8" cy="588.3" r="11.5"/>
	<g id="XMLID_312_">
		<rect id="XMLID_317_" x="1527.8" y="585.6" width="2.7" height="2.7"/>
		<rect id="XMLID_316_" x="1533.2" y="585.6" width="2.7" height="2.7"/>
		<rect id="XMLID_315_" x="1525.1" y="588.3" width="2.7" height="2.7"/>
		<rect id="XMLID_314_" x="1530.5" y="588.3" width="2.7" height="2.7"/>
		<rect id="XMLID_313_" x="1535.9" y="588.3" width="2.7" height="2.7"/>
	</g>
</g>
<g id="XMLID_319_">
	<circle id="XMLID_326_" class="st0" cx="1236.8" cy="555.3" r="11.5"/>
	<g id="XMLID_320_">
		<rect id="XMLID_325_" x="1232.8" y="552.6" width="2.7" height="2.7"/>
		<rect id="XMLID_324_" x="1238.2" y="552.6" width="2.7" height="2.7"/>
		<rect id="XMLID_323_" x="1230.1" y="555.3" width="2.7" height="2.7"/>
		<rect id="XMLID_322_" x="1235.5" y="555.3" width="2.7" height="2.7"/>
		<rect id="XMLID_321_" x="1240.9" y="555.3" width="2.7" height="2.7"/>
	</g>
</g>
</svg>
