<?xml version="1.0" encoding="utf-8"?>
<!-- Generator: Adobe Illustrator 19.0.0, SVG Export Plug-In . SVG Version: 6.00 Build 0)  -->
<svg version="1.1" id="Layer_1" xmlns="http://www.w3.org/2000/svg" xmlns:xlink="http://www.w3.org/1999/xlink" x="0px" y="0px"
	 viewBox="0 0 30 30" style="enable-background:new 0 0 30 30;" xml:space="preserve">
<style type="text/css">
	.st0{fill:#DC4E41;}
	.st1{fill:#FFFFFF;}
</style>
<path id="XMLID_2_" class="st0" d="M27,30H3c-1.6,0-3-1.4-3-3V3c0-1.6,1.4-3,3-3h24c1.6,0,3,1.4,3,3v24C30,28.6,28.6,30,27,30z"/>
<g id="XMLID_6_">
	<path id="XMLID_4_" class="st1" d="M3.1,14.6c0.1-3.9,3.6-7.3,7.5-7.2c1.9-0.1,3.6,0.7,5,1.9c-0.6,0.7-1.2,1.4-1.9,2
		c-1.7-1.2-4.2-1.5-5.9-0.2c-2.5,1.7-2.6,5.7-0.2,7.5c2.3,2.1,6.6,1,7.3-2.1c-1.4,0-2.9,0-4.3,0c0-0.9,0-1.7,0-2.6
		c2.4,0,4.8,0,7.2,0c0.1,2-0.1,4.2-1.4,5.8c-1.9,2.6-5.6,3.4-8.6,2.3C5,20.9,2.9,17.8,3.1,14.6z"/>
	<path id="XMLID_3_" class="st1" d="M22.6,11.8c0.7,0,1.4,0,2.1,0c0,0.7,0,1.4,0,2.2c0.7,0,1.4,0,2.2,0c0,0.7,0,1.4,0,2.1
		c-0.7,0-1.4,0-2.2,0c0,0.7,0,1.4,0,2.2c-0.7,0-1.4,0-2.1,0c0-0.7,0-1.4,0-2.2c-0.7,0-1.4,0-2.2,0c0-0.7,0-1.4,0-2.1
		c0.7,0,1.4,0,2.2,0C22.6,13.2,22.6,12.5,22.6,11.8z"/>
</g>
</svg>
