<?xml version="1.0" encoding="utf-8"?>
<!-- Generator: Adobe Illustrator 19.0.0, SVG Export Plug-In . SVG Version: 6.00 Build 0)  -->
<svg version="1.1" id="Layer_1" xmlns="http://www.w3.org/2000/svg" xmlns:xlink="http://www.w3.org/1999/xlink" x="0px" y="0px"
	 viewBox="0 0 340 200" style="enable-background:new 0 0 340 200;" xml:space="preserve">
<style type="text/css">
	.st0{fill:#FFFFFF;}
	.st1{opacity:0.5;fill:#FFFFFF;enable-background:new    ;}
</style>
<g id="XMLID_2_">
	<path id="XMLID_4_" class="st0" d="M10.6,159.6v-5.1l10.6-10.9C53,112.5,66.9,96.3,66.9,76.6c0-13-5.5-25.9-24.8-25.9
		c-10.9,0-19.4,5.6-24.3,9.9l-3.3-5.8c7.4-6.7,17.4-11.4,29.2-11.4c23.8,0,31.9,18,31.9,31.5c0,22.5-16.4,40.7-45.1,69l-8.1,8.4v0.4
		h56.3v7H10.6z"/>
	<path id="XMLID_6_" class="st0" d="M144.7,159.6V126H90.2v-5.6L146,45.3h6.9V119h17.4v7h-17.4v33.6H144.7z M144.7,119V72.7
		c0-5.5,0.2-10.7,0.5-15.8l-0.5-0.2c-3.5,6.5-6.2,10.4-9,14.4l-35.6,47.5v0.4H144.7z"/>
	<path id="XMLID_9_" class="st0" d="M329.2,45.3v6l-51.6,108.4h-8.3l51-107v-0.4h-58.1v-7H329.2z"/>
</g>
<path id="XMLID_3_" class="st1" d="M249.7,4.5l1.2,0.5l-80.6,190.5l-1.2-0.5L249.7,4.5z"/>
</svg>
