<?xml version="1.0" encoding="utf-8"?>
<!-- Generator: Adobe Illustrator 19.0.0, SVG Export Plug-In . SVG Version: 6.00 Build 0)  -->
<svg version="1.1" id="svggraph" xmlns="http://www.w3.org/2000/svg" xmlns:xlink="http://www.w3.org/1999/xlink" x="0px" y="0px"
	 viewBox="750 -39 1600 178" style="enable-background:new 750 -39 1600 178;" xml:space="preserve">
<style type="text/css">
	.st0{opacity:0.3;fill:url(#SVGID_1_);stroke:#7F7F7F;stroke-miterlimit:10;stroke-dasharray:2,5;}
	.st1{opacity:0.3;fill:url(#SVGID_2_);stroke:#7F7F7F;stroke-miterlimit:10;stroke-dasharray:2,5;}
	.st2{opacity:0.3;fill:url(#SVGID_3_);stroke:#7F7F7F;stroke-miterlimit:10;stroke-dasharray:2,5;}
	.st3{opacity:0.3;fill:url(#SVGID_4_);stroke:#7F7F7F;stroke-miterlimit:10;stroke-dasharray:2,5;}
	.st4{opacity:0.5;fill:url(#XMLID_7_);stroke:url(#XMLID_8_);stroke-width:3;stroke-miterlimit:10;enable-background:new    ;}
	.st5{fill:#FFFFFF;stroke:#8FFFFF;stroke-width:3;stroke-miterlimit:10;}
	.st6{fill:url(#XMLID_9_);stroke:url(#XMLID_10_);stroke-width:3;stroke-miterlimit:10;}
</style>
<g id="Lines">
	<linearGradient id="SVGID_1_" gradientUnits="userSpaceOnUse" x1="1550" y1="32.2222" x2="1550" y2="32.2222">
		<stop  offset="0" style="stop-color:#94DFFF;stop-opacity:0"/>
		<stop  offset="0.6452" style="stop-color:#45BBE8;stop-opacity:0.1"/>
		<stop  offset="0.9462" style="stop-color:#94F4FF;stop-opacity:0.3"/>
	</linearGradient>
	<line class="st0" x1="750" y1="32.2" x2="2350" y2="32.2"/>
	<linearGradient id="SVGID_2_" gradientUnits="userSpaceOnUse" x1="1550" y1="-3.591776e-008" x2="1550" y2="3.591686e-008">
		<stop  offset="0" style="stop-color:#94DFFF;stop-opacity:0"/>
		<stop  offset="0.6452" style="stop-color:#45BBE8;stop-opacity:0.1"/>
		<stop  offset="0.9462" style="stop-color:#94F4FF;stop-opacity:0.3"/>
	</linearGradient>
	<line class="st1" x1="750" y1="0" x2="2350" y2="0"/>
	<linearGradient id="SVGID_3_" gradientUnits="userSpaceOnUse" x1="1556.3334" y1="64.4444" x2="1556.3334" y2="64.4444">
		<stop  offset="0" style="stop-color:#94DFFF;stop-opacity:0"/>
		<stop  offset="0.6452" style="stop-color:#45BBE8;stop-opacity:0.1"/>
		<stop  offset="0.9462" style="stop-color:#94F4FF;stop-opacity:0.3"/>
	</linearGradient>
	<line class="st2" x1="756.3" y1="64.4" x2="2356.3" y2="64.4"/>
	<linearGradient id="SVGID_4_" gradientUnits="userSpaceOnUse" x1="1556.3334" y1="96.6667" x2="1556.3334" y2="96.6667">
		<stop  offset="0" style="stop-color:#94DFFF;stop-opacity:0"/>
		<stop  offset="0.6452" style="stop-color:#45BBE8;stop-opacity:0.1"/>
		<stop  offset="0.9462" style="stop-color:#94F4FF;stop-opacity:0.3"/>
	</linearGradient>
	<line class="st3" x1="756.3" y1="96.7" x2="2356.3" y2="96.7"/>
</g>
<g id="g2">
	
		<linearGradient id="XMLID_7_" gradientUnits="userSpaceOnUse" x1="1547.8999" y1="765" x2="1547.9" y2="933.3512" gradientTransform="matrix(1 0 0 -1 0 904)">
		<stop  offset="0" style="stop-color:#94DFFF;stop-opacity:0"/>
		<stop  offset="0.7742" style="stop-color:#45BBE8;stop-opacity:0.1"/>
		<stop  offset="0.9462" style="stop-color:#94F4FF;stop-opacity:0.3"/>
	</linearGradient>
	
		<linearGradient id="XMLID_8_" gradientUnits="userSpaceOnUse" x1="746.4" y1="849.1756" x2="2349.4236" y2="849.1756" gradientTransform="matrix(1 0 0 -1 0 904)">
		<stop  offset="0" style="stop-color:#94DFFF"/>
		<stop  offset="0.172" style="stop-color:#009CD4"/>
		<stop  offset="0.4677" style="stop-color:#2AF6FF"/>
		<stop  offset="0.8011" style="stop-color:#45BBE8"/>
		<stop  offset="0.9462" style="stop-color:#45FFE8"/>
	</linearGradient>
	<path id="XMLID_4_" class="st4" d="M2347.9,101.6c0,0-76.4,12.5-147.2-4.9s-152.8-40.1-265-6.1s-232.1,19.9-324.7,2.6
		S1402,8.5,1391.5,2.5s-113.6-67.3-206.2-2s-195.6,100-258,104s-99.5-32-179.4-70V139h1599.5L2347.9,101.6z"/>
	<ellipse id="XMLID_5_" class="st5" cx="1446.6" cy="30.3" rx="11" ry="10.5"/>
</g>
<g id="g1">
	
		<linearGradient id="XMLID_9_" gradientUnits="userSpaceOnUse" x1="1550" y1="766" x2="1550" y2="934.7152" gradientTransform="matrix(1 0 0 -1 0 904)">
		<stop  offset="0" style="stop-color:#94DFFF;stop-opacity:0"/>
		<stop  offset="0.6452" style="stop-color:#45BBE8;stop-opacity:0.1"/>
		<stop  offset="0.9462" style="stop-color:#94F4FF;stop-opacity:0.3"/>
	</linearGradient>
	
		<linearGradient id="XMLID_10_" gradientUnits="userSpaceOnUse" x1="748.4899" y1="850.3576" x2="2351.5" y2="850.3576" gradientTransform="matrix(1 0 0 -1 0 904)">
		<stop  offset="0" style="stop-color:#BFF6FF"/>
		<stop  offset="0.4731" style="stop-color:#7FEEFF"/>
		<stop  offset="0.6183" style="stop-color:#55EEFF"/>
		<stop  offset="0.9462" style="stop-color:#45FFE8"/>
	</linearGradient>
	<path id="XMLID_1_" class="st6" d="M751.2,129.4C751,110,750,53,750,53c73.4-81.6,164.3,78.1,234,68.5
		c114.4-15.9,105.1-63.5,153.4-67.5c28.3-2.4,58.8,49.4,98.4,50.9s80.4-24.4,97-28.9s50.9-19.5,102.4,4.5s135,56,213.8,10
		S1766.4,1,1794.2-15c27.9-16,63.2-27.5,102.4,9.5s80.6,82.7,96.3,93.3c15.7,10.6,59.3,32,107.2-11.3s111.8-83.4,134.7-92
		c32.9-12.3,67-29,115.2,4.5v149H751.4L751.2,129.4z"/>
	<ellipse id="XMLID_3_" class="st5" cx="1137.7" cy="53.8" rx="10.8" ry="10.1"/>
	<ellipse id="XMLID_6_" class="st5" cx="2228.5" cy="-13" rx="11.9" ry="11.2"/>
</g>
</svg>
