<?xml version="1.0" encoding="utf-8"?>
<!-- Generator: Adobe Illustrator 19.0.0, SVG Export Plug-In . SVG Version: 6.00 Build 0)  -->
<svg version="1.1" id="mapsvg" xmlns="http://www.w3.org/2000/svg" xmlns:xlink="http://www.w3.org/1999/xlink" x="0px" y="0px"
	 viewBox="630 -400 1600 1000" style="enable-background:new 630 -400 1600 1000;" xml:space="preserve">
<style type="text/css">
	.st0{fill:#F7ED34;}
	.st1{fill:#FFFFFF;stroke:#777777;stroke-miterlimit:10;}
	.st2{fill:#FFFFFF;stroke:#A5A5A4;stroke-miterlimit:10;}
	.st3{fill:none;stroke:#424242;stroke-width:2;stroke-linejoin:round;stroke-dasharray:4.0035,4.0035;}
	.st4{fill:none;stroke:#606060;stroke-width:2;stroke-linejoin:round;stroke-dasharray:4.0298,4.0298;}
	.st5{fill:none;stroke:#606060;stroke-width:2;stroke-linejoin:round;stroke-dasharray:3.9924,3.9924;}
	.st6{fill:none;stroke:#606060;stroke-width:2;stroke-linejoin:round;stroke-dasharray:4.0032,4.0032;}
	.st7{fill:none;stroke:#606060;stroke-width:2;stroke-linejoin:round;stroke-dasharray:4.0035,4.0035;}
	.st8{fill:url(#XMLID_32_);}
	.st9{fill:#FFFFFF;}
</style>
<rect id="XMLID_1_" x="629.1" y="-403.4" class="st0" width="1600" height="1000"/>
<path id="mapr" class="st1" d="M1947.4,512c2.3-0.2,4.7-0.4,7.1-0.6c5.8-0.5,11.8-1,18-1.5l15.4,90.2h12.3l-15.5-91.3
	c16.3-1.5,35.6-2.9,55.9-4.2l5.3,17.9l-23.1,1.7c-3.3,0.2-5.8,3.2-5.6,6.7c0.2,3.4,3.1,6,6.4,5.8l30.5-2.2c0.1,0,0.3,0,0.3,0
	l18.2-1.3l5.5,47.3l-53.6,5.2l0,0c-3.3,0.3-5.7,3.4-5.4,6.8s3.2,6,6.6,5.6l26-2.5l0.5,4.7h12.1l-0.6-5.8l21.8-2.1l0,0
	c1.6-0.2,3.1-1,4.1-2.3s1.5-3,1.3-4.7l-6.9-59.5c-0.4-3.3-3.2-5.7-6.4-5.5l-19.5,1.2l-5.3-17.9c29.3-1.9,59.9-3.6,86.5-4.9l-0.4,9.5
	l-34.2-1.6c-1.7-0.1-3.3,0.6-4.5,1.8c-1.2,1.2-1.9,2.9-1.8,4.6l0.4,14.8c0.1,3.4,2.9,6.2,6.2,6.1c0.1,0,0.3,0,0.4,0
	c3.1-0.3,5.5-3.1,5.4-6.4l-0.2-8.1l33.7,1.6c1.6,0.1,3.2-0.5,4.3-1.6c1.2-1.1,1.9-2.7,2-4.3l0.8-16.9c30.9-1.6,54.4-2.6,60.4-2.9
	c6.7,1.6,13.2,3.1,19.6,4.5v-22.7c-5.3-1.1-10.6-2.4-16.1-3.7c-1-0.2-2-0.3-2.9-0.3c-0.4,0-9.5,0.4-24.3,1.1l0.2-153.4l31.5,1.5
	c2.7,0.4,6.8,1,11.6,1.6v-12.6c-4.2-0.6-7.8-1.1-10.2-1.4c-0.2,0-0.4,0-0.6-0.1l-38-1.8h-0.1L2160,307l1.3-28.8c0-0.1,0-0.1,0-0.2
	l1.5-33.7l53.8,13.2c1.8,0.4,3.6,0,5.1-1.1c1.4-1.2,2.3-2.9,2.3-4.8l1-51.2h0.2c0.1,0,0.2,0,0.3,0l3.4,0.2c0.8,0.1,1.7,0.1,2.6,0.2
	v-13.9c-0.6,0-1.2-0.1-1.7-0.1l-3.3-0.2l-1.2-0.1l0.1-5.3c0-0.2,0-0.3,0-0.5c0-0.2,0-0.4-0.1-0.6l-22.4-186
	c14.9-1.8,26.7-1.7,26.9-1.6c0.2,0,0.3,0,0.5,0l1.2-0.1v-11.1l-1.8,0.2c-3.8,0-40.7-0.1-67.9,11.4c-15.9,6.8-36.2,7.2-54.3,5.8
	c-1-0.6-2.1-1-3.3-0.9c-0.7,0-1.3,0.2-2,0.4c-9.4-0.9-17.9-2.2-24.5-3.3c-3.7-0.6-6.8-1.1-9.5-1.4c-10.3-1.3-17.7,1.2-22.6,4.1
	c-1.5-6.8-3.3-12.2-5-16.2c55.2-30.2,134.2-57.3,190.8-74.7v-23.2c-54.2,16.4-131.6,42.5-190.1,72.7l-21.1-44
	C2078-121.5,2196.7-200,2202.8-204c2.8-1.9,3.6-5.7,1.8-8.6s-5.5-3.8-8.3-1.9c-1.4,1-120.4,79.6-179.1,114.1l-9.9-48.7l34.1,1.6
	c2.6,0.1,4.8-1.9,4.9-4.6c0.1-2.7-1.9-4.9-4.5-5.1l-36.6-1.7l-10.2-50.4c12.8-3.6,37.6-4.7,72.1-3.3c0.6,0.3,1.2,0.5,1.9,0.5
	l65.1,4.5c2.6,0.2,4.8-1.8,5-4.4s-1.6-5-4.2-5.2c-0.3,0-28.6-3.2-60.7-4.8l0.5-10.2l15.9,0.1c2.6,0,4.7-2.1,4.7-4.8
	c0-2.7-2.1-4.9-4.7-4.9l-28.5-0.2c-2.5,0-4.6,2-4.7,4.6s1.7,4.8,4.2,5.1l3.6,0.4l-0.4,9.5c-35.9-1.4-60.8,0-74.1,4.2
	c-0.2,0.1-0.3,0.1-0.5,0.2l-34.3-20.5l18.9-33.2c8.9,2.3,17.8,4,26.2,5.1c59.2,7.1,72,7.3,75.9,1.3c3.3-5.1,10.2-30.7,1.1-41
	c-9.9-11.2-16.9-4.8-17.2-4.5c-1.9,1.8-2.1,4.9-0.3,6.9c1.6,1.8,4.1,2.1,6,0.8c0.5,0.1,2.1,0.7,4.5,3.4c4.4,5,0.8,23.5-1.7,28.5
	c-4.8,1.6-24.6-0.1-43.5-2.1l8.7-64.6l135.6,16.3l-0.1,2.6c-0.1,1.6,0.5,3.2,1.7,4.3c1.1,1.1,2.7,1.7,4.2,1.5l53.8-5.1l0,0
	c0.6-0.1,1.2-0.2,1.7-0.5v-10.1c-0.7-0.4-1.6-0.6-2.4-0.5l-41.3,1.5l-8.6-32.4c-0.6-2.1-2.3-3.7-4.4-4l-137.7-22
	c-0.6-0.3-1.3-0.5-2-0.6l-45.7-4.9l0.5-11.5h-10.7l-0.4,9.8l-27.4-2.4c-1.1-0.1-2.2,0.2-3.1,0.7l-25.2-8.2h-59.6l41.3,4.9l-8.1,87.9
	c-19.3-5.2-65-8.6-82.7-9.8c2.6-28.5,5.3-58.7,7.4-83h-21.5c-1.7,19.8-3.8,43.3-5.9,66.6l-0.7-0.7c-0.6-0.7-1.5-1.1-2.3-1.3
	l-38.2-8.7c-2.5-0.6-4.9,1-5.6,3.6l-14.2,58.3c-14.9-1.2-25.6-2-28.8-2.3c-0.3,0-0.6,0-0.8-0.1l7.4-32.1l6.3,1.1
	c2.3,0.4,4.6-1,5.3-3.4l23.3-81h-9.8l-6.1,21.4l-101.6-9.9l1.2-11.5h-6.7l-1.2,10.8l-6.2-0.6c-2.5-3.6-4.8-7-7.1-10.2h-26.4
	c1.1,1.6,2.3,3.3,3.5,5.1c-2.5-0.5-5.1-1.1-7.6-1.6l0.6-3.4h-6.8l-0.4,2c-3.2-0.7-6.4-1.4-9.4-2h-34.9c-2,4.4-4.4,12.5-7.7,27.7
	c-1.9,8.9-3.5,17.6-4.5,22.9l-30.1-6.3c4.1-14.9,8.9-29.9,14.7-44.2H1476c-1.3,3.4-2.5,6.8-3.6,10.2c-6.8-2.5-16.8-6.1-28-10.2
	h-28.3c20.6,7.5,41.6,15.2,53.2,19.4c-8,25.3-13.7,50.9-18.7,74.2l-96.8-34.8c-0.5-0.7-1.3-1.2-2.1-1.4L1333-352
	c1.9-3.8,3.7-7.8,5.5-12.1c6.4-15.6,10.6-28.9,13.6-39h-9.8c-2.9,9.5-6.8,21.4-12.4,35.2c-13.9,34-32.6,50.7-37.9,54.9l-1.6,1.2
	c-2.1,1.6-2.5,4.5-1.1,6.7c1.5,2.2,4.3,2.7,6.4,1.3c0.2-0.1,1-0.7,2.3-1.8l14.9-11.3l23.4,13.5l-44.7,122.5l-30.5,13.9v10.6
	l36.1-16.7c1.1-0.5,2-1.5,2.5-2.7l46.4-127.5c0.3-0.4,0.5-0.9,0.6-1.4l6.8-29.8l95.1,34.2c-4.2,19.3-8.2,37.4-12.8,51.4
	c-15.6,47.3-52.4,121.1-54.9,126.2c-2,3.6-23.3,40.3-46.6,78.8l-73.2-42.4V-72l66.7,38.7c-12.7,20.8-25.6,41.2-36.1,56.3
	c-10.2-4.2-20.5-8-30.6-11.5v23.4c5.7,2,11.5,4.2,17.2,6.5c-5.3,6.9-11.1,14.3-17.2,21.9v39.9l46.2,21.4c1,0.5,2,0.6,3.1,0.5
	c2.1-0.2,4-1.5,4.9-3.7c1.4-3.1,0-6.8-3-8.2l-46.2-21.4c11.8-14.5,23.4-29.1,32.9-41.7c24.8,11.4,47.8,25.2,64.1,42.3
	c2.6,2.8,5.4,5.6,8.2,8.5l-24.2,22c-0.4,0-0.9,0-1.3,0.1c-1.2,0.3-2.3,1.1-3,2.3l-23.5,41.2c-1.8-1.4-4.2-2.9-6.9-4.4
	c-7.9-4.1-31.8-1.9-37.2,2.4c-1.5,1.2-3.3,3-5.5,5c-2.5,2.4-5.8,5.7-8.6,7.8v11.1c4.9-1.9,10.3-7.1,15.1-11.8
	c1.9-1.8,3.6-3.5,4.7-4.4c3.1-2.1,22.6-4,27.4-1.5c5.5,2.9,9.1,6.5,9.1,6.5c1,1.1,2.4,1.6,3.9,1.4c1.4-0.2,2.7-1.1,3.4-2.3
	l23.8-41.7c1.4,0.9,3.1,2,4.9,3.2c-16.1,22.6-30.8,55.1-37.6,72.6c-6.5,16.7-9.2,26.9-10.3,31.6l-10.6,4.4l-33.8-0.3v12.5l17.7,0.2
	c-4.8,12.7-11.2,28.3-17.7,42.3v24.2c12.4-22.6,24.8-54.8,28.5-64.7l4.1-1.7l9.6,0.1l174.3,28c0.6,0.1,1.3,0.1,1.9,0
	c0.6-0.1,1.2-0.3,1.8-0.6l43.5-21.4c1.6,4.6,3.8,12.8,5,23.8l-13.9-0.7c-3.3-0.2-6.2,2.5-6.3,5.9c-0.2,3.4,2.4,6.4,5.8,6.5l15.2,0.7
	c0.1,6.1-0.2,13.1-1.2,20.8l-54.3,16.7l-5.1-7.4c-1.9-2.8-5.7-3.5-8.4-1.5s-3.3,5.9-1.4,8.7l7.5,10.8c0.1,0.1,0.1,0.2,0.2,0.3
	l32.6,47.2c-1.4,1.7-2.8,3.3-4.2,4.9l-57.1-83.1c-1.9-2.8-5.7-3.5-8.4-1.5s-3.4,5.9-1.4,8.7l58,84.4c-26.9,22.8-65.2,32.3-94,36.2
	l7.1-28.2l13-21.3c1.1-1.7,1.2-3.9,0.4-5.8l-18.5-43.9c-1.3-3.2-4.9-4.6-7.9-3.2c-3.1,1.4-4.5,5.1-3.1,8.2l17.2,40.9l-9.7,15.8
	l-26.8-4.7l-14.5-34.4c-1.3-3.2-4.9-4.6-7.9-3.2c-3.1,1.4-4.4,5.1-3.1,8.2l15.6,36.9l-66,0.5c-3.4,0-6,2.8-6,6.3
	c0,3.4,2.7,6.2,6.1,6.2l70-0.5c3.3,0,6-2.8,6-6.3c0-0.3,0-0.7-0.1-1l22.2,3.9l-6.9,27.2c-16,1.5-26.9,1.3-27.3,1.2
	c-3.3-0.1-6.1,2.6-6.2,6.1c-0.1,3.4,2.5,6.3,5.9,6.4c1,0,18.2,0.5,41.7-2.7l-1.1,24.2c0,0.1,0,0.2,0,0.3l-2.4,53.7l-18.3-0.9
	c-3.3-0.2-6.2,2.5-6.3,5.9c-0.2,3.4,2.4,6.4,5.8,6.5l63.7,3c-6.8,8.5-9.9,16.1-10.8,18.6c-22.3-7-45.6-12.3-73.3-1.6
	c-0.3-0.2-0.6-0.5-0.9-0.7l-89.9-55.4v14.6l77.4,48.1c-28.5,14.3-54.4,20.7-77.4,22.9v1.9h76.4c4.5-2,9-4.2,13.5-6.5
	c28.1-14.5,50.2-7.4,75.8,0.9c6,1.9,12.2,3.9,18.7,5.7h69.3c12.1-3.1,24.6-7,36.7-10.9c39.7-12.7,77.2-24.6,92.2-2.9
	c3.2,4.7,6.5,9.3,9.8,13.8h29.3c2.1-3.4,4.4-6.8,7-10.4c2.9-3.9,6.3-8.1,9.7-12.2c5.3-6.5,10.3-12.5,13.9-18.4
	c0.5-0.8,0.9-1.5,1.4-2.3c15.6-0.4,35.2-1.9,54.3-5.1l8.9,48.5h12.3l-9.3-50.7c3.9-0.8,7.8-1.7,11.5-2.7l11.5,53.4h12.4l-12.3-56.9
	c6.3-2.1,12.1-4.6,17.3-7.3c16.1-8.6,35.9-13.5,60.9-17.1l9.9,43.7v0.1l8.5,37.5h12.4l-8.1-35.6l20.2-10.2c3-1.5,4.2-5.3,2.8-8.4
	c-1.5-3.1-5.1-4.4-8.1-2.9l-17.7,9l-7.9-34.9c9.7-1.2,20.2-2.2,31.4-3.3c6.2,26.4,13.7,57.9,20.4,86.2h22.1
	C1961.5,571.6,1953.8,539.3,1947.4,512z M2039.3-370.8l0.5-3.9l129.8,20.7l5.8,21.8l-137.2-16.9L2039.3-370.8z M1339-313.2
	l-22.1-12.8c3.7-4.9,7.6-10.8,11.5-17.6l16.2,5.8L1339-313.2z M2011.4,285.9c-1.3,2.7-2.6,5.3-3.7,7.8c-9.1,20.2-5.2,61.4-4.8,65
	l0.2,4l-20.9,5.1l-4.4-194.3l56.1,6.1c0.3,46.5-7.9,73.7-15.9,92.3l-8.3-4.5c-2.3-1.2-5.1-0.8-7,1l-15.2,15
	c-2.4,2.4-2.5,6.3-0.2,8.8s6.1,2.6,8.5,0.2l12.1-11.9l4.9,2.6C2012.3,284.1,2011.8,285,2011.4,285.9z M1787.5,455l1.9,9.9
	c-1.1,0.4-2.2,0.7-3.2,1.1c-27.1,9.1-40.9,6.2-47.6,2.2c-5.4-3.2-7.2-7.8-7.6-9.2c1.1-1.5,7.2-7.7,32-12
	c39.1-6.7,107.6-27.1,132-34.6c3.8,8.3,7.3,16,10.2,22.8c-20.6,4.1-62.2,13-104.1,26l-1.6-8.5c-0.6-3.4-3.8-5.6-7.1-4.9
	C1789,448.3,1786.9,451.6,1787.5,455z M1403.2,134.6l-11,4.3c-1,0.4-1.9,1.2-2.4,2.2c0,0-1.8,3.1-4.5,3.9c-1.5,0.4-3.1,0-4.9-1.2
	c-2.9-1.9-7.4-4.8-12.1-7.8c2-2.4,4.1-4.6,6.1-6.4c4.1-3.7,8.3-7.8,12.5-12.1C1392.4,123.3,1397.9,129,1403.2,134.6z M1392.1,91.4
	l14-12.8l0.7,0.8c-2.9,3.4-7.4,8.5-12.6,14.3C1393.5,92.9,1392.8,92.1,1392.1,91.4z M1401.8,101.6c5-5.6,9.4-10.6,12.4-14.1
	l11.4,12.5l-13.9,12.2C1408.4,108.5,1405.1,105,1401.8,101.6z M1434,109l1.3,1.5l-12.5,13.1c-0.8-0.9-1.7-1.7-2.5-2.6L1434,109z
	 M1463.9-107l30.1,1.4c0.9,1.8,1.8,3.5,2.5,4.9c0.7,2.3,3.1,10.4,7.4,22.2l-10.1-7.5c-0.6-0.4-1.3-0.7-1.9-0.8L1463.9-107z
	 M1473-88.6c-9.1-2.3-20.1-6-29-9.5l0.4-9.8l1.4,0.1c1.4,0.8,2.7,1.6,3.9,2.5L1473-88.6z M1493-139c12.2-2.9,21-4.6,25-5.3
	l14.4,20.8l0.1,0.1c0.1,0.2,0.3,0.4,0.5,0.5l0.1,0.1l10.4,9.9c1,0.9,2.4,1.4,3.7,1.3l21.9-2.4l-0.5,14.1c0,0.9,0.1,1.9,0.5,2.8
	l29.6,69l-15.3,6c-4.6-12.1-9-23.2-10.8-26.2c-1.6-2.8-6.4-11-41.6,5.1c-15.1-34.4-23-61.4-23.1-61.7c-0.1-0.4-0.3-0.8-0.5-1.2
	C1501.1-118,1494.6-132.5,1493-139z M1494.3-149.3c2.4-10.7,6.4-26.5,6.9-28.5c3.8-0.2,7.7-0.4,11.7-0.6l1.9,24.9
	C1510.6-152.8,1503.6-151.4,1494.3-149.3z M1762.3-101.8c-2.6-0.1-4.8,1.9-4.9,4.6l-0.8,19l-1.9,33.5c-6.7-0.1-17.6-0.8-24.6-1.3
	l-0.6-10.1c13.8-0.4,15-2.6,16-4.2c1.8-3.1,2.7-17.8,2.7-43.6l54.6,0.3c-0.9,2-2.1,4.6-3.6,8c-6.4,14.2-1.6,51.4,0,62.4l-6.4,0.7
	c-0.1,0-0.3,0-0.4,0l-70.4,8c-5.2-11.1-10.1-21.5-14.6-31l12.9,1.8l0.7,12.6c0.1,2.4,2,4.4,4.3,4.6c1.1,0.1,26.1,2.2,34.1,1.6
	c2.4-0.2,4.2-2.1,4.4-4.6l2.2-38.1l0.9-19.1C1766.9-99.4,1764.9-101.7,1762.3-101.8z M1931.4-220.6l7.1,27.2
	c0.1,0.3,0.2,0.6,0.3,0.9l4.3,8.9l-15.4,4.9c-2.9-22.7-5.4-41.7-6.1-47l7.2-14.7l11.5,6.9l-7.8,8.2
	C1931.4-224.1,1931-222.3,1931.4-220.6z M1911.9-83.9l56.8-15.6l4.5,19.5l-117.9,39.9c-4.4-9.4-8-18.1-10.8-25.8L1911.9-83.9z
	 M1841.2-75c-4.8-14.5-6.5-23.4-6.5-23.6c-0.1-0.5-0.2-1-0.4-1.4c-0.2-0.5-0.3-1.1-0.5-1.6l91-25.8c0.6,4.7,1.1,9.4,1.7,13.8
	c0.8,6.8,2.1,11.6,3.4,14.8l-20.4,5.6L1841.2-75z M1939.1-101.3c-1-2.2-2.4-6.4-3.3-13.5c-0.6-4.8-1.2-9.9-1.8-15.2l23-6.5l6.3-1.9
	l5,29L1939.1-101.3z M1954.4-145.9l-21.7,6.1c-1.2-9.7-2.5-19.6-3.7-29.2l18.4-5.9l13.1,27.1L1954.4-145.9z M1923.6-137.1
	l-92.8,26.3c-0.1-0.4-0.3-0.8-0.4-1.2c-3.6-10.9-7.7-23.6-11.5-37.1l101-17.3C1921.1-156.9,1922.4-146.8,1923.6-137.1z M1832.8-37
	l-24.4,2.8c-2.1-14.2-5.5-46.7-0.8-57.2l4-8.8c0.7,2.3,1.4,4.5,2.1,6.6C1814.6-89.3,1819.3-67.3,1832.8-37z M1838.4-25.1
	c3.2,6.5,6.8,13.4,10.8,20.4c20.3,35.6,25.7,61.1,27.1,70.4c-39.5,24.3-67.1,37.6-90.2,47.8c-19.9-43.1-40.7-87.7-58.6-126l61.8-7
	l31.9,80.1c1,2.6,3.6,4.1,6.2,3.8c0.6-0.1,1.2-0.2,1.7-0.4c3.1-1.3,4.6-5,3.3-8.1l-30.5-76.8L1838.4-25.1z M1810.6,398.7l2.6,14
	c-19.7,5.2-39.1,9.9-53.9,12.4c-4,0.7-7.8,1.5-11.4,2.3l-1-13.2L1810.6,398.7z M1746.1,401.7l-1.2-16.5l60.6-13.8l2.8,15.1
	L1746.1,401.7z M1803.5,295c3.9-1.9,7.4-3.5,10.1-4.8l24.5,60.8l-23.1,5.3L1803.5,295z M1842.8,362.8l5.6,13.8l-28.2,6.9l-2.8-14.9
	L1842.8,362.8z M1858,387.1c1.7-0.4,3.2-1.6,4-3.2s0.9-3.5,0.2-5.2l-39.8-99c-0.6-1.5-1.8-2.8-3.3-3.4c-1.5-0.6-3.2-0.6-4.6,0
	c-0.5,0.2-6.9,3-15.6,7.2l-4.5-10.7c13.2-5.9,26-11.2,33.5-14.3c6.1,14.2,10.8,25.5,13.6,33c11.7,31.5,28.2,66.8,42.7,97.9
	c0.4,0.9,0.8,1.8,1.3,2.7c-13.4,4.1-36.4,10.9-60.5,17.5l-2.6-13.8L1858,387.1z M1824.4,197.3c-8.9-19.8-18.8-41.4-29.1-63.8
	c13.4-5.9,28.4-12.9,46.1-22.3l17.2,45.6c0.9,2.4,3.1,4.1,5.5,4.4l23.1,2.5c-0.5,0.1-1,0.3-1.5,0.5L1824.4,197.3z M1841.5,235.7
	c-3.7-8.4-7.7-17.5-12-27.1l25.2-13.6l4,7.3c1.7,3,5.3,4,8.2,2.3s3.9-5.5,2.2-8.5l-3.8-6.9l26-14c3-1.6,4.1-5.4,2.6-8.4
	c-0.6-1.3-1.7-2.2-2.9-2.8l41.6,4.5L1841.5,235.7z M1883.5,149.3l37.3-24.8l11.7,30.2L1883.5,149.3z M1868.4,144.5l-15-39.8
	c14.2-7.9,30.1-17.4,48.4-29l14.4,37L1868.4,144.5z M1634.3,43.2l-43,15.3c-4.5-5.8-9.4-12.2-14.6-19.5c-7.9-10.9-15.6-23.1-23-36.3
	l22.7-8.9c3.2,8.6,6.5,17.4,9.1,24.6c0.6,1.6,1.7,2.8,3.2,3.5s3.2,0.7,4.7,0.1l57.7-23.7c3.1-1.3,4.6-4.9,3.4-8.1s-4.7-4.8-7.8-3.5
	l-52,21.4c-1.7-4.7-4.2-11.4-6.9-18.7l21.2-8.3c1.6-0.6,2.8-1.8,3.4-3.4c0.6-1.6,0.6-3.4-0.1-4.9l-31.6-73.7l0.5-13.9l66.1-0.5
	c0,0.4,0,0.7,0.1,1.1l6.2,29.5l-15.2,1.9c-0.1,0-0.1,0-0.2,0l-25.7,3.2l-15.6-31c-1.5-3.1-5.2-4.2-8.1-2.7c-3,1.6-4.1,5.4-2.6,8.4
	l17.5,34.8c1.2,2.3,3.6,3.6,6.1,3.3l24.9-3.1l7.9,27.2l-22.3,10.3c-3,1.4-4.4,5.1-3.1,8.2c1.3,3.2,4.9,4.6,8,3.2l27.1-12.4
	c2.8-1.3,4.2-4.5,3.3-7.5l-8.9-30.3l9.3-1.2l11.9,56.9l-7.1,1.7c-1.8,0.4-3.3,1.7-4.1,3.4c-0.8,1.7-0.8,3.7,0,5.4l67.6,147
	c-1.5,0.8-3,1.7-4.5,2.5c-4.8,2.7-9.7,5.6-14.9,8.6l-63.4-107.3C1640,43.4,1637,42.3,1634.3,43.2z M1641.3,69.6l-25.6,17.7
	c-4.7-5.1-10.1-11.2-16.1-18.6l34.1-12.1L1641.3,69.6z M1583.6-181.1c28.1-0.6,53.3-0.3,68.8,1.8c-0.7,10-0.8,19-0.5,27l-69.5,6.3
	l1.5-33C1583.9-179.8,1583.8-180.5,1583.6-181.1z M1652.2-145.9c0.5,8.2,1.5,15.2,2.5,20.9l-73.3,0.6l0.7-14.8L1652.2-145.9z
	 M1714.7,92.2l31-14.5c6.8,14.7,13.7,29.6,20.5,44.3c-10.8,4.7-20.9,9.1-31.3,14.3L1714.7,92.2z M1740.5,66.4l-31,14.5l-38.7-84.3
	l5.6-1.3c3.2-0.8,5.3-4.1,4.6-7.4l-18.2-87.4C1672.5-78.8,1705.4-9.1,1740.5,66.4z M1658.6-223.5c-0.6,3.4-1.3,7-2,10.8
	c-1.5,8.4-2.7,16.3-3.4,23.7c-27.8-3.5-82.6-2-131.4,0.4l1-36.4l0.7-16.3l17.2-96.2l99.9,20.9c11.4,17.9,17.6,29.6,20.7,39.7
	C1665.9-261.9,1663.5-249.1,1658.6-223.5z M1572-180.8c-0.1,0.4-0.2,0.8-0.2,1.2l-2.5,55.5v0.3l-21.1,2.3l-6.9-6.6l8-52
	C1556.9-180.4,1564.5-180.6,1572-180.8z M1539.7-179.7l-6.3,41l-9.1-13.2l-2-27C1528-179.2,1533.9-179.4,1539.7-179.7z M1562.8-40.7
	c1.7,3.7,5.2,12.5,9.2,22.9l-24.3,9.5c-4-7.6-7.9-15.5-11.7-23.7C1547.3-37,1558.7-40.7,1562.8-40.7z M1567,46.5
	c5,7,9.7,13.2,14.1,18.9l-46.8,48.5l-8.4-8.2l-0.1-0.1l-19.7-19.4l9.3-12.7c1.1-1.5,0.9-3.6-0.5-4.8l-10.2-8.6l39.3-49.7
	C1551.5,23.5,1559.2,35.6,1567,46.5z M1513.5,110.6l-23.1,27.6l-12.5-13.6l20.9-28.4L1513.5,110.6z M1508.2,72l-6.9,9.4l-7.5-7.3
	l6.8-8.5L1508.2,72z M1493.9,91.4l-20.7,28.1l-21.7-23.6l3.6-13.1l13.8-15.7L1493.9,91.4z M1447.4,77c-0.5,0.6-0.8,1.2-1,1.9
	l-2.4,8.7l-10.8-11.8l21.1-23.2l5.5,5.3l2.3,2.5L1447.4,77z M1441.8,117.5l18.2,19.8l-10.2,13.8c-6.8-6.9-13.7-13.8-20.4-20.7
	L1441.8,117.5z M1464.7,142.4l13.9,15.2c0.3,0.9,0.9,1.7,1.6,2.3c0.4,0.4,0.9,0.6,1.3,0.9l32.5,35.4c-2.1,3.4-3.1,7.1-3.4,11
	c-16.6-13.1-36.2-31.6-56-51.2L1464.7,142.4z M1498.7,147.3l23.5-28.1l8.1,8c2.4,2.3,6.1,2.3,8.4-0.1l50.1-52
	c11.9,14.6,21.3,24.5,28.3,31.9c10.7,11.2,14,15,13.8,19.8l-0.3,6.3c-22.8,4.6-73.5,31.4-100,49.2L1498.7,147.3z M1532.1,208.3
	c3.5-3.4,14.7-10.7,28.7-18.8l16.7,30.4c-15.3,5.5-28.1,8.1-36.4,5.9c-0.9-0.3-1.8-0.6-2.6-0.8c-0.8-0.3-1.7-0.7-2.6-1.1
	C1533.2,217.7,1531.4,210.8,1532.1,208.3z M1566.6,186.1c25.2-14.3,56.7-30,69.4-31.5c4.9,5.1,13.7,14.2,22.3,25.6
	c-25.2,14.2-52,28.4-74.4,37.3L1566.6,186.1z M1650.3,138l-1.2-1.2c-1.7-1.8-3.8-3-6.3-3.8l0.3-5.8c0.5-10.5-5.8-17.1-17.2-29.1
	c-0.5-0.6-1.1-1.1-1.6-1.7l23.4-16.2l46.7,79c-5.4,3.2-11.1,6.5-17,9.9C1667,155.2,1656.3,144.2,1650.3,138z M1706.6,177.7
	c8.3-4.9,16.2-9.5,23.6-13.7c15.6-8.9,29.5-15.1,45.4-21.9c5.4,11.8,10.7,23.3,15.8,34.5l-90.4,38c-2.6-9.4-6.7-18.4-11.5-26.9
	C1695,184.4,1700.8,181.1,1706.6,177.7z M1794.2,182.9c3.9,8.5,7.6,16.7,11.2,24.7l-40.6,21.9l-6.1-16.8c-1.2-3.2-4.6-4.9-7.8-3.7
	c-3.1,1.2-4.7,4.8-3.5,8l8.5,23.4c0.6,1.7,1.9,3,3.5,3.6c0.9,0.3,1.8,0.5,2.7,0.4c0.8-0.1,1.5-0.3,2.2-0.7l46.2-24.9
	c4.5,10.1,8.7,19.5,12.5,28.2c-13.8,5.6-43.6,18.1-63.7,28.8c-9.5,5.1-33.4,7.7-48.4,8.8c-2.8-27.1-5.9-51.2-8.2-62.9
	c0-0.1-0.1-0.3-0.1-0.4L1794.2,182.9z M1803.2,359.1l-59.2,13.5l-3.5-47.2c6.5-1.7,18.1-5.5,31.6-13.7c6.2-3.8,13.3-7.6,20.1-11.1
	L1803.2,359.1z M1903.5,379.7c-14.3-30.7-30.6-65.5-42-96.2c-3-8.2-8.2-20.7-15-36.2l101-74.3c0.9-0.7,1.6-1.5,2-2.5l16.1,1.8
	l3.1,138.9l-44.2,11.2c-3.2,0.8-5.2,4.2-4.4,7.5c0.8,3.3,4.1,5.4,7.3,4.6L1969,324l1.1,46.8l-63.6,15.5
	C1905.5,384.1,1904.5,381.9,1903.5,379.7z M1946,156.1l-5.5-14.3l22.5-10.1c3.1-1.4,4.5-5.1,3.1-8.2c-1.3-3.2-4.9-4.6-7.9-3.2
	l-22.1,10L1912.3,69c15.5-10.1,32.5-21.6,51.5-35l24,47.2l10.5,48.2c0,0.1,0,0.2,0.1,0.3l7.2,33L1946,156.1z M2029.9,275
	c8.1-19.4,16.3-47.5,16.1-94l40.6,4.4l0.6,88L2029.9,275z M2088.3,285.9l1.6,37.3l-76,2.7c0.4-10.2,1.7-20.4,4.7-26.9
	c1-2.3,2.3-4.8,3.6-7.4c0.6-1.3,1.3-2.6,1.9-3.9L2088.3,285.9z M2040.8,166.4c-0.2,0-0.4,0-0.6-0.1l-22.2-2.4l-6.5-30l28.3-1.2
	l4.1,34L2040.8,166.4z M2140.3,476.5c-37,1.9-82.3,4.5-121,7.2l-1.1-57.1c0-0.1,0-0.1,0-0.2l-2.1-43.8l19.4-2.3l-3.2,59.2
	c-0.2,3.4,2.4,6.4,5.7,6.6c0.3,0,0.6,0,0.9,0c2.9-0.3,5.3-2.7,5.4-5.9l3.3-61.4l27.5-3.3l-0.7,32.8c-0.1,3.4,2.6,6.3,5.9,6.4
	c0.2,0,0.5,0,0.7,0c3-0.3,5.4-2.9,5.4-6.1l0.7-34.5l31.9-3.8l2.2,75.7c0.1,3.4,2.9,6.2,6.2,6.1c0.1,0,0.3,0,0.4,0
	c3.1-0.3,5.5-3.1,5.4-6.4L2131,369l14-1.7L2140.3,476.5z M2147.6,312.5C2147.6,312.6,2147.6,312.6,2147.6,312.5
	C2147.6,312.6,2147.6,312.6,2147.6,312.5l-1.5,32.9c-1.1-0.2-2.2-0.3-3.3-0.1l-127.7,15.2l-0.1-2.6c0-0.1,0-0.3,0-0.4
	c-0.4-4.2-0.9-11.2-1.1-19.1l82.6-3c1.6-0.1,3.1-0.8,4.2-2c1.1-1.2,1.7-2.8,1.6-4.5l-1.9-43.4l48.5-1.3L2147.6,312.5z M2151.1,236.2
	c0,0.1,0,0.2,0,0.2l-1.6,35.3l-14.8,0.4l0.2-81.5l18.2,2L2151.1,236.2z M2176.2,320.2l-0.2,154.5c-7.1,0.3-15.1,0.7-23.6,1.2
	l7-156.5L2176.2,320.2z M2212.1,243.6l-48.7-12l1.7-37.8l47.9,5.2L2212.1,243.6z M2190.9-4l22.4,185.4l-0.1,3.9l-27.3-3
	c0.5-0.9,0.8-2,0.7-3.1L2181.7-2C2184.7-2.8,2187.8-3.4,2190.9-4z M2165.8,3.1c1.3-0.5,2.5-1,3.9-1.5l4.9,177.9
	c0,0.5,0.1,1.1,0.3,1.6l-9.1-1V180l0,0c0-0.1,0-0.2,0-0.4L2154.9,6.9C2158.5,5.9,2162.2,4.7,2165.8,3.1z M2142.7,9.2l10.7,169.5
	l-37.6-4.1c0.2-0.7,0.3-1.4,0.3-2.2L2110.5,10C2121,10.7,2132,10.6,2142.7,9.2z M2122.8,189.3l-0.2,83.1l-23,0.6
	c-0.1-0.4-0.3-0.8-0.5-1.1l-0.5-85.2L2122.8,189.3z M2104.1,172.9c0,0.2,0,0.3,0.1,0.5l-47.8-5.2l-4.4-35.9l20.6-0.9
	c0.1,0,0.2,0,0.2,0l29.8-1.3L2104.1,172.9z M2066.9,4.6c2.5,0.3,5.6,0.8,9.2,1.3c6.2,1,13.9,2.2,22.4,3.1l3.7,108.6l-25.5,1.1
	c-5.8-17.7-27.3-83.8-28.5-102.8c-0.1-2.1-0.3-4.1-0.5-6C2049.6,7.9,2055.5,3.1,2066.9,4.6z M2064.1,119.2l-55.2,2.4l-9.6-44
	c-0.1-0.3-0.1-0.5-0.2-0.7l46.4-18C2051.9,81.8,2060,106.8,2064.1,119.2z M2042.2,46.8l-48.8,18.9l-19.8-38.8
	c10.7-7.7,22.1-15.9,34-24.8c6.7-4.9,14.1-9.8,22.3-14.6c2.4,6.1,5.2,15.7,6.1,29.3C2036.5,23.2,2038.9,34.2,2042.2,46.8z
	 M2009.7-81.8l20.9,43.7c-13.2,7.2-25.2,14.6-35.4,22.2c-39.6,29.3-72.1,51.7-99.4,69.3c-3.2-14.4-10.7-38.6-28.2-69.3
	c-2.5-4.4-4.8-8.7-7-12.9l133.1-45c0.1,0,0.2-0.1,0.4-0.1C1997.8-75.4,2003.1-78.2,2009.7-81.8z M1995.3-147.9l10.9,53.8
	c-7.1,4-12.6,6.9-16.3,8.4l-7.5,2.5l-10-58L1995.3-147.9z M1993.4-157.4l-23.7,7l-13.2-27.3l12.3-4c1.9-0.6,3.2-2.4,3.3-4.4
	l0.6-14.3l11-4.7L1993.4-157.4z M1976-212.3l-9.5,4.1c-1.7,0.7-2.8,2.4-2.9,4.3l-0.6,14l-10.6,3.4l-4.8-9.9l-6.3-24l7.7-8
	L1976-212.3z M1951.4-384.9l77.4,8.4l-0.2,4.7l-13,97c-4.8-0.6-9.3-1.1-13.2-1.6c-7.6-0.9-15.7-2.5-23.8-4.5
	c2.3-9,5.4-24.6,1.7-31.4c-1.4-2.6-3.4-3.7-4.9-4.1c-6.4-1.8-25.6-2.6-35.3-2.9L1951.4-384.9z M1911.4-397l30.9,9.9l-12.3,71.7
	c-0.2,1.4,0.1,2.8,1,3.9s2.2,1.7,3.5,1.8c12.1,0.2,31.7,1.1,37.9,2.5c1.1,3-0.2,13.4-2.8,24c-28.6-8-56.1-20-66.3-25.1L1911.4-397z
	 M1902.3-298.1c12,5.7,37.1,16.3,63.4,23.8l-17.6,30.9l-48.1-28.7L1902.3-298.1z M1813.1-310.7c28.9,1.9,69,5.7,82.7,9.9l-2.5,27.2
	c-10.6-0.8-45.8-3.4-83.1-6.2C1811.1-289.5,1812.1-299.9,1813.1-310.7z M1806.4-243.9c0.7-6.3,1.6-14.4,2.5-23.5
	c39.7,3,77.2,5.8,85.3,6.4l26.5,15.8l-6.7,13.6l-108.1-7.8C1806.1-240.9,1806.3-242.4,1806.4-243.9z M1912.7-222
	c1,7.6,3.3,25.2,6,45.8l-102.3,17.6c-6.1-23.1-11-48.1-10.8-71.1L1912.7-222z M1807.4-113.2l-64-0.4c-1.3,0-2.5,0.5-3.3,1.4
	c-0.9,0.9-1.4,2.2-1.4,3.4c0,16.8-0.4,36.4-1.3,42.5c-5.1,0.9-20.4,0.6-35.3-0.3c-12.4-26.2-20.9-44.2-22.8-48.4
	c-0.3-0.8-1.1-3.2-2-7l125.2-7.1C1804.1-123.5,1805.8-118.3,1807.4-113.2z M1799.6-138.6l-124.2,7c-2-12.7-3.5-32.3-0.6-57.9
	l112.7-0.2C1790.5-172.1,1794.9-154.6,1799.6-138.6z M1755.2-337.1l32.4,7.4l5.3,5.5c-1.4,15.1-2.8,29.7-4,42.7
	c-16.5-1.3-32.6-2.5-46.3-3.5L1755.2-337.1z M1739.5-272.8c14,1.1,30.8,2.4,48,3.7c-0.9,8.8-1.7,16.4-2.4,22.5
	c-0.4,3.9-0.7,7.9-0.9,11.9l-52.1-7.9L1739.5-272.8z M1784.2-224.9c0.1,8.4,0.8,16.9,2,25.5l-64.2,0.1l9.7-33.6L1784.2-224.9z
	 M1730-273.5l-18,74.2l-35.9,0.1c0.5-3.1,1-6.2,1.6-9.4c0.7-3.8,1.4-7.3,2-10.7c4.3-22.8,6.8-37.6,4.8-52.2c5-2.4,11.9-4.9,18.5-4.2
	C1706.2-275.4,1716.2-274.6,1730-273.5z M1676.8-377.4l50.1,4.9l-12.4,43.1l-38.7-6.9C1678.5-348.4,1677.5-367.6,1676.8-377.4z
	 M1672.2-327.1l29.4,5.2l-7.9,34.3c-4.3,0.8-8.4,2.2-11.9,3.7c-3.1-10.1-8.6-21.1-17.3-35.3C1667.2-321.1,1669.9-323.6,1672.2-327.1
	z M1627-382.3l40.3,3.9c1.2,14.6,1.6,36.6-1.8,43.7c-1.6,3.4-3.9,5.7-6.1,7.2c-6.7-10.6-15-23-25.2-37.9c-2.7-4-5.3-7.8-7.8-11.5
	L1627-382.3z M1575.8-390.4c6.4,1.4,12.5,2.7,17.4,3.7c6.9,10.1,14.7,21.4,23.5,34.2c6.2,9.2,11.7,17.3,16.5,24.5l-66.2-13.9
	L1575.8-390.4z M1535.2-399.5c6.2,1.6,20.2,4.7,34,7.7l-8.9,48.6l-36.7-7.7C1527.3-371.2,1532.2-393.1,1535.2-399.5z M1456.1-241.7
	c5.3-16.2,9.7-36.5,14.3-58c3.4-15.7,7.1-32.8,11.5-50.1l49.7,10.4l-17.3,96.7c0,0.2-0.1,0.4-0.1,0.7l-0.7,16.7l-1.1,37.2
	c-35.3,1.8-66.1,4.1-79.4,5C1441.7-202.9,1450.3-223.9,1456.1-241.7z M1426-167.3l3.4-5.7c7.2-0.5,30.2-2.2,59.1-4
	c-1.9,7.5-5.7,23.3-7.3,31c-1.8,0.5-3.7,1-5.6,1.5c-17.5,4.8-44.9,0.9-59.3-1.8C1419.4-152.8,1422.6-159.9,1426-167.3z M1410-133
	c0.7-1.4,1.3-2.8,2-4.2c14.1,2.8,45.4,7.8,66,2.1c1.2-0.3,2.3-0.6,3.4-0.9c1.4,6,4.5,13.6,7.6,20.5l-40.6-1.9
	c-0.6-0.3-1.1-0.6-1.7-0.9c-7.6-4.2-16.8-7.8-27.3-10.8c-4.2-1.2-7.3-2-9.5-2.5L1410-133z M1375.3-70.2l68.2,45.6
	c0.9,0.6,2,0.9,3,0.8c0.3,0,0.5-0.1,0.8-0.1c1.3-0.4,2.4-1.3,3-2.5l13.3-27.2c1.2-2.4,0.2-5.3-2.1-6.5s-5.1-0.3-6.3,2.1l-11,22.4
	l-64-42.8c3.4-5.7,6.4-10.9,9-15.4l58.8,36.9c0.9,0.6,1.9,0.8,2.9,0.7c1.4-0.1,2.8-1,3.6-2.3c1.3-2.3,0.6-5.3-1.6-6.7l-58.9-37
	c3.1-5.3,5-8.6,5.4-9.4c0.1-0.2,0.2-0.4,0.3-0.5c0.3-0.7,2.3-4.5,5.3-10.6c3.3,0.6,17,3.6,30.3,9.4v0.1l-0.8,18.2
	c-0.1,2.1,1.1,4,3,4.7c6.5,2.6,37.5,14.9,51.8,13.5l20.7,14.9c3.3,8.5,7.2,18,11.8,28.1c5.1,11.4,10.4,22.3,15.9,32.7l-52.8,66.6
	l-28.2-27.6c-1.1-1.1-2.4-1.6-3.8-1.7l-0.7-0.7c-0.1-0.1-0.2-0.2-0.2-0.3c-0.7-0.6-13.9-13.2-28.9-21.5c2.8-3.7,4.3-7.5,4.3-11.2
	c0-6.1-3.8-10-5.7-11.8c-0.2-0.2-0.4-0.4-0.5-0.5c-2.1-2.4-5.7-3.9-9.3-3.9c-2.9,0-7.3,1.1-11.3,5.8c-2.9,3.5-3.9,7.9-2.8,12.4
	c1.5,6,6.5,11.4,12.8,13.8c15.9,6,33.4,22.3,35,23.8l1.1,1.2c0.2,1.3,0.8,2.5,1.8,3.5l1,1l-20.8,23l-37-40.3l-3.6-69.2
	c0-0.1,0-0.1,0-0.2s0-0.2-0.1-0.4c0-0.1-0.1-0.2-0.1-0.3c0-0.1-0.1-0.2-0.1-0.3c0-0.1-0.1-0.2-0.1-0.3c-0.1-0.1-0.1-0.2-0.2-0.3
	c-0.1-0.1-0.1-0.2-0.2-0.3c-0.1-0.1-0.1-0.2-0.2-0.3c-0.1-0.1-0.2-0.2-0.2-0.2c-0.1-0.1-0.2-0.1-0.3-0.2s-0.2-0.1-0.3-0.2
	c-0.1,0-0.1-0.1-0.1-0.1l-21.6-10.3C1368.3-58.3,1371.9-64.4,1375.3-70.2z M1418,2.6c0,1.9-1.3,4.3-3.8,6.9
	c-0.1-0.1-0.3-0.1-0.4-0.2c-3.3-1.3-6.2-4.3-6.9-7.1c-0.5-1.9,0.2-3,0.8-3.7c1.3-1.5,2.6-2.3,4-2.5c0.1,0,0.1,0,0.2,0
	c1.4-0.1,2.3,0.6,2.5,0.7c0.2,0.3,0.5,0.6,0.9,0.9C1416.6-0.8,1418,0.7,1418,2.6z M1360.9-46l20.6,9.8l3,59l-4.5-4.9
	c-0.1-0.1-0.2-0.2-0.2-0.2c1.1-1.4,1-3.5-0.4-4.8l-34.9-31.8C1350-28,1355.6-37.2,1360.9-46z M1311.9,32c8.7-12.9,18.8-28.7,28.9-45
	l30.2,27.5c-2.3,0.3-4.5,1.3-6.3,3l-27.6,27.8C1329,40.5,1320.5,36.1,1311.9,32z M1355.8,57.5l16.1-16.2l29.6,32.3l-14.2,12.8
	c-3.1-3.3-6.2-6.5-9.1-9.5C1371.6,69.9,1364,63.5,1355.8,57.5z M1375.9,106c1.1,1.2,2.3,2.4,3.5,3.6c-4.1,4.2-8.2,8.2-12,11.7
	c-2.7,2.5-5.4,5.4-8.1,8.7c-2.1-1.4-4.1-2.7-5.7-3.7L1375.9,106z M1362.4,143.6c5,3.3,10,6.5,13.1,8.5c5.1,3.3,9.5,3,12.2,2.3
	c4.7-1.3,7.8-4.8,9.3-7l13.4-5.3c0.5,0.5,0.9,0.9,1.4,1.4l-33.8,46.6l-33.2-17.2c0,0,0,0-0.1,0
	C1350.3,162.4,1356.3,152.1,1362.4,143.6z M1315,248.1c0.2-0.4,0.3-0.8,0.4-1.3c0-0.1,1.7-10,10.4-32.4c3.8-9.9,9.4-22.6,15.8-35.3
	c0.1,0,0.1,0.1,0.2,0.1l32.2,16.6l-2.9,3.8c-1,1.4-1.4,3.1-1.1,4.8s1.2,3.2,2.6,4.1l7.8,5.5c-0.7,0.7-1,1.7-0.9,2.7l4.3,42.4
	L1315,248.1z M1402.7,262.2l-12.1-1.9l-4.3-42l22.5,15.9L1402.7,262.2z M1384.6,201.9l35.9-49.5c5.5,5.7,11,11.2,16.3,16.5l-19,25.7
	c-1.1,1.5-0.9,3.6,0.5,4.7l7.3,6.4l-6.3,9.3c0,0.1-0.1,0.1-0.1,0.2l-5.1,7.5L1384.6,201.9z M1477.6,274.2l-63-10.1l6.6-30.2l4.5-6.6
	l61.1,42.4L1477.6,274.2z M1499.5,263.5l-66.8-46.4l8.6-12.7l9.7,7.7c2.6,2.1,6.4,1.6,8.5-1.2c2-2.7,1.5-6.7-1.1-8.7l-14.7-11.7
	c-1.3-1-2.9-1.5-4.6-1.2c-1.6,0.3-3.1,1.2-4,2.6l-5.5,8.2l-4.4-3.9l16.6-22.5c32.2,32,60.1,56.7,80.9,68l0,0
	c3.7,2.3,7.4,3.7,11.1,4.9L1499.5,263.5z M1482.5,349.5l44.4-13.7c-3,14-8.3,29.8-17.1,46.8c-0.6,1.2-1.3,2.5-2,3.7L1482.5,349.5z
	 M1499.9,415.6c4.7-4.5,8.9-9.2,12.6-14.3c0.3-0.3,0.5-0.6,0.7-0.9c2.8-3.8,5.2-7.8,7.4-12c33.5-64.6,20.4-114.3,15.1-129l14.4-7.1
	c3.8,2.2,6.7,5.5,9,11.5c8.7,22.5,27.9,106.2,33.1,155.5v0.1l-15.2,0.3l-16.8-147.1c-0.4-3.4-3.4-5.9-6.7-5.5s-5.7,3.5-5.3,6.9
	l16.7,146.1l-65.3,1.5C1499.4,419.3,1499.5,417.4,1499.9,415.6z M1587.9,502l-1.6-0.3l-7.9-69.4l16.8-0.4c1.8,4.6,4.2,8.8,7.4,12.7
	c-6.6,2.9-11.7,7.5-12.3,15.2C1589.5,465.8,1587.5,483.5,1587.9,502z M1406.7,457.3c4.7-0.8,9.5-1.8,14.4-2.9
	c26.7-6.2,49.2-15.9,66.7-28.7c0.1,0.9,0.2,1.8,0.4,2.7c0,0.5,0.1,0.9,0.2,1.3c1.8,10,5.9,22.2,11.6,37.6l-94.2,9.6L1406.7,457.3z
	 M1504.5,479.4c7.5,21,6.8,36.7,5.8,44.2c-7.1-0.5-13.6-0.4-19.6,0.2c-4.1,0.4-8,1.1-11.6,1.9l-3.3-43.3L1504.5,479.4z M1403.1,538
	l2.2-48.5l5.6-0.6l0.7,49.5L1403.1,538z M1423.7,539l-0.7-51.3l40.9-4.2l3.5,45.7c-7.8,3-14.2,6.9-19.3,10.9L1423.7,539z
	 M1545.2,568c-17.5,5.6-35.5,11.3-51.6,14c-20.8,3.4-38.6-1.7-57.1-7.7c1.3-3.3,5.7-13.3,16.3-22.4c0.6-0.3,1.1-0.7,1.5-1.2
	c5.3-4.3,12-8.2,20.5-11c0.4-0.1,0.8-0.2,1.1-0.4c10.2-3.2,22.9-4.6,38.5-2.9c2.8,0.3,5.5-1.5,6.4-4.3c0.3-0.9,6.7-21.9-4-54.1
	l1.8-0.2c3.3-0.3,5.7-3.4,5.4-6.8c-0.3-3.4-3.3-5.9-6.6-5.6l0,0l-5,0.5c-4.8-12.8-8.5-23.5-10.7-32l64.5-1.5l8.6,75.3
	c0.3,2.8,2.4,5,5,5.4l8.7,1.5c1.2,13,3.9,25.2,9.6,32.4c1.7,2.1,3.3,4.1,5,5.9C1584.9,555.3,1564.9,561.7,1545.2,568z M1579.1,255.7
	c-1.7-4.4-3.7-8.1-5.9-11.2c26.2-7.5,59.3-24.4,97.4-46c5.1,8.9,9.2,18.3,11,27.7c1.3,6.9,3.2,19.5,5.1,35.6l-21.4,5.1l-2-16.4
	c-0.4-3.4-3.4-5.8-6.7-5.4c-3.3,0.4-5.7,3.5-5.2,7l2.8,23.3c0.2,1.8,1.1,3.3,2.5,4.3c1.2,0.9,2.6,1.2,4,1.1c0.3,0,0.5-0.1,0.8-0.1
	l26.6-6.4c2,18,4.1,39.1,5.8,60.8c2.6,32.9,3.5,55.6,3.6,70.7l-83.9,11.4v-0.1c-0.9-8.2-2.1-17.6-3.7-27.4l68.5-7.5
	c3.3-0.4,5.7-3.4,5.4-6.9c-0.4-3.4-3.3-5.9-6.6-5.6c0,0,0,0-0.1,0l-69.2,7.6C1599.8,330.6,1586.7,275.7,1579.1,255.7z M1697.2,418.3
	c-0.2,4.6-0.5,7.9-0.9,9.9c-7.4,3-27.4,9.5-46,11.4c-3,0.3-5.6,0.4-7.9,0.5c-1.8-0.1-3.6-0.1-5.4-0.2c-5.3-0.4-7.9-1.6-9-2.2
	c-4.3-2.5-7.6-5.4-10-8.7L1697.2,418.3z M1683.2,563.1c-3.6,4.3-7.2,8.8-10.5,13.2c-1.7,2.3-3.2,4.5-4.7,6.8
	c-2.3-3.2-4.6-6.4-6.8-9.6c-2.4-3.5-5.1-6.5-7.9-9c12.7-5.1,26.5-9.2,33.6-8.3c0.5,0.1,1.1,0.1,1.8,0.2
	C1686.9,558.5,1685.1,560.8,1683.2,563.1z M1701.7,534.8c-5.2-0.1-9.3-0.3-12.1-0.7c-17.5-2.3-45.8,9.9-57.7,15.5
	c-3.8-2.6-10.1-7.7-17-16.5c-6.3-8-6.7-41.2-3.5-68.4c4-1.7,13.1-2.7,24.8-2.6c1.9,0.1,4,0.2,6.1,0.2c10.5,0.5,22.5,1.8,34.6,4.4
	c21.9,4.6,30.3,10.3,32.1,12.4C1709.9,494,1711,513.4,1701.7,534.8z M1712.1,448.3c-1.1,1.9-1.8,3.8-2.2,5.7
	c-2.8-1.3-5.8-2.5-9.1-3.7c10-3.7,11.5-5.7,12.7-7.3c3.3-4.4,9.3-12.6,2.2-105.6c-1-13.1-2.2-26.9-3.5-40.2
	c14.4-1,40.6-3.7,52.7-10.1c5.6-3,11.9-6.1,18.6-9.2l4.6,11.1c-7.3,3.7-15.1,7.9-22,12.1c-18.2,11.1-32.6,13.2-32.7,13.2
	c-3.2,0.4-5.5,3.4-5.2,6.7l8.1,110.1C1724.1,435.2,1716.1,441,1712.1,448.3z M1811.6,516.2c-21.2,11.3-58.1,16.4-86.6,18.1
	c5.6-16.9,6.3-32.4,5.9-45.2c9,4.4,20,5.9,32.9,4.6c8.8-0.9,18.5-3.1,29-6.6c48.2-16.1,99.7-26.8,120-30.8c0.1,0.4,0.2,0.9,0.3,1.3
	c0.9,5,3.8,17.7,7.7,34.6C1873,496.5,1838.9,501.6,1811.6,516.2z M1934.1,453.4c-0.7-3.5-2-8-4-13.4c-0.1-0.2-0.2-0.5-0.3-0.7
	c-3.3-8.8-8.1-19.9-13.9-32.6l88.1-21.4l2,41.8l1.1,57.6c-8.9,0.7-17.3,1.4-25,2.1c-10.3,0.9-20.2,1.8-29.6,2.6
	c-3.5,0.3-7,0.6-10.4,0.9C1938.1,472.1,1935,458.4,1934.1,453.4z"/>
<path id="mapl" class="st2" d="M626.5-403.4h57.2l-39.7,4.9l7.7,87.9c18.6-5.2,62.4-8.6,79.4-9.8c-2.4-28.5-5-58.7-7-83h20.7
	c1.7,19.8,3.7,43.3,5.7,66.6l0.7-0.7c0.6-0.7,1.4-1.1,2.2-1.3l36.7-8.7c2.4-0.6,4.7,1,5.3,3.6l13.6,58.3c14.3-1.2,24.6-2,27.6-2.3
	c0.3,0,0.5,0,0.8-0.1l-7.1-32.1l-6,1.1c-2.3,0.4-4.4-1-5.1-3.4l-22.3-81h9.4l5.9,21.4l97.6-9.9l-1.3-11.5h6.5l1.1,10.8l6-0.6
	c2.4-3.6,4.6-7,6.8-10.2h25.4c-1.1,1.6-2.2,3.3-3.4,5.1c2.4-0.5,4.9-1.1,7.3-1.6l-0.6-3.5h6.6l0.4,2c3.1-0.7,6.1-1.4,9-2h33.5
	c1.9,4.4,4.2,12.5,7.4,27.7c1.8,8.9,3.4,17.6,4.3,22.9l28.9-6.3c-4-15-8.6-30-14.2-44.3h22.2c1.2,3.4,2.4,6.8,3.5,10.2
	c6.5-2.5,16.1-6.1,26.9-10.2h27.1c-19.8,7.5-40,15.2-51.1,19.4c7.7,25.3,13.2,50.9,18,74.2l93-34.8c0.5-0.7,1.2-1.2,2-1.4l18-6.2
	c-1.8-3.8-3.6-7.8-5.2-12.1c-6.1-15.6-10.1-28.9-13.1-39h9.5c2.8,9.5,6.5,21.4,11.9,35.2c13.3,34,31.3,50.7,36.4,54.9l1.6,1.2
	c2,1.6,2.4,4.5,1,6.7c-1.4,2.2-4.1,2.7-6.2,1.3c-0.2-0.1-0.9-0.7-2.2-1.8l-14.3-11.3l-22.5,13.5l42.9,122.5l29.2,14.1v10.6
	l-34.6-16.7c-1.1-0.5-1.9-1.5-2.4-2.7l-44.6-127.5c-0.2-0.4-0.5-0.9-0.6-1.4l-6.5-29.8l-91.3,34.2c4,19.3,7.8,37.4,12.3,51.4
	c14.9,47.3,50.3,121.1,52.7,126.2c2,3.6,22.3,40.3,44.8,78.8l70.2-42.5v14.3L1198-33.4c12.2,20.8,24.6,41.2,34.7,56.3
	c9.8-4.2,19.7-8,29.4-11.5v23.4c-5.5,2-11,4.2-16.5,6.5c5.1,6.9,10.7,14.3,16.5,21.9v39.9l-44.3,21.4c-1,0.5-2,0.6-2.9,0.5
	c-2-0.2-3.8-1.5-4.7-3.7c-1.3-3.1,0-6.8,2.9-8.2l44.4-21.4c-11.3-14.5-22.5-29.1-31.6-41.7c-23.8,11.4-45.9,25.2-61.6,42.3
	c-2.5,2.8-5.2,5.6-7.8,8.5l23.1,21.8c0.4,0,0.9,0,1.3,0.1c1.2,0.3,2.2,1.1,2.8,2.3l22.6,41.2c1.8-1.4,4-2.9,6.6-4.4
	c7.5-4.1,30.5-1.9,35.8,2.4c1.4,1.2,3.2,3,5.3,5c2.4,2.4,5.6,5.7,8.3,7.8v11.1c-4.7-1.9-9.9-7.1-14.5-11.8c-1.8-1.8-3.5-3.5-4.5-4.4
	c-3-2.1-21.7-4-26.3-1.5c-5.3,2.9-8.7,6.5-8.7,6.5c-1,1.1-2.3,1.6-3.7,1.4s-2.6-1.1-3.3-2.3l-22.9-41.7c-1.3,0.9-2.9,2-4.7,3.2
	c15.4,22.6,29.6,55.1,36.1,72.6c6.2,16.7,8.9,26.9,9.9,31.6l10.1,4.4l32.5-0.3v12.5l-17,0.2c4.6,12.7,10.8,28.3,17,42.3V325
	c-11.9-22.6-23.8-54.8-27.4-64.7l-4-1.7l-9.2,0.1l-167.3,28c-0.6,0.1-1.2,0.1-1.8,0s-1.2-0.3-1.7-0.6l-41.8-21.4
	c-1.5,4.6-3.7,12.8-4.8,23.8l13.3-0.7c3.2-0.2,5.9,2.5,6.1,5.9c0.1,3.4-2.3,6.4-5.5,6.5l-14.6,0.7c-0.1,6.1,0.2,13.1,1.1,20.8
	l52,16.7l4.9-7.4c1.9-2.8,5.5-3.5,8.1-1.5c2.6,2,3.2,5.9,1.4,8.7l-7.2,10.8c-0.1,0.1-0.1,0.2-0.2,0.3l-31.3,47.2
	c1.3,1.7,2.7,3.3,4.1,4.9l54.8-83.1c1.9-2.8,5.5-3.5,8.1-1.5c2.6,2,3.2,5.9,1.4,8.7l-55.7,84.4c25.9,22.8,62.6,32.3,90.3,36.2
	l-6.8-28.2l-12.5-21.3c-1-1.7-1.2-3.9-0.4-5.8l17.8-43.9c1.3-3.2,4.7-4.6,7.6-3.2c2.9,1.4,4.3,5.1,3,8.2l-16.5,40.9l9.3,15.8
	l25.7-4.7l13.9-34.4c1.3-3.2,4.7-4.6,7.6-3.2c2.9,1.4,4.3,5.1,3,8.2l-15,36.9l63.4,0.5c3.2,0,5.8,2.8,5.8,6.3c0,3.4-2.6,6.2-5.8,6.2
	l-67.2-0.5c-3.2,0-5.8-2.8-5.8-6.3c0-0.3,0-0.7,0.1-1l-21.4,3.9l6.6,27.2c15.4,1.5,25.8,1.3,26.2,1.2c3.2-0.1,5.9,2.6,6,6.1
	c0.1,3.4-2.4,6.3-5.6,6.4c-0.9,0-17.4,0.5-40-2.7l1,24.2c0,0.1,0,0.2,0,0.3l2.3,53.7l17.6-0.9c3.2-0.2,5.9,2.5,6.1,5.9
	c0.1,3.4-2.3,6.4-5.5,6.5l-61.1,3c6.5,8.5,9.5,16.1,10.4,18.6c21.4-7,43.8-12.3,70.4-1.6c0.3-0.2,0.5-0.5,0.8-0.7l85.7-55.1v14.6
	l-74.3,48.1c27.4,14.3,52.2,20.7,74.3,22.9v1.9h-73.4c-4.3-2-8.6-4.2-13-6.5c-27-14.5-48.2-7.4-72.8,0.9c-5.7,1.9-11.7,3.9-17.9,5.7
	h-66.6c-11.7-3.1-23.6-7-35.2-10.9c-38.1-12.7-74.1-24.6-88.5-2.9c-3.1,4.7-6.3,9.3-9.4,13.8h-28.2c-2-3.4-4.2-6.8-6.7-10.4
	c-2.7-3.9-6.1-8.1-9.3-12.2c-5.1-6.5-9.9-12.5-13.3-18.4c-0.5-0.8-0.9-1.5-1.3-2.3c-15-0.4-33.8-1.9-52.2-5.1l-8.6,48.5h-11.8
	l9-50.7c-3.8-0.8-7.4-1.7-11-2.7l-11.1,53.4h-11.9l11.8-56.9c-6-2.1-11.6-4.6-16.6-7.3c-15.5-8.6-34.5-13.5-58.4-17.1l-9.6,43.4v0.1
	l-8.2,37.5H636l7.8-35.6l-19.4-10.2c-2.9-1.5-4.1-5.3-2.6-8.4c1.4-3.1,4.9-4.4,7.8-2.9l17,9l7.6-34.9c-9.3-1.2-19.4-2.2-30.2-3.3
	 M1187.3-313.2l21.3-12.8c-3.6-4.9-7.3-10.8-11-17.6l-15.6,5.8L1187.3-313.2z M756.6,455l-1.8,9.9c1,0.4,2.1,0.7,3.1,1.1
	c26,9.1,39.2,6.2,45.7,2.2c5.2-3.2,6.9-7.8,7.3-9.2c-1.1-1.5-6.9-7.7-30.7-12c-37.6-6.7-103.3-27.1-126.7-34.6
	c-3.6,8.3-7,16-9.8,22.8c19.7,4.1,59.7,13,99.9,26l1.5-8.5c0.6-3.4,3.6-5.6,6.8-4.9C755.2,448.3,757.3,451.6,756.6,455z
	 M1125.6,134.6l10.5,4.3c1,0.4,1.8,1.2,2.3,2.2c0,0,1.7,3.1,4.3,3.9c1.4,0.4,2.9,0,4.7-1.2c2.8-1.9,7.1-4.8,11.6-7.8
	c-2-2.4-3.9-4.6-5.8-6.4c-3.9-3.7-8-7.8-12-12.1C1136,123.3,1130.7,129,1125.6,134.6z M1136.3,91.4l-13.5-12.8l-0.7,0.8
	c2.8,3.4,7.1,8.5,12.1,14.3C1134.9,92.9,1135.6,92.1,1136.3,91.4z M1126.9,101.6c-4.8-5.6-9-10.6-11.9-14.1l-11,12.5l13.3,12.2
	C1120.6,108.5,1123.8,105,1126.9,101.6z M1096,109l-1.3,1.5l12,13.1c0.8-0.9,1.6-1.7,2.4-2.6L1096,109z M1067.4-107l-28.9,1.4
	c-0.9,1.8-1.7,3.5-2.4,4.9c-0.7,2.3-3,10.4-7.1,22.2l9.7-7.5c0.6-0.4,1.2-0.7,1.9-0.8L1067.4-107z M1058.6-88.6
	c8.8-2.3,19.3-6,27.8-9.5l-0.4-9.8l-1.3,0.1c-1.3,0.8-2.6,1.6-3.7,2.5L1058.6-88.6z M1039.4-139c-11.7-2.9-20.2-4.6-24-5.3
	l-13.9,20.9l-0.1,0.1c-0.1,0.2-0.3,0.4-0.4,0.5l-0.1,0.1l-10,9.9c-1,0.9-2.3,1.4-3.5,1.3l-21-2.4l0.5,14.1c0,0.9-0.1,1.9-0.5,2.8
	L938-28l14.7,6c4.4-12.1,8.7-23.2,10.4-26.2c1.5-2.8,6.1-11,39.9,5.1c14.5-34.4,22.1-61.4,22.2-61.7c0.1-0.4,0.3-0.8,0.5-1.2
	C1031.7-118,1037.9-132.5,1039.4-139z M1038.1-149.3c-2.3-10.7-6.1-26.5-6.6-28.5c-3.7-0.2-7.4-0.4-11.2-0.6l-1.8,24.9
	C1022.5-152.8,1029.2-151.4,1038.1-149.3z M780.8-101.8c2.5-0.1,4.6,1.9,4.7,4.6l0.8,19l1.9,33.5c6.4-0.1,16.9-0.8,23.6-1.3
	l0.5-10.1c-13.2-0.4-14.4-2.6-15.3-4.2c-1.7-3.1-2.6-17.8-2.6-43.6l-52.4,0.3c0.9,2,2,4.6,3.4,8c6.1,14.2,1.5,51.4,0,62.4l6.2,0.7
	c0.1,0,0.3,0,0.4,0l67.6,8c5-11.1,9.7-21.5,14-31l-12.4,1.8l-0.7,12.6c-0.1,2.4-1.9,4.4-4.1,4.6c-1,0.1-25.1,2.2-32.8,1.6
	c-2.3-0.2-4.1-2.1-4.2-4.6l-2.1-38.1l-0.8-19.1C776.4-99.4,778.3-101.7,780.8-101.8z M691.7-40.1c4.2-9.4,7.7-18.1,10.4-25.8
	l-64.8-18 M639.5-93.2L705.1-75c4.6-14.5,6.2-23.4,6.3-23.6c0.1-0.5,0.2-1,0.3-1.4c0.2-0.5,0.3-1.1,0.5-1.6l-81.9-24.3
	c-0.6,4.7-0.7,15.3-1.2,19.7 M629.1-135.7l85.9,24.9c0.1-0.4,0.3-0.8,0.4-1.2c3.4-10.9,7.4-23.6,11-37.1l-97-17.3
	C628.3-156.9,630.3-145.4,629.1-135.7z M713.1-37l23.4,2.8c2-14.2,5.3-46.7,0.8-57.2l-3.8-8.8c-0.7,2.3-1.4,4.5-2,6.6
	C730.6-89.3,726.1-67.3,713.1-37z M707.8-25.1c-3.1,6.5-6.5,13.4-10.4,20.4c-19.5,35.6-24.7,61.1-26,70.4
	c37.9,24.3,64.4,37.6,86.6,47.8c19.1-43.1,39.1-87.7,56.3-126l-59.4-7l-30.6,80.1c-1,2.6-3.4,4.1-5.9,3.8c-0.6-0.1-1.1-0.2-1.6-0.4
	c-3-1.3-4.4-5-3.2-8.1l29.3-76.8L707.8-25.1z M734.4,398.7l-2.5,14c18.9,5.2,37.6,9.9,51.7,12.4c3.9,0.7,7.5,1.5,10.9,2.3l0.9-13.2
	L734.4,398.7z M796.4,401.7l1.2-16.5l-58.2-13.8l-2.7,15.1L796.4,401.7z M741.3,295c-3.8-1.9-7.1-3.5-9.7-4.8l-23.5,60.9l22.2,5.3
	L741.3,295z M703.6,362.8l-5.4,13.8l27.1,6.9l2.7-14.9L703.6,362.8z M688.9,387.1c-1.7-0.4-3.1-1.6-3.8-3.2
	c-0.8-1.6-0.8-3.5-0.2-5.2l38.3-99c0.6-1.5,1.7-2.8,3.2-3.4c1.4-0.6,3-0.6,4.5,0c0.5,0.2,6.6,3,14.9,7.2l4.3-10.7
	c-12.7-5.9-25-11.2-32.2-14.3c-5.9,14.2-10.4,25.5-13.1,33c-11.3,31.5-27,66.8-41,97.9c-0.4,0.9-0.8,1.8-1.2,2.7
	c12.9,4.1,35,10.9,58.1,17.5l2.5-13.8L688.9,387.1z M721.2,197.3c8.5-19.8,18-41.4,27.9-63.8c-12.9-5.9-27.2-12.9-44.3-22.3
	l-16.5,45.6c-0.9,2.4-2.9,4.1-5.3,4.4l-22.2,2.5c0.5,0.1,1,0.3,1.4,0.5L721.2,197.3z M704.8,235.7c3.5-8.4,7.4-17.5,11.5-27.1
	L692.1,195l-3.9,7.3c-1.6,3-5.1,4-7.9,2.3s-3.7-5.5-2.1-8.5l3.7-6.9l-25-14c-2.8-1.6-3.9-5.4-2.5-8.4c0.6-1.3,1.6-2.2,2.8-2.8
	l-25.8,9.6L704.8,235.7z M664.5,149.3l-35.8-24.8 M678.9,144.5l14.4-39.8c-13.6-7.9-28.9-17.4-46.5-29l-13.7,37L678.9,144.5z
	 M903.7,43.2L945,58.5c4.4-5.8,9-12.2,14-19.5c7.6-10.9,15-23.1,22.1-36.3l-21.8-8.9c-3.1,8.6-6.2,17.4-8.7,24.6
	c-0.5,1.6-1.7,2.8-3.1,3.5s-3,0.7-4.5,0.1L887.6-1.7c-3-1.3-4.4-4.9-3.2-8.1s4.6-4.8,7.5-3.5l49.9,21.4c1.6-4.7,4-11.4,6.6-18.7
	l-20.3-8.3c-1.5-0.6-2.7-1.8-3.3-3.4s-0.6-3.4,0.1-4.9l30.4-73.7l-0.5-13.9l-63.4-0.5c0,0.4,0,0.7-0.1,1.1l-5.9,29.5l14.6,1.9
	c0.1,0,0.1,0,0.2,0l24.7,3.2l15-31c1.5-3.1,5-4.2,7.8-2.7c2.8,1.6,3.9,5.4,2.5,8.4l-16.8,34.8c-1.1,2.3-3.5,3.6-5.8,3.3l-23.9-3.1
	l-7.6,27.2l21.3,10.1c2.9,1.4,4.3,5.1,3,8.2c-1.3,3.2-4.7,4.6-7.6,3.2l-26-12.4c-2.7-1.3-4.1-4.5-3.2-7.5l8.5-30.3l-8.9-1.2
	l-11.7,57.2l6.8,1.7c1.7,0.4,3.2,1.7,3.9,3.4c0.7,1.7,0.8,3.7,0,5.4l-64.9,147c1.4,0.8,2.9,1.7,4.4,2.5c4.6,2.7,9.4,5.6,14.3,8.6
	l60.9-107.3C898.3,43.4,901.1,42.3,903.7,43.2z M897,69.6l24.6,17.7c4.5-5.1,9.7-11.2,15.5-18.6l-32.8-12.1L897,69.6z M952.4-181.1
	c-27-0.6-51.2-0.3-66,1.8c0.7,10,0.7,19,0.5,27l66.7,6.3l-1.4-33C952.1-179.8,952.2-180.5,952.4-181.1z M886.5-145.9
	c-0.5,8.2-1.4,15.2-2.4,20.9l70.3,0.6l-0.6-14.8L886.5-145.9z M826.5,92.2l-29.8-14.5c-6.6,14.7-13.2,29.6-19.7,44.3
	c10.4,4.7,20.1,9.1,30,14.3L826.5,92.2z M801.7,66.4l29.7,14.5l37.2-84.3l-5.3-1.3c-3.1-0.8-5.1-4.1-4.4-7.4l17.5-87.4
	C867.1-78.8,835.5-9.1,801.7,66.4z M880.4-223.5c0.6,3.4,1.3,7,1.9,10.8c1.5,8.4,2.6,16.3,3.3,23.7c26.7-3.5,79.3-2,126.2,0.4
	l-1-36.4l-0.7-16.3l-16.5-96.2l-95.9,20.9c-11,17.9-16.9,29.6-19.9,39.7C873.4-261.9,875.7-249.1,880.4-223.5z M963.5-180.8
	c0.1,0.4,0.2,0.8,0.2,1.2l2.4,55.5v0.3l20.3,2.3l6.7-6.6l-7.7-52C978-180.4,970.7-180.6,963.5-180.8z M994.5-179.7l6,41l8.7-13.2
	l1.9-27C1005.8-179.2,1000.2-179.4,994.5-179.7z M972.3-40.7c-1.7,3.7-5,12.5-8.8,22.9l23.3,9.5c3.8-7.6,7.6-15.5,11.3-23.7
	C987.2-37,976.3-40.7,972.3-40.7z M968.3,46.5c-4.8,7-9.3,13.2-13.6,18.9l44.9,48.5l8.1-8.2l0.1-0.1l19-19.4l-9-12.7
	c-1.1-1.5-0.8-3.6,0.5-4.8l9.8-8.6l-37.8-49.7C983.2,23.5,975.9,35.6,968.3,46.5z M1019.7,110.6l22.2,27.6l12-13.6l-20.1-28.4
	L1019.7,110.6z M1024.8,72l6.7,9.4l7.2-7.3l-6.5-8.5L1024.8,72z M1038.5,91.4l19.9,28.1l20.8-23.6l-3.5-13.1l-13.3-15.7L1038.5,91.4
	z M1083.1,77c0.5,0.6,0.8,1.2,1,1.9l2.3,8.7l10.4-11.8l-20.2-23.2l-5.2,5.3l-2.2,2.5L1083.1,77z M1088.5,117.5l-17.4,19.8l9.8,13.8
	c6.6-6.9,13.1-13.8,19.5-20.7L1088.5,117.5z M1066.6,142.4l-13.4,15.2c-0.3,0.9-0.8,1.7-1.5,2.3c-0.4,0.4-0.8,0.6-1.3,0.9
	l-31.2,35.4c2,3.4,3,7.1,3.2,11c15.9-13.1,34.8-31.6,53.8-51.2L1066.6,142.4z M1033.9,147.3l-22.6-28.1l-7.8,8
	c-2.3,2.3-5.9,2.3-8.1-0.1l-48.1-52c-11.5,14.6-20.4,24.5-27.2,31.9c-10.2,11.2-13.5,15-13.2,19.8l0.3,6.3
	c21.9,4.6,70.6,31.4,96,49.2L1033.9,147.3z M1001.8,208.3c-3.3-3.4-14.1-10.7-27.5-18.8l-16.1,30.4c14.7,5.5,27,8.1,34.9,5.9
	c0.9-0.3,1.7-0.6,2.5-0.8c0.8-0.3,1.6-0.7,2.5-1.1C1000.8,217.7,1002.5,210.8,1001.8,208.3z M968.7,186.1
	c-24.2-14.3-54.5-30-66.6-31.5c-4.7,5.1-13.1,14.2-21.4,25.6c24.2,14.2,49.9,28.4,71.4,37.3L968.7,186.1z M888.3,138l1.1-1.2
	c1.7-1.8,3.7-3,6.1-3.8l-0.2-5.8c-0.4-10.5,5.6-17.1,16.6-29.1c0.5-0.6,1-1.1,1.6-1.7L891,80.2l-44.8,79c5.2,3.2,10.7,6.5,16.3,9.9
	C872.3,155.2,882.6,144.2,888.3,138z M834.3,177.7c-8-4.9-15.5-9.5-22.6-13.7c-14.9-8.9-28.4-15.1-43.6-21.9
	c-5.2,11.8-10.3,23.3-15.2,34.5l86.8,38c2.5-9.4,6.5-18.4,11.1-26.9C845.4,184.4,839.9,181.1,834.3,177.7z M750.2,182.9
	c-3.7,8.5-7.3,16.7-10.7,24.7l39,21.9l5.9-16.8c1.1-3.2,4.5-4.9,7.5-3.7s4.5,4.8,3.4,8l-8.2,23.4c-0.6,1.7-1.8,3-3.4,3.6
	c-0.8,0.3-1.7,0.5-2.6,0.4c-0.7-0.1-1.4-0.3-2.1-0.7l-44.3-24.9c-4.3,10.1-8.4,19.5-12,28.2c13.3,5.6,41.8,18.1,61.2,28.8
	c9.1,5.1,32,7.7,46.5,8.8c2.7-27.1,5.7-51.2,7.9-62.9c0-0.1,0.1-0.3,0.1-0.4L750.2,182.9z M741.6,359.1l56.9,13.5l3.3-47.2
	c-6.3-1.7-17.4-5.5-30.3-13.7c-6-3.8-12.8-7.6-19.3-11.1L741.6,359.1z M642.4,386.2c0.9-2.1,1.9-4.3,2.9-6.5
	c13.8-30.7,27.6-66.2,40.3-96.2c20.5-48.6-59.2-90.6-51.8-75.2 M625,322.3c3.1,0.8,5,4.2,4.2,7.5c-0.8,3.3-3.9,5.4-7,4.6
	 M652.6,53.4c3.1-14.4,10.2-38.6,27-69.3c2.4-4.4,4.6-8.7,6.7-12.9 M645.5-308.3l-7.8-88.7 M648.7-272.1l-2.3-26 M732.1-310.7
	c-27.8,1.9-66.3,5.7-79.4,9.9l2.4,27.2c10.2-0.8,44-3.4,79.8-6.2C734-289.5,733-299.9,732.1-310.7z M738.5-243.9
	c-0.7-6.3-1.5-14.4-2.4-23.5c-38.1,3-74.1,5.8-81.9,6.4l-25.4,15.8l6.3,13.6l103.7-7.8C738.8-240.9,738.6-242.4,738.5-243.9z
	 M636.4-222c-1,7.6-3.2,25.2-5.7,45.8l98.2,17.6c5.9-23.1,10.5-48.1,10.3-71.1L636.4-222z M737.5-113.2l61.4-0.4
	c1.2,0,2.4,0.5,3.2,1.4c0.9,0.9,1.3,2.2,1.3,3.4c0,16.8,0.4,36.4,1.3,42.5c4.9,0.9,19.6,0.6,33.9-0.3c11.9-26.2,20-44.2,21.9-48.4
	c0.3-0.8,1-3.2,1.9-7l-120.2-7.1C740.7-123.5,739.1-118.3,737.5-113.2z M745-138.6l119.2,7c1.9-12.7,3.4-32.3,0.5-57.9l-108.2-0.2
	C753.8-172.1,749.5-154.6,745-138.6z M787.7-337.1l-31.1,7.4l-5,5.5c1.3,15.1,2.7,29.7,3.9,42.7c15.9-1.3,31.3-2.5,44.4-3.5
	L787.7-337.1z M802.7-272.8c-13.5,1.1-29.5,2.4-46.1,3.7c0.9,8.8,1.6,16.4,2.3,22.5c0.4,3.9,0.7,7.9,0.8,11.9l50-7.9L802.7-272.8z
	 M759.8-224.9c-0.1,8.4-0.8,16.9-1.9,25.5l61.6,0.1l-9.3-33.6L759.8-224.9z M811.8-273.5l17.3,74.2l34.4,0.1
	c-0.4-3.1-0.9-6.2-1.5-9.4c-0.7-3.8-1.3-7.3-1.9-10.7c-4.1-22.8-6.5-37.6-4.6-52.2c-4.8-2.4-11.5-4.9-17.8-4.2
	C834.7-275.4,825.1-274.6,811.8-273.5z M862.9-377.4l-48.1,4.9l11.9,43.1l37.1-6.9C861.3-348.4,862.2-367.6,862.9-377.4z
	 M867.4-327.1l-28.2,5.2l7.6,34.3c4.1,0.8,8,2.2,11.4,3.7c3-10.1,8.3-21.1,16.6-35.3C872.2-321.1,869.5-323.6,867.4-327.1z
	 M910.8-382.3l-38.7,3.9c-1.2,14.6-1.6,36.6,1.7,43.7c1.6,3.4,3.7,5.7,5.9,7.2c6.5-10.6,14.4-23,24.2-37.9c2.6-4,5.1-7.8,7.5-11.5
	L910.8-382.3z M959.9-390.4c-6.2,1.4-12,2.7-16.7,3.7c-6.7,10.1-14.2,21.4-22.5,34.2c-6,9.2-11.2,17.3-15.8,24.5l63.6-13.9
	L959.9-390.4z M998.8-399.5c-5.9,1.6-19.4,4.7-32.7,7.7l8.5,48.6l35.2-7.7C1006.5-371.2,1001.7-393.1,998.8-399.5z M1074.8-241.7
	c-5.1-16.2-9.3-36.5-13.7-58c-3.2-15.7-6.8-32.8-11.1-50.1l-47.6,10.4l16.6,96.7c0,0.2,0.1,0.4,0.1,0.7l0.7,16.7l1,37.2
	c33.8,1.8,63.5,4.1,76.2,5C1088.6-202.9,1080.4-223.9,1074.8-241.7z M1103.7-167.3l-3.3-5.7c-6.9-0.5-29-2.2-56.8-4
	c1.8,7.5,5.5,23.3,7,31c1.8,0.5,3.6,1,5.4,1.5c16.8,4.8,43.1,0.9,56.9-1.8C1110.1-152.8,1106.9-159.9,1103.7-167.3z M1119.1-133
	c-0.6-1.4-1.3-2.8-1.9-4.2c-13.5,2.8-43.6,7.8-63.4,2.1c-1.1-0.3-2.2-0.6-3.3-0.9c-1.3,6-4.3,13.6-7.3,20.5l39-1.9
	c0.5-0.3,1.1-0.6,1.6-0.9c7.3-4.2,16.1-7.8,26.3-10.8c4-1.2,7-2,9.1-2.5L1119.1-133z M1152.4-70.2l-65.5,45.6
	c-0.9,0.6-1.9,0.9-2.9,0.8c-0.2,0-0.5-0.1-0.7-0.1c-1.2-0.4-2.3-1.3-2.8-2.5l-12.8-27.2c-1.1-2.4-0.2-5.3,2-6.5s4.9-0.3,6.1,2.1
	l10.5,22.4l61.5-42.8c-3.2-5.7-6.1-10.9-8.7-15.4l-56.5,36.9c-0.9,0.6-1.8,0.8-2.8,0.7c-1.4-0.1-2.7-1-3.4-2.3
	c-1.3-2.3-0.6-5.3,1.5-6.7l56.5-37c-2.9-5.3-4.8-8.6-5.2-9.4c-0.1-0.2-0.2-0.4-0.3-0.5c-0.3-0.7-2.2-4.5-5-10.6
	c-3.2,0.6-16.4,3.6-29.1,9.4v0.1l0.7,18.2c0.1,2.1-1.1,4-2.8,4.7c-6.2,2.6-36,14.9-49.8,13.5L1023-61.9c-3.2,8.5-6.9,18-11.3,28.1
	c-4.9,11.4-10,22.3-15.3,32.7l50.7,66.6l27.1-27.6c1-1.1,2.3-1.6,3.6-1.7l0.6-0.7c0.1-0.1,0.2-0.2,0.2-0.3
	c0.6-0.6,13.4-13.2,27.8-21.5c-2.7-3.7-4.1-7.5-4.1-11.2c0-6.1,3.7-10,5.4-11.8c0.2-0.2,0.3-0.4,0.5-0.5c2-2.4,5.5-3.9,9-3.9
	c2.8,0,7,1.1,10.8,5.8c2.8,3.5,3.8,7.9,2.7,12.4c-1.4,6-6.2,11.4-12.3,13.8c-15.2,6-32,22.3-33.6,23.8l-1.1,1.2
	c-0.2,1.3-0.8,2.5-1.7,3.5l-0.9,1l20,23l35.5-40.3l3.4-69.2c0-0.1,0-0.1,0-0.2s0-0.2,0.1-0.4c0-0.1,0-0.2,0.1-0.3
	c0-0.1,0.1-0.2,0.1-0.3c0-0.1,0.1-0.2,0.1-0.3c0-0.1,0.1-0.2,0.2-0.3c0.1-0.1,0.1-0.2,0.2-0.3c0.1-0.1,0.1-0.2,0.2-0.3
	c0.1-0.1,0.1-0.2,0.2-0.2c0.1-0.1,0.2-0.1,0.2-0.2c0.1-0.1,0.2-0.1,0.3-0.2l0.1-0.1l20.8-10.3C1159.2-58.3,1155.7-64.4,1152.4-70.2z
	 M1111.4,2.6c0,1.9,1.2,4.3,3.6,6.9c0.1-0.1,0.3-0.1,0.4-0.2c3.2-1.3,6-4.3,6.7-7.1c0.4-1.9-0.2-3-0.8-3.7c-1.2-1.5-2.5-2.3-3.8-2.5
	c-0.1,0-0.1,0-0.2,0c-1.3-0.1-2.2,0.6-2.4,0.7c-0.2,0.3-0.5,0.6-0.8,0.9C1112.7-0.8,1111.4,0.7,1111.4,2.6z M1166.2-46l-19.7,9.8
	l-2.9,59l4.3-4.9c0.1-0.1,0.2-0.2,0.2-0.2c-1.1-1.4-0.9-3.5,0.4-4.8l33.6-31.8C1176.7-28,1171.3-37.2,1166.2-46z M1213.3,32
	c-8.4-12.9-18-28.7-27.7-45l-29,27.5c2.2,0.3,4.4,1.3,6,3l26.6,27.7C1196.9,40.5,1205,36.1,1213.3,32z M1171.2,57.5l-15.5-16.2
	l-28.5,32.3l13.6,12.8c3-3.3,5.9-6.5,8.7-9.5C1156,69.9,1163.3,63.5,1171.2,57.5z M1151.8,106c-1.1,1.2-2.2,2.4-3.3,3.6
	c3.9,4.2,7.8,8.2,11.6,11.7c2.6,2.5,5.2,5.4,7.8,8.7c2.1-1.4,3.9-2.7,5.4-3.7L1151.8,106z M1164.8,143.6c-4.8,3.3-9.6,6.5-12.6,8.5
	c-4.9,3.3-9.1,3-11.7,2.3c-4.5-1.3-7.5-4.8-8.9-7l-12.9-5.3c-0.4,0.5-0.9,0.9-1.3,1.4l32.5,46.6l31.9-17.2c0,0,0,0,0.1,0
	C1176.4,162.4,1170.6,152.1,1164.8,143.6z M1210.3,248.1c-0.2-0.4-0.3-0.8-0.4-1.3c0-0.1-1.6-10-10-32.4c-3.7-9.9-9-22.6-15.2-35.3
	c-0.1,0-0.1,0.1-0.2,0.1l-30.9,16.6l2.7,3.8c0.9,1.4,1.3,3.1,1.1,4.8c-0.3,1.7-1.1,3.2-2.5,4.1l-7.5,5.5c0.6,0.7,1,1.7,0.9,2.7
	l-4.1,42.4L1210.3,248.1z M1126.1,262.2l11.6-1.9l4.1-42l-21.6,15.9L1126.1,262.2z M1143.5,201.9l-34.5-49.5
	c-5.3,5.7-10.5,11.2-15.6,16.5l18.2,25.7c1,1.5,0.8,3.6-0.5,4.7l-7,6.4l6.1,9.3c0,0.1,0.1,0.1,0.1,0.2l4.9,7.5L1143.5,201.9z
	 M1054.1,274.2l60.5-10.1l-6.3-30.2l-4.3-6.6l-58.6,42.4L1054.1,274.2z M1033.2,263.5l64.2-46.4l-8.3-12.7l-9.4,7.7
	c-2.5,2.1-6.2,1.6-8.1-1.2c-1.9-2.7-1.5-6.7,1.1-8.7l14.2-11.7c1.3-1,2.8-1.5,4.4-1.2c1.6,0.3,3,1.2,3.9,2.6l5.3,8.2l4.2-3.9
	l-15.9-22.5c-30.9,32-57.7,56.7-77.7,68l0,0c-3.5,2.3-7.1,3.7-10.7,4.9L1033.2,263.5z M1049.4,349.5l-42.7-13.7
	c2.9,14,7.9,29.8,16.4,46.8c0.6,1.2,1.3,2.5,1.9,3.7L1049.4,349.5z M1032.8,415.6c-4.5-4.5-8.6-9.2-12.1-14.3
	c-0.2-0.3-0.5-0.6-0.7-0.9c-2.6-3.8-5-7.8-7.1-12c-32.2-64.6-19.6-114.3-14.5-129l-13.8-7.1c-3.6,2.2-6.4,5.5-8.7,11.5
	c-8.3,22.5-26.8,106.2-31.7,155.5v0.1l14.6,0.3l16.1-147.1c0.4-3.4,3.3-5.9,6.4-5.5c3.2,0.4,5.5,3.5,5.1,6.9l-16,146.1l62.7,1.5
	C1033.2,419.3,1033.1,417.4,1032.8,415.6z M948.3,502l1.5-0.3l7.6-69.4l-16.1-0.4c-1.7,4.6-4.1,8.8-7.1,12.7
	c6.3,2.9,11.2,7.5,11.8,15.2C946.7,465.8,948.6,483.5,948.3,502z M1122.2,457.3c-4.5-0.8-9.1-1.8-13.8-2.9
	c-25.7-6.2-47.2-15.9-64.1-28.7c-0.1,0.9-0.2,1.8-0.4,2.7c0,0.5-0.1,0.9-0.2,1.3c-1.7,10-5.7,22.2-11.1,37.6l90.4,9.6L1122.2,457.3z
	 M1028.3,479.4c-7.2,21-6.6,36.7-5.6,44.2c6.8-0.5,13.1-0.4,18.9,0.2c3.9,0.4,7.7,1.1,11.1,1.9l3.1-43.3L1028.3,479.4z M1125.7,538
	l-2.1-48.5l-5.4-0.6l-0.7,49.5L1125.7,538z M1106,539l0.7-51.3l-39.2-4.2l-3.3,45.7c7.5,3,13.6,6.9,18.5,10.9L1106,539z M989.2,568
	c16.8,5.6,34.1,11.3,49.5,14c19.9,3.4,37-1.7,54.8-7.7c-1.2-3.3-5.5-13.3-15.6-22.4c-0.5-0.3-1-0.7-1.4-1.2
	c-5.1-4.3-11.6-8.2-19.7-11c-0.4-0.1-0.7-0.2-1.1-0.4c-9.8-3.2-22-4.6-37-2.9c-2.7,0.3-5.3-1.5-6.1-4.3c-0.3-0.9-6.4-21.9,3.8-54.1
	l-1.7-0.2c-3.2-0.3-5.5-3.4-5.2-6.8s3.1-5.9,6.3-5.6l0,0l4.8,0.5c4.6-12.8,8.2-23.5,10.3-32l-62-1.5l-8.2,75.3
	c-0.3,2.8-2.3,5-4.8,5.4l-8.3,1.5c-1.1,13-3.8,25.2-9.2,32.4c-1.6,2.1-3.2,4.1-4.8,5.9C951.2,555.3,970.4,561.7,989.2,568z
	 M956.8,255.7c1.6-4.4,3.6-8.1,5.7-11.2c-25.1-7.5-57-24.4-93.6-46c-4.9,8.9-8.8,18.3-10.6,27.7c-1.3,6.9-3,19.5-4.9,35.6l20.5,5.1
	l1.9-16.4c0.4-3.4,3.3-5.8,6.5-5.4c3.2,0.4,5.4,3.5,5,7l-2.7,23.3c-0.2,1.8-1.1,3.3-2.4,4.3c-1.1,0.9-2.5,1.2-3.9,1.1
	c-0.2,0-0.5-0.1-0.7-0.1l-25.5-6.4c-1.9,18-3.9,39.1-5.5,60.8c-2.5,32.9-3.4,55.6-3.4,70.7l80.6,11.4v-0.1c0.8-8.2,2-17.6,3.5-27.4
	l-65.7-7.5c-3.2-0.4-5.5-3.4-5.1-6.9c0.3-3.4,3.2-5.9,6.3-5.6c0,0,0,0,0.1,0l66.5,7.6C936.9,330.6,949.4,275.7,956.8,255.7z
	 M843.3,418.3c0.2,4.6,0.5,7.9,0.9,9.9c7.1,3,26.3,9.5,44.2,11.4c2.9,0.3,5.4,0.4,7.6,0.5c1.7-0.1,3.5-0.1,5.2-0.2
	c5-0.4,7.6-1.6,8.7-2.2c4.1-2.5,7.3-5.4,9.6-8.7L843.3,418.3z M856.8,563.1c3.4,4.3,6.9,8.8,10,13.2c1.6,2.3,3.1,4.5,4.5,6.8
	c2.2-3.2,4.4-6.4,6.5-9.6c2.3-3.5,4.9-6.5,7.6-9c-12.2-5.1-25.4-9.2-32.3-8.3c-0.5,0.1-1.1,0.1-1.7,0.2
	C853.2,558.5,855,560.8,856.8,563.1z M839,534.8c5-0.1,9-0.3,11.7-0.7c16.8-2.3,44,9.9,55.4,15.5c3.7-2.6,9.7-7.7,16.4-16.5
	c6.1-8,6.5-41.2,3.4-68.4c-3.8-1.7-12.6-2.7-23.8-2.6c-1.9,0.1-3.8,0.2-5.8,0.2c-10.1,0.5-21.6,1.8-33.2,4.4
	c-21,4.6-29.1,10.3-30.8,12.4C831.2,494,830.1,513.4,839,534.8z M829,448.3c1,1.9,1.7,3.8,2.1,5.7c2.7-1.3,5.6-2.5,8.8-3.7
	c-9.6-3.7-11.1-5.7-12.2-7.3c-3.1-4.4-8.9-12.6-2.1-105.6c1-13.1,2.1-26.9,3.4-40.2c-13.8-1-39-3.7-50.6-10.1
	c-5.3-3-11.5-6.1-17.8-9.2l-4.4,11.1c7,3.7,14.5,7.9,21.1,12.1c17.5,11.1,31.3,13.2,31.4,13.2c3,0.4,5.2,3.4,5,6.7l-7.8,110.1
	C817.5,435.2,825.2,441,829,448.3z M733.5,516.2c20.3,11.3,55.8,16.4,83.1,18.1c-5.4-16.9-6-32.4-5.6-45.2
	c-8.6,4.4-19.2,5.9-31.5,4.6c-8.4-0.9-17.7-3.1-27.8-6.6c-46.3-16.1-95.7-26.8-115.3-30.8c-0.1,0.4-0.2,0.9-0.3,1.3
	c-0.9,5-3.6,17.7-7.3,34.6C674.5,496.5,707.3,501.6,733.5,516.2z"/>
<polyline id="route5" class="st3" points="1953.7,583.3 1925.1,457.9 1901.1,397.9 2011.7,373.3 2006.4,335.9 2017.1,283.9 
	2032.4,245.9 2040.4,173.3 1890.4,156.6 1869.1,151.9 1843.1,95.9 1893.7,66.6 1842.4,-46.1 1811.1,-136.7 1667.7,-128.7 "/>
<path id="route4" class="st4" d="M1899.1-265.6c21.3,13.1,90.2,49.8,89.6,55.9l20.3,101c1.3,21,28.4,63.6,27.3,72.7
	c-0.4,3.4-2.9,7.2-3.3,10.7c-1,8.3,5.7,22,5.7,22c4.2,13.7,5,5.3,22.7,2c8.9-1.7,44.5,8,83.3,5.3"/>
<path id="route3" class="st5" d="M1180.1,63.2c-21.6,25.7-140.1,139.9-146,149.3l-48.5,27.4c-23.5-1.3-109.7-51.5-118.2-54.9
	c-10-4-20.7,47.3-23.3,78c-2.7,31.4-7.3,114-7.3,114c-4,13.7-6,41.3,1.3,58c13.1,29.7,71.6-9.7-13.1,36.1"/>
<path id="route2" class="st6" d="M997.6-337.4c2.2,14.9,7.4,36.6,8.3,44.5c0.4,3.4,9.3,43.5,9.5,47c4,89.3-5.3,100.5-5.3,100.5
	c-22.5,40-25.5,26.5-44.5,26.5c-10.6,0,2.2,10.2-12.3,40.3c0,0-9.8,18.3-20.8,49.8c-2.6,7.5,40.8,24.1,54,28.9"/>
<path id="route1" class="st7" d="M734.9-397.4c0.4,4.3,0.7,8.8,1.1,13.4l9.1,102.9c1.3,14.4,2.6,26.8,3.6,35.9
	c0.4,3.4,0.4,6.8,0.8,10.2c3.7,39.7-16.9,102.3-16.9,102.3c-4,13.7-8,26.1-11.1,36.2c-5.8,33.8-8.5,33.1-17.1,53.4
	c0,0-38.2,77.1-45,110.2c-0.7,3.4,76.9,47.4,103.3,59.2c3.7,1.6-93,224-93.3,225.7"/>
<linearGradient id="XMLID_32_" gradientUnits="userSpaceOnUse" x1="629.0741" y1="96.6408" x2="2229.074" y2="96.6408">
	<stop  offset="0" style="stop-color:#FFDF5E;stop-opacity:0.8"/>
	<stop  offset="0.335" style="stop-color:#FFDB4C"/>
	<stop  offset="0.53" style="stop-color:#FFDB4C"/>
	<stop  offset="0.7523" style="stop-color:#FFDC50;stop-opacity:0.9054"/>
	<stop  offset="0.9652" style="stop-color:#FFDE5B;stop-opacity:0.8148"/>
	<stop  offset="1" style="stop-color:#FFDF5E;stop-opacity:0.8"/>
</linearGradient>
<rect id="XMLID_4_" x="629.1" y="-403.4" class="st8" width="1600" height="1000"/>

</svg>
