<?xml version="1.0" encoding="utf-8"?>
<!-- Generator: Adobe Illustrator 19.0.0, SVG Export Plug-In . SVG Version: 6.00 Build 0)  -->
<svg version="1.1" id="Layer_1" xmlns="http://www.w3.org/2000/svg" xmlns:xlink="http://www.w3.org/1999/xlink" x="0px" y="0px"
	 viewBox="35 -25 100 100" style="enable-background:new 35 -25 100 100;" xml:space="preserve">
<style type="text/css">
	.st0{fill:url(#SVGID_1_);}
</style>
<linearGradient id="SVGID_1_" gradientUnits="userSpaceOnUse" x1="40" y1="25" x2="130" y2="25">
	<stop  offset="0" style="stop-color:#FF3366"/>
	<stop  offset="1" style="stop-color:#FF9966"/>
</linearGradient>
<path class="st0" d="M70.5,19.7c-0.7,0-1.3,0.6-1.3,1.3v20.2c0,0.7,0.6,1.3,1.3,1.3s1.3-0.6,1.3-1.3v-8.8h3.4c1.6,0,3-1.4,3-3v-6.7
	c0-1.7-1.4-3-3-3C75.2,19.7,70.5,19.7,70.5,19.7z M75.6,29.3c0,0.3-0.2,0.5-0.5,0.5h-3.4v-7.6h3.4c0.3,0,0.5,0.2,0.5,0.5V29.3z
	 M85-20C60.1-20,40,0.1,40,25s20.1,45,45,45s45-20.1,45-45S109.9-20,85-20L85-20z M105,9.8H94.4V-0.8L105,9.8z M106.3,51.2
	c0,0.5-0.4,0.9-0.9,0.9H64.6c-0.5,0-0.9-0.4-0.9-0.9V-1.1c0-0.5,0.4-0.9,0.9-0.9H90v15.5c0,0.5,0.4,0.9,0.9,0.9h15.5L106.3,51.2
	L106.3,51.2z M81.8,19.7c-0.7,0-1.3,0.6-1.3,1.3v20.2c0,0.7,0.6,1.3,1.3,1.3h4.4c2.4,0,4.4-2.3,4.4-5.1V24.7c0-2.8-2-5-4.4-5H81.8z
	 M88.1,37.3c0,1.4-0.9,2.5-1.9,2.5H83V22.2h3.2c1,0,1.9,1.2,1.9,2.5V37.3z M94.4,42.4c0.7,0,1.3-0.6,1.3-1.3v-8.8h3.8
	c0.7,0,1.3-0.6,1.3-1.3s-0.6-1.3-1.3-1.3h-3.8v-7.6h3.8c0.7,0,1.3-0.6,1.3-1.3s-0.6-1.3-1.3-1.3h-5c-0.7,0-1.3,0.6-1.3,1.3V41
	C93.2,41.8,93.7,42.4,94.4,42.4z"/>
</svg>
